<?xml version="1.0" standalone="no"?>
<!DOCTYPE svg PUBLIC "-//W3C//DTD SVG 20010904//EN"
 "http://www.w3.org/TR/2001/REC-SVG-20010904/DTD/svg10.dtd">
<svg version="1.0" xmlns="http://www.w3.org/2000/svg"
 width="768.000000pt" height="512.000000pt" viewBox="0 0 768.000000 512.000000"
 preserveAspectRatio="xMidYMid meet">

<g transform="translate(0.000000,512.000000) scale(0.100000,-0.100000)"
fill="#000000" stroke="none">
<path d="M608 5003 c4 -135 -12 -226 -56 -307 -15 -28 -29 -53 -32 -56 -3 -3
-17 -21 -29 -40 -42 -63 -138 -145 -190 -164 -40 -14 -74 -17 -176 -14 l-125
3 0 -95 0 -95 73 -18 c96 -23 183 -22 262 4 77 24 237 104 228 112 -3 4 5 11
19 16 13 5 30 16 37 25 25 30 30 16 25 -76 -6 -128 -5 -159 6 -173 11 -13 7
-106 -5 -138 -4 -9 -17 -19 -29 -22 -21 -4 -155 -16 -188 -16 -10 0 -18 -3
-18 -7 0 -4 -42 -7 -92 -8 -51 0 -110 -6 -131 -13 -27 -9 -62 -11 -113 -6
l-74 7 0 -132 c0 -125 1 -131 19 -125 11 3 44 10 75 15 30 5 63 13 73 18 10 5
38 10 63 10 56 2 214 18 300 32 36 6 77 8 91 5 51 -11 54 -35 55 -560 1 -264
-3 -495 -8 -513 l-9 -33 -38 39 c-45 46 -68 52 -210 52 -126 0 -192 -19 -224
-65 -19 -26 -22 -44 -22 -130 0 -86 3 -105 23 -136 12 -20 35 -41 50 -47 15
-6 86 -13 159 -15 144 -5 161 0 226 61 43 40 52 21 52 -109 0 -105 -1 -111
-24 -129 -14 -10 -42 -21 -63 -24 -37 -6 -238 -2 -480 9 l-108 5 0 -105 c0
-58 1 -105 3 -105 1 0 18 5 37 11 22 7 123 10 272 9 290 -2 317 -4 343 -30 19
-19 20 -32 19 -190 -2 -184 -11 -220 -56 -220 -29 0 -101 -35 -123 -60 -10
-11 -22 -46 -26 -77 -14 -101 33 -146 165 -158 64 -6 83 -12 102 -31 24 -23
24 -24 24 -276 0 -139 4 -257 8 -263 9 -12 39 -31 72 -46 31 -14 166 -4 193
14 11 7 39 47 62 88 52 91 72 98 122 44 31 -34 36 -55 12 -55 -19 0 -99 -61
-99 -76 0 -8 -11 -19 -25 -24 -25 -9 -25 -10 -25 -137 0 -79 -4 -123 -9 -114
-7 10 -74 20 -253 37 -133 13 -310 30 -393 38 -190 19 -376 36 -404 36 -21 0
-21 -2 -21 -230 l0 -230 1505 0 1506 0 49 37 c28 21 50 41 50 46 0 4 4 6 9 2
5 -3 16 3 23 13 10 14 19 17 34 11 32 -11 38 -27 20 -54 -15 -23 -13 -29 7
-26 4 1 10 -6 13 -14 5 -13 66 -15 470 -15 317 0 464 3 464 10 0 6 18 38 40
71 22 33 40 64 40 69 0 14 42 23 50 11 8 -13 5 -81 -6 -130 -6 -29 -5 -33 12
-29 14 3 19 12 19 38 0 37 10 60 26 60 6 0 9 -20 8 -48 l-3 -47 1672 -3 1672
-2 0 111 c0 71 -4 108 -10 104 -6 -3 -10 1 -10 9 0 9 5 16 10 16 24 0 7 29
-21 35 -30 7 -30 8 -27 58 3 44 0 52 -14 49 -13 -2 -17 9 -20 60 -2 35 -7 70
-11 78 -6 13 2 14 48 12 l55 -4 0 201 0 201 -77 1 c-43 1 -110 0 -149 -1 -57
-1 -72 2 -77 14 -4 9 -13 16 -22 16 -8 0 -15 7 -15 15 0 9 -8 18 -17 21 -35
11 -83 39 -83 47 0 5 10 17 22 26 17 14 21 27 20 64 -1 28 2 47 8 47 8 0 10
43 8 130 -2 97 0 131 10 135 6 2 12 20 12 39 0 21 6 36 15 40 9 3 15 18 15 40
0 25 6 38 20 46 31 17 26 110 -6 110 -8 0 -14 9 -14 19 0 30 -11 51 -25 51
-10 0 -12 10 -9 32 4 29 -2 40 -51 92 -30 33 -55 64 -55 69 0 5 -30 38 -67 73
-86 81 -96 89 -116 97 -9 3 -14 13 -11 20 4 10 -6 16 -35 21 l-41 6 0 119 c0
96 -3 120 -15 125 -8 3 -15 14 -15 26 0 12 -14 29 -35 42 -19 13 -35 28 -35
34 0 7 -9 14 -21 17 -11 3 -23 15 -26 26 -5 18 -11 20 -50 14 -39 -5 -45 -4
-50 16 -5 19 -12 21 -78 21 -64 0 -73 2 -78 20 -4 17 -14 20 -64 21 -32 1 -51
3 -42 6 13 3 14 12 9 47 -4 24 -5 84 -3 132 2 49 6 576 9 1171 l5 1083 -2285
0 c-2277 0 -2285 0 -2291 -20 -4 -13 -15 -20 -30 -20 -33 0 -55 -10 -55 -26 0
-7 -16 -16 -37 -19 -21 -4 -65 -13 -99 -21 -33 -8 -75 -14 -92 -14 -26 0 -32
-4 -32 -21 0 -15 -6 -20 -22 -19 -43 4 -58 0 -58 -15 0 -12 -13 -15 -55 -15
-41 0 -55 -4 -55 -14 0 -11 -13 -14 -55 -12 -36 1 -55 -2 -55 -9 0 -13 -42
-55 -54 -55 -4 0 -6 63 -4 140 l3 140 -285 0 -285 0 3 -117z m5455 -287 c3
-305 2 -374 -10 -397 -19 -37 -30 -37 -35 2 -4 22 0 33 15 40 18 10 19 21 16
172 -5 194 -1 562 5 556 3 -3 7 -170 9 -373z m-1143 -271 c0 -39 4 -55 13 -55
11 0 16 -30 21 -127 4 -75 11 -133 19 -141 9 -11 12 -82 13 -256 2 -329 -1
-304 29 -302 22 1 25 5 25 42 0 46 17 104 31 104 5 0 9 11 9 24 0 12 12 36 28
53 15 16 44 48 65 71 20 22 37 45 37 51 0 12 11 14 46 12 14 -2 23 5 27 18 3
15 14 21 34 22 70 3 99 -3 112 -22 7 -10 24 -19 37 -19 14 0 25 -8 29 -20 4
-13 18 -23 36 -27 24 -4 29 -11 29 -34 0 -16 7 -32 16 -37 35 -19 33 -409 -1
-406 -12 0 -45 -40 -45 -55 0 -17 -51 -71 -67 -71 -7 0 -16 -7 -19 -15 -4 -8
-13 -15 -21 -15 -10 0 -13 -6 -9 -16 4 -11 2 -15 -8 -11 -14 5 -76 -47 -76
-64 0 -5 -11 -14 -25 -19 -14 -5 -25 -16 -25 -24 0 -9 -7 -12 -20 -9 -11 3
-20 1 -20 -5 0 -19 -70 -35 -119 -27 -102 15 -103 15 -107 -32 -2 -23 -13 -58
-25 -77 -23 -39 -34 -47 -24 -17 3 11 1 22 -5 26 -13 8 -13 45 1 45 6 0 8 9 4
20 -4 12 -2 20 6 20 11 0 10 50 -5 235 -2 17 4 40 11 53 16 27 14 219 -2 215
-10 -3 -38 -404 -33 -480 2 -24 2 -43 1 -43 -1 0 -13 4 -26 9 -24 9 -24 11
-26 154 -2 125 0 147 14 154 15 9 16 38 9 296 -6 242 -9 287 -22 287 -11 0
-13 8 -8 35 4 20 2 79 -3 133 -6 53 -13 144 -15 201 -7 129 -14 140 -44 66
-11 -28 -11 -28 3 -11 15 19 15 19 15 -1 0 -12 -4 -25 -10 -28 -5 -3 -10 -16
-9 -28 0 -21 1 -21 9 -2 13 29 14 20 28 -210 6 -93 14 -294 18 -446 5 -229 4
-277 -7 -281 -11 -4 -13 -35 -9 -163 4 -138 7 -158 24 -170 16 -12 17 -22 11
-77 -9 -74 -12 -83 -31 -68 -11 10 -13 0 -11 -63 2 -56 0 -74 -10 -70 -7 3
-16 -12 -23 -39 -18 -68 -33 -108 -42 -108 -5 0 -6 35 -3 78 2 42 5 194 5 337
0 209 -3 262 -14 270 -9 7 -16 50 -21 145 -9 161 -23 149 -24 -21 -1 -89 -4
-118 -15 -122 -10 -4 -15 -40 -20 -134 -4 -70 -9 -144 -11 -163 -2 -19 -4 -39
-4 -43 -1 -5 -5 -5 -11 -2 -6 4 -10 71 -10 170 0 142 -2 164 -16 169 -15 6
-16 20 -11 111 5 106 -1 128 -28 105 -11 -9 -15 -37 -15 -111 0 -90 2 -99 18
-99 17 0 19 -13 25 -157 4 -87 7 -202 7 -255 l0 -98 25 12 c23 10 25 16 25 78
0 59 3 68 20 73 18 5 20 14 20 101 0 89 9 119 24 80 9 -22 7 -467 -2 -480 -4
-6 -15 -10 -24 -8 -11 1 -18 -4 -18 -14 0 -26 -50 -91 -66 -85 -10 4 -12 0 -8
-12 5 -11 -4 -26 -30 -46 -20 -17 -36 -37 -36 -44 0 -8 -10 -17 -22 -21 -12
-3 -28 -13 -36 -20 -7 -8 -22 -14 -33 -14 -10 0 -18 -6 -17 -12 2 -7 -3 -12
-10 -10 -7 1 -15 -5 -18 -13 -4 -8 -12 -15 -20 -15 -8 0 -14 -7 -14 -16 0 -8
-4 -12 -10 -9 -5 3 -10 1 -10 -4 0 -6 -6 -11 -14 -11 -8 0 -17 -7 -20 -16 -3
-9 -12 -14 -19 -11 -8 3 -19 -4 -25 -14 -7 -10 -19 -19 -26 -19 -8 0 -28 -13
-44 -30 -16 -16 -32 -27 -35 -24 -3 3 -11 -4 -17 -16 -10 -18 -14 -20 -21 -9
-7 11 -9 10 -9 -3 0 -11 -8 -18 -19 -18 -11 0 -23 -5 -26 -10 -4 -6 -15 -8
-26 -5 -13 4 -19 2 -19 -8 0 -9 -18 -20 -45 -27 -25 -7 -45 -16 -45 -19 0 -7
-56 -33 -80 -36 -8 -2 -46 -8 -84 -14 -66 -11 -128 -7 -124 7 1 4 -4 18 -11
31 -18 33 -12 248 8 260 11 7 9 13 -8 30 -11 11 -21 28 -21 36 0 8 -8 15 -18
15 -9 0 -23 9 -30 20 -14 24 -32 26 -32 5 0 -8 7 -15 15 -15 8 0 15 -4 15 -9
0 -5 -9 -7 -20 -4 -14 4 -20 0 -20 -11 0 -14 4 -17 25 -16 7 1 55 -56 55 -64
0 -4 -6 -6 -12 -5 -7 1 -24 -3 -38 -9 l-25 -12 25 2 c27 3 33 -4 24 -27 -10
-25 -34 -17 -74 25 -21 22 -45 40 -54 40 -8 0 -18 5 -21 11 -4 6 -13 8 -20 5
-7 -2 -18 1 -24 7 -6 6 -11 7 -11 3 0 -15 62 -66 81 -66 10 0 19 -5 19 -11 0
-6 7 -9 15 -5 8 3 15 3 15 1 0 -11 -24 -55 -31 -55 -4 0 -15 -35 -24 -77 -9
-43 -21 -83 -26 -89 -5 -6 -6 -31 -3 -56 5 -32 3 -48 -7 -53 -7 -5 -14 -4 -17
3 -2 7 -15 12 -28 12 -14 0 -27 6 -30 14 -3 8 -19 19 -35 25 -16 5 -29 15 -29
20 0 6 -7 11 -15 11 -8 0 -15 4 -15 9 0 5 -21 14 -47 20 -34 9 -43 15 -33 21
17 11 8 15 -52 25 -21 3 -38 12 -38 18 0 14 -73 37 -115 37 -33 0 -32 -18 1
-30 20 -8 25 -16 22 -38 -2 -15 -8 -27 -15 -27 -20 0 -24 -11 -13 -40 14 -38
4 -68 -21 -60 -18 6 -19 0 -19 -99 0 -99 -1 -106 -20 -106 -11 0 -20 -7 -20
-15 0 -8 -4 -15 -9 -15 -4 0 -14 -21 -21 -47 -7 -27 -23 -70 -35 -98 -17 -36
-24 -71 -26 -124 -2 -49 -9 -88 -21 -114 -11 -22 -22 -55 -25 -73 -3 -19 -9
-34 -13 -34 -12 0 -30 -58 -30 -96 0 -18 -4 -35 -10 -39 -5 -3 -6 -13 -3 -21
5 -14 0 -15 -38 -9 -24 4 -48 11 -53 16 -6 5 -45 9 -88 9 -71 0 -78 2 -78 20
0 18 -7 20 -86 20 -63 0 -89 4 -100 15 -12 11 -39 15 -105 15 -49 0 -89 2 -89
4 0 2 3 12 6 21 5 13 8 14 15 3 6 -10 11 -9 22 6 8 11 18 16 24 13 5 -3 26 -1
47 5 27 9 36 16 33 28 -7 26 11 50 38 50 13 0 30 7 39 15 8 8 19 15 24 15 6 0
13 6 15 13 4 9 8 9 15 -2 8 -11 11 -7 14 20 3 31 6 34 41 37 28 2 37 8 37 21
0 10 7 24 15 31 12 10 15 10 15 -4 0 -9 5 -16 10 -16 6 0 10 4 10 9 0 5 11 12
25 15 18 5 25 13 25 30 0 19 4 23 20 19 14 -4 20 0 20 11 0 9 7 16 15 16 8 0
15 5 15 10 0 16 -63 12 -88 -6 -22 -15 -62 -11 -62 6 0 5 -13 25 -30 43 -31
36 -37 52 -21 61 15 10 42 -5 51 -28 11 -30 81 -52 110 -34 11 7 20 19 20 26
0 7 14 15 30 19 17 3 33 9 35 13 8 12 -40 39 -54 30 -10 -6 -10 -9 -1 -15 15
-9 -5 -25 -32 -25 -24 0 -24 40 0 47 30 8 23 41 -20 84 -36 36 -39 43 -29 65
9 20 14 22 35 14 16 -6 27 -6 31 0 13 22 23 7 28 -42 2 -29 1 -58 -4 -63 -10
-13 0 -29 28 -43 32 -17 36 8 23 124 -11 105 -15 115 -33 108 -7 -2 -20 9 -30
26 -11 18 -26 30 -39 30 -12 0 -18 5 -15 13 3 7 -6 24 -19 36 -22 22 -31 23
-105 19 l-80 -5 7 66 c12 119 12 116 -21 119 -57 5 -95 13 -95 21 0 11 116 28
137 20 10 -4 57 -8 106 -8 70 -1 87 2 87 14 0 12 -11 14 -57 10 -32 -3 -68 -7
-80 -10 -28 -6 -53 4 -53 21 0 15 8 17 59 14 33 -2 34 -1 28 28 -5 26 -3 31
16 34 18 2 23 10 25 45 4 52 -4 57 -126 73 l-92 13 0 36 c0 36 0 36 48 39 26
2 118 4 205 4 130 1 157 4 157 16 0 22 -413 11 -439 -12 -10 -9 -28 -16 -40
-16 -20 0 -22 4 -17 25 4 14 4 25 2 25 -2 0 -13 3 -23 6 -14 6 -16 4 -6 -6 13
-14 7 -66 -10 -87 -6 -9 -40 -13 -103 -13 -54 0 -94 -4 -94 -10 0 -6 62 -11
153 -12 l152 -3 3 -52 3 -51 52 -7 c81 -10 107 -16 107 -26 0 -16 -43 -19
-245 -16 l-200 2 -1 -47 c0 -26 -6 -54 -14 -63 -7 -8 -10 -18 -7 -22 11 -11
-13 -43 -33 -43 -10 0 -31 -11 -47 -24 -23 -20 -25 -26 -15 -39 11 -13 10 -16
-5 -19 -10 -2 -31 -1 -47 4 -35 9 -44 3 -30 -20 9 -13 28 -18 86 -20 69 -3 76
-5 86 -27 7 -14 20 -25 30 -25 10 0 27 -8 38 -18 10 -9 34 -17 52 -17 l33 0
-25 20 c-24 20 -26 26 -26 112 0 104 5 123 30 123 19 0 30 19 30 51 0 16 7 19
41 19 l40 0 -2 -64 c-2 -46 -6 -63 -15 -59 -8 3 -14 -13 -19 -49 -7 -59 -30
-145 -44 -167 -5 -8 -16 -11 -25 -8 -9 4 -16 2 -16 -3 0 -6 5 -10 10 -10 6 0
29 -18 51 -41 22 -23 43 -39 45 -36 9 9 71 -60 78 -87 3 -14 12 -26 19 -26 8
0 13 -14 14 -34 1 -29 -5 -39 -34 -58 -30 -20 -34 -27 -29 -56 3 -18 15 -46
26 -63 26 -36 20 -47 -18 -33 -16 6 -26 17 -26 27 1 13 -3 16 -16 12 -11 -4
-20 1 -24 12 -6 15 -8 15 -17 3 -8 -12 -9 -10 -4 7 4 14 0 25 -11 31 -13 7
-15 17 -11 41 7 33 -6 43 -18 14 -6 -16 -8 -15 -16 5 -5 14 -20 25 -38 28 -32
7 -46 31 -36 63 6 19 -11 39 -23 26 -3 -3 0 -10 7 -14 23 -14 -5 -21 -33 -8
-30 14 -33 24 -8 30 12 3 9 7 -15 17 -18 6 -33 18 -33 25 0 14 -22 26 -59 31
-28 3 -41 15 -23 21 25 9 10 22 -35 29 -29 4 -53 3 -65 -5 -10 -6 -53 -11 -97
-11 -63 0 -80 -3 -85 -16 -6 -14 6 -16 109 -13 87 3 115 1 115 -8 0 -7 11 -15
25 -19 15 -4 28 -16 31 -30 3 -13 12 -24 20 -24 8 0 14 -6 14 -13 0 -8 16 -27
36 -43 20 -16 40 -39 44 -51 7 -16 15 -20 31 -16 15 4 20 2 15 -5 -7 -12 35
-62 53 -62 6 0 11 -6 11 -14 0 -8 13 -23 30 -32 39 -24 44 -39 15 -58 -13 -8
-30 -30 -39 -47 -15 -30 -15 -33 4 -46 34 -24 24 -36 -26 -30 -35 4 -52 12
-75 38 -28 32 -37 51 -21 47 4 0 15 2 25 7 15 6 16 10 6 16 -8 5 -21 2 -31 -8
-26 -24 -49 -1 -41 40 3 18 2 29 -2 25 -5 -4 -15 -3 -22 4 -11 9 -16 9 -23 -2
-6 -10 -9 -7 -12 11 -2 17 -10 25 -28 27 -14 2 -29 8 -34 13 -6 5 -20 9 -33 9
-18 0 -23 6 -23 26 0 20 -4 25 -16 20 -9 -3 -22 -6 -30 -6 -17 0 -19 -36 -1
-47 7 -4 21 -26 31 -48 36 -77 45 -90 59 -87 20 3 24 -20 19 -111 -4 -75 -7
-80 -38 -76 -17 2 -24 -31 -18 -81 l7 -55 -27 24 c-15 14 -33 38 -41 53 -8 15
-22 41 -30 57 -9 17 -18 40 -20 52 -3 13 -9 27 -15 33 -5 5 -10 18 -10 28 0
12 -8 18 -24 18 -14 0 -31 7 -40 15 -8 8 -27 15 -43 15 -22 0 -25 -2 -13 -10
8 -5 12 -10 7 -10 -4 0 -24 11 -45 23 -20 13 -43 22 -49 20 -16 -6 -17 -34 -2
-30 6 1 16 -11 21 -26 11 -31 45 -71 68 -80 13 -5 13 -6 0 -6 -8 -1 -25 -19
-37 -41 -25 -43 -31 -76 -11 -64 18 11 77 13 84 3 3 -5 12 -9 20 -9 18 0 75
-41 69 -50 -2 -3 10 -15 28 -25 18 -10 38 -25 46 -32 7 -8 22 -11 32 -8 11 4
19 2 19 -4 0 -6 11 -11 24 -11 20 0 25 -6 30 -38 9 -49 26 -92 37 -92 24 0 -6
-229 -36 -275 -9 -15 -32 -24 -86 -33 -41 -6 -81 -11 -89 -10 -39 3 -64 -2
-54 -12 7 -7 9 -48 6 -110 l-5 -100 41 0 c39 0 66 -23 39 -34 -7 -2 -2 -5 11
-5 20 -1 22 3 16 22 -3 12 -11 24 -15 25 -5 2 -9 10 -9 18 0 16 -16 19 -25 4
-4 -6 -11 -7 -17 -4 -6 4 -14 0 -20 -7 -7 -11 -8 -9 -5 6 2 11 8 19 13 18 5
-1 11 8 11 20 1 12 7 23 13 25 6 2 16 10 24 17 10 10 16 11 24 3 8 -8 16 -7
28 2 11 10 43 13 112 12 54 -2 104 -5 113 -8 23 -6 28 -31 35 -154 l7 -106
-62 -2 c-55 -2 -61 -1 -61 18 0 19 -6 20 -86 20 l-86 0 6 24 c7 28 -11 46 -20
22 -5 -12 -20 -16 -61 -16 -46 0 -56 3 -60 20 -4 15 -14 20 -37 20 -32 0 -74
35 -67 55 4 12 7 45 10 100 1 26 4 35 10 27 14 -22 21 22 21 131 0 90 -1 97
-20 97 -17 0 -20 7 -20 41 0 34 -2 39 -14 30 -12 -10 -15 -5 -21 28 -4 22 -5
55 -4 73 2 22 -1 32 -9 31 -17 -4 -25 40 -18 91 6 39 4 46 -13 56 -20 10 -21
20 -21 141 0 126 -1 130 -20 124 -19 -6 -20 -2 -20 64 0 71 -10 88 -30 51 -15
-28 -52 -25 -81 6 -24 26 -24 26 -19 207 2 100 4 650 5 1223 0 868 -2 1044
-14 1057 -12 15 -10 17 25 17 22 0 47 -7 57 -15 12 -8 31 -11 53 -8 30 5 36 3
41 -15 5 -20 10 -21 64 -15 49 5 60 3 65 -11 5 -14 26 -16 155 -16 124 0 151
3 155 15 4 10 20 15 49 15 29 0 45 5 49 15 4 10 20 15 50 15 35 0 45 4 49 20
4 16 14 20 45 20 62 0 72 -7 72 -51 0 -28 -4 -39 -15 -39 -13 0 -15 -22 -15
-135 0 -113 2 -135 15 -135 12 0 15 -18 15 -105 0 -87 3 -105 15 -105 12 0 15
19 15 110 0 89 -3 112 -15 116 -23 9 -22 229 1 238 12 5 15 15 11 39 -3 17 1
46 8 62 7 17 15 38 19 47 3 10 11 15 19 12 11 -4 16 -41 21 -162 4 -86 6 -173
6 -192 -1 -19 -3 -124 -3 -232 -2 -158 -5 -198 -15 -198 -8 0 -12 -6 -9 -12 2
-7 14 -13 26 -12 15 0 18 -3 11 -10 -16 -16 -13 -49 5 -42 11 4 19 -3 26 -21
15 -39 49 -59 49 -28 0 8 -7 15 -15 15 -8 0 -15 5 -15 10 0 6 5 10 10 10 6 0
10 7 10 15 0 9 -9 15 -25 15 -14 0 -25 5 -25 10 0 6 7 10 15 10 19 0 20 16 1
23 -10 4 -14 44 -18 174 -5 172 0 213 27 213 12 0 15 -12 15 -54 0 -38 4 -56
14 -59 9 -4 16 -23 18 -49 2 -30 7 -43 18 -43 9 0 14 7 12 18 -2 9 1 17 6 17
6 0 9 -25 8 -56 -1 -38 3 -58 11 -61 7 -3 13 -14 13 -24 0 -10 4 -19 9 -19 11
0 51 -66 51 -86 0 -8 7 -14 15 -14 8 0 15 -9 15 -20 0 -11 7 -20 15 -20 12 0
13 4 5 19 -11 22 -12 96 -2 124 6 14 13 8 37 -34 17 -29 39 -57 50 -63 11 -6
24 -17 28 -23 15 -23 35 -15 29 12 -2 15 0 25 7 25 6 0 11 -9 11 -21 0 -15 5
-19 15 -15 9 3 15 0 15 -8 0 -9 -7 -12 -21 -9 -16 4 -20 2 -17 -8 6 -17 48
-25 48 -9 0 8 8 10 22 7 12 -3 30 -2 40 4 26 14 39 -26 32 -100 -4 -35 -2 -66
4 -77 10 -17 11 -17 12 -1 0 9 4 17 9 17 5 0 7 -46 5 -106 -4 -95 -3 -106 11
-100 9 3 20 6 24 6 9 0 -4 171 -19 245 -7 33 -14 77 -15 97 -1 20 -8 44 -16
54 -9 11 -14 41 -14 88 0 64 -2 71 -20 71 -17 0 -19 6 -17 33 2 18 -1 32 -7
32 -14 0 -14 87 0 92 6 2 14 30 18 63 4 33 10 66 14 73 5 7 29 12 57 12 52 0
66 -13 51 -53 -12 -33 -1 -200 15 -212 7 -5 14 -21 16 -35 4 -36 36 -39 40 -3
2 20 9 29 26 31 18 3 22 -1 22 -26 0 -39 33 -50 56 -19 14 21 16 21 28 5 10
-14 19 -16 44 -8 l32 9 0 -50 c0 -30 4 -49 11 -49 9 0 10 25 4 93 -4 50 -8
103 -9 116 0 13 -6 26 -13 28 -7 3 -15 20 -19 39 -3 19 -10 37 -15 40 -15 9
-10 44 7 44 18 0 77 -31 82 -42 2 -5 10 -8 18 -8 8 0 17 -7 21 -16 3 -8 11
-13 18 -10 6 2 18 -4 26 -15 7 -10 21 -19 31 -19 10 0 18 -7 18 -16 0 -12 6
-15 21 -11 15 4 19 2 15 -9 -3 -8 1 -14 9 -14 11 0 12 6 4 30 -6 17 -15 30
-20 30 -5 0 -9 8 -9 17 0 9 -7 24 -15 33 -8 9 -17 36 -20 60 -3 25 -8 59 -11
76 -4 20 -1 34 6 39 15 9 27 -8 40 -57 6 -21 16 -41 24 -45 7 -4 16 -16 19
-26 4 -10 11 -15 17 -12 5 3 10 -3 10 -14 0 -14 6 -21 19 -21 10 0 21 -7 25
-15 3 -8 15 -15 27 -15 14 0 19 -5 16 -14 -7 -17 11 -36 35 -36 10 0 18 -6 18
-14 0 -7 6 -19 14 -25 12 -10 12 -6 1 26 -9 25 -19 38 -31 38 -10 0 -20 8 -22
18 -2 9 1 17 7 17 6 0 11 19 10 43 l0 42 -17 -37 c-16 -36 -32 -50 -32 -28 0
6 -6 10 -12 10 -17 1 -42 36 -59 84 -8 21 -19 41 -26 43 -18 7 -55 84 -50 105
3 10 1 16 -4 12 -5 -3 -9 3 -9 13 0 10 -3 34 -6 54 -5 31 -3 37 15 42 19 5 21
1 21 -34 0 -21 -1 -42 -2 -46 -2 -5 20 -13 47 -19 31 -7 49 -16 47 -23 -5 -21
20 -135 34 -157 9 -16 10 -24 2 -32 -15 -15 -4 -26 14 -15 15 9 17 44 3 56 -6
6 -6 10 3 14 8 3 12 31 12 88 0 49 4 87 11 90 6 4 8 13 5 20 -3 8 0 31 6 52 7
21 11 41 10 45 -1 3 11 0 26 -8 26 -13 76 -9 68 5 -3 4 20 8 50 9 35 2 54 -2
54 -9 0 -6 -9 -9 -20 -6 -12 3 -18 1 -14 -5 5 -7 -2 -9 -19 -6 -17 3 -28 0
-32 -10 -3 -8 -12 -12 -20 -8 -26 9 -27 -14 -1 -25 21 -10 23 -14 11 -25 -8
-8 -28 -17 -44 -20 -39 -8 -40 -21 -1 -29 30 -7 30 -7 30 -74 0 -37 -5 -72
-11 -78 -11 -11 -4 -53 9 -53 4 0 13 14 19 31 7 17 21 33 32 36 15 4 21 17 26
53 6 40 11 49 31 54 13 4 24 12 24 20 0 24 73 64 124 68 48 3 48 3 51 -29 2
-25 -2 -34 -17 -39 -18 -5 -20 -14 -16 -104 1 -54 6 -101 10 -105 10 -10 46 4
67 26 13 15 29 19 52 17 29 -3 34 -7 37 -33 5 -41 17 -53 60 -59 61 -9 115 5
122 32 3 13 8 23 13 23 4 -1 21 -1 38 -1 24 0 30 -4 27 -17 -2 -13 -12 -17
-33 -16 -18 1 -22 0 -10 -4 31 -8 37 -18 29 -47 -4 -17 -15 -28 -31 -32 -21
-6 -24 -11 -19 -35 5 -25 2 -30 -21 -35 -40 -10 -155 -10 -183 0 -25 9 -25 9
-6 -13 11 -11 27 -21 37 -21 11 0 21 -10 25 -25 3 -14 11 -25 18 -25 29 0 56
14 62 32 6 20 19 16 19 -5 0 -7 15 -12 35 -12 31 0 35 3 40 30 4 24 10 30 32
30 32 0 47 12 24 21 -19 7 -21 24 -3 24 7 0 22 7 33 16 10 8 13 13 7 9 -7 -3
-18 -3 -24 0 -13 8 18 45 37 45 8 0 16 16 20 39 4 25 12 41 24 44 9 2 20 18
23 36 6 30 9 31 55 31 l49 0 7 -46 c3 -26 6 -64 6 -86 0 -24 4 -37 10 -33 6 3
10 46 10 96 0 76 3 92 20 109 11 11 20 31 20 44 0 13 7 30 16 37 14 12 13 14
-12 21 -22 6 -36 3 -56 -12 -30 -22 -101 -29 -80 -8 18 18 15 57 -7 84 -10 13
-22 49 -26 80 -9 72 -13 84 -30 78 -13 -6 -33 52 -21 63 3 3 -1 18 -8 32 -30
55 -40 97 -26 106 6 3 10 13 10 22 0 8 9 26 20 40 11 14 20 36 20 48 0 12 6
27 13 32 16 12 180 43 230 43 31 0 37 3 37 20 0 11 6 23 13 26 11 4 127 18
190 23 14 1 17 -8 17 -54z m130 -25 c5 -3 12 -18 15 -33 4 -16 14 -31 21 -34
8 -3 14 -9 14 -15 0 -5 11 -21 25 -36 14 -15 28 -35 31 -45 3 -10 16 -29 29
-43 12 -13 26 -40 29 -59 6 -32 26 -59 26 -36 0 6 5 11 11 11 6 0 9 -6 6 -12
-2 -7 5 -23 17 -36 20 -22 20 -24 4 -36 -10 -7 -18 -21 -18 -30 0 -19 -29 -34
-39 -20 -15 21 -53 36 -64 25 -8 -8 -8 -11 1 -11 7 0 12 -7 12 -15 0 -8 6 -15
14 -15 21 0 30 -20 17 -33 -9 -9 -14 -8 -21 3 -8 12 -12 12 -18 2 -11 -16 -72
13 -72 35 0 8 -8 17 -19 20 -26 7 -42 47 -49 120 -4 52 -2 64 12 69 20 7 20
22 3 43 -17 19 -42 107 -39 137 1 12 -4 27 -11 33 -15 12 -11 74 4 65 5 -3 9
1 9 8 0 7 10 -3 21 -22 12 -19 25 -37 29 -40z m101 31 c30 -5 131 -19 224 -31
94 -12 185 -24 203 -26 19 -3 38 -14 48 -29 8 -13 21 -21 29 -19 8 4 15 -5 20
-25 4 -19 23 -44 50 -66 41 -34 43 -39 54 -113 14 -103 15 -402 1 -402 -6 0
-10 31 -10 79 0 119 -11 202 -27 208 -26 10 -30 -11 -22 -92 5 -44 9 -130 11
-191 1 -89 -2 -115 -15 -135 -14 -19 -17 -20 -17 -6 0 9 3 17 8 17 4 0 7 14 8
30 1 20 -4 30 -13 30 -8 0 -12 -4 -8 -9 3 -5 1 -12 -4 -15 -9 -6 -24 64 -16
73 3 2 5 -3 5 -12 0 -23 17 -21 23 2 5 21 -33 44 -58 35 -12 -5 -15 2 -15 32
0 47 -24 121 -34 105 -4 -6 -14 -11 -23 -11 -11 0 -14 8 -11 29 3 20 1 28 -6
23 -27 -17 -76 6 -76 35 0 8 -13 19 -30 24 -16 6 -30 17 -30 24 0 8 -6 20 -13
27 -8 7 -17 26 -21 43 -6 22 -9 26 -17 14 -7 -11 -9 -11 -9 4 0 23 -29 34 -41
16 -7 -11 -9 -9 -9 7 0 12 -6 27 -14 33 -24 20 -30 64 -10 78 10 7 13 13 7 13
-7 0 -19 8 -29 18 -10 9 -22 17 -28 17 -5 0 -13 11 -16 25 -4 14 -12 24 -18
23 -7 -2 -14 8 -18 22 -3 14 -9 25 -14 25 -6 0 -22 12 -67 50 -7 5 -17 10 -23
10 -5 0 -10 5 -10 10 0 12 12 12 81 1z m-2412 -166 c-2 -125 -10 -161 -26
-118 -4 9 -1 19 5 21 7 2 12 23 12 50 0 34 -3 43 -10 32 -8 -12 -10 -11 -10 6
0 11 5 25 12 32 9 9 9 12 0 12 -7 0 -12 12 -12 28 0 21 -2 24 -10 12 -7 -11
-10 -7 -10 18 0 18 4 31 9 27 5 -3 12 -1 16 5 20 32 26 0 24 -125z m-459 74
c0 -17 -4 -28 -10 -24 -11 7 -9 55 2 55 4 0 8 -14 8 -31z m-6 -72 c-8 -4 -14
-16 -14 -25 0 -18 -34 -74 -44 -73 -20 3 -24 -1 -19 -19 4 -16 2 -19 -11 -14
-9 4 -16 17 -15 33 1 39 25 96 39 93 7 -2 9 5 5 17 -10 32 23 43 50 17 17 -17
19 -23 9 -29z m3628 23 c10 -11 18 -28 18 -38 0 -10 9 -27 20 -37 13 -11 18
-25 14 -37 -3 -12 -1 -16 8 -13 27 10 40 -12 42 -74 1 -41 5 -61 14 -61 8 0
12 21 12 70 0 63 2 70 20 70 18 0 20 -7 20 -62 0 -96 9 -135 34 -146 21 -9 21
-10 -6 -22 -24 -11 -27 -19 -33 -86 -4 -41 -12 -74 -17 -74 -5 0 -8 8 -7 18 1
9 -1 24 -4 32 -3 8 -8 26 -10 40 -2 14 -5 3 -7 -25 -3 -64 -12 -97 -29 -103
-9 -3 -11 2 -6 17 4 12 2 21 -4 21 -14 0 -34 -38 -28 -54 3 -6 -1 -20 -9 -30
-7 -11 -11 -23 -8 -27 3 -5 -7 -4 -23 2 -38 14 -43 25 -43 96 0 59 12 111 29
123 4 3 4 50 -1 105 -4 55 -6 110 -3 123 3 12 1 22 -3 22 -11 0 -22 -97 -22
-184 0 -53 -3 -62 -18 -63 -16 -1 -21 12 -32 85 -16 102 -18 169 -7 199 6 17
3 24 -19 35 -17 8 -32 27 -40 50 -14 42 -14 42 81 45 37 1 54 -3 67 -17z m98
-21 c0 -11 -4 -17 -10 -14 -5 3 -10 13 -10 21 0 8 5 14 10 14 6 0 10 -9 10
-21z m30 -59 c0 -26 -10 -50 -21 -50 -13 0 -30 47 -23 64 7 19 44 8 44 -14z
m-2165 -20 c8 -13 -5 -13 -25 0 -13 8 -13 10 2 10 9 0 20 -4 23 -10z m23 -32
c2 -4 9 -14 15 -21 74 -77 87 -121 38 -132 -16 -3 -49 -5 -75 -4 -35 2 -45 6
-41 17 3 7 5 21 5 30 0 13 2 14 9 3 6 -10 10 -10 16 -1 4 6 5 14 2 16 -8 8
-57 -8 -52 -16 3 -5 1 -11 -5 -15 -5 -3 -10 1 -10 9 0 8 -10 17 -22 19 -18 3
-16 5 7 6 17 0 38 10 48 21 9 11 24 20 32 20 19 0 19 16 0 24 -8 3 -15 1 -15
-4 0 -19 -17 -10 -28 15 -7 14 -12 28 -12 30 0 7 85 -8 88 -17z m-1531 -125
c-2 -27 -3 -5 -3 47 0 52 1 74 3 48 2 -27 2 -69 0 -95z m1967 105 c13 -20 20
-44 43 -135 3 -13 10 -23 15 -23 14 0 0 -51 -18 -70 -14 -13 -22 -8 -75 48
-32 34 -62 62 -66 62 -3 0 -15 7 -25 17 -26 23 -23 57 7 73 14 7 25 17 25 22
0 4 9 8 20 8 11 0 20 5 20 10 0 19 40 10 54 -12z m-1890 -6 c32 -18 34 -20 18
-35 -13 -14 -14 -19 -3 -29 9 -9 12 -9 7 -1 -3 6 -2 14 3 17 6 4 10 -36 10
-98 1 -83 -2 -105 -14 -110 -8 -3 -12 -12 -9 -21 4 -8 3 -30 0 -48 -5 -26 -11
-33 -26 -32 -33 2 -42 19 -47 87 -5 58 -3 65 21 89 23 24 25 30 15 53 -9 19
-9 29 -1 39 9 10 9 20 -1 40 -6 15 -15 27 -19 27 -5 0 -8 9 -8 20 0 25 11 25
54 2z m1356 -22 c0 -5 -2 -10 -4 -10 -3 0 -8 5 -11 10 -3 6 -1 10 4 10 6 0 11
-4 11 -10z m-1063 -62 c-2 -13 -4 -3 -4 22 0 25 2 35 4 23 2 -13 2 -33 0 -45z
m-565 10 c-6 -6 -7 0 -4 19 5 21 7 23 10 9 2 -10 0 -22 -6 -28z m1878 34 c0
-13 -12 -22 -22 -16 -10 6 -1 24 13 24 5 0 9 -4 9 -8z m40 -37 c0 -8 -7 -15
-15 -15 -16 0 -20 12 -8 23 11 12 23 8 23 -8z m-833 -47 c-3 -8 -6 -5 -6 6 -1
11 2 17 5 13 3 -3 4 -12 1 -19z m873 6 c0 -8 -5 -12 -10 -9 -6 4 -8 11 -5 16
9 14 15 11 15 -7z m-2996 -45 c-3 -5 -10 -7 -15 -3 -5 3 -7 10 -3 15 3 5 10 7
15 3 5 -3 7 -10 3 -15z m2096 11 c0 -5 -3 -10 -8 -10 -4 0 -6 -19 -4 -41 3
-29 1 -40 -7 -35 -12 8 -15 54 -5 80 7 18 24 22 24 6z m976 0 c8 0 14 -7 14
-15 0 -17 -55 -21 -65 -5 -9 15 5 32 22 26 8 -3 21 -6 29 -6z m-919 -32 c-3
-7 -5 -2 -5 12 0 14 2 19 5 13 2 -7 2 -19 0 -25z m1113 -62 c0 -3 -4 -8 -10
-11 -5 -3 -10 -1 -10 4 0 6 5 11 10 11 6 0 10 -2 10 -4z m-1450 -10 c0 -2 -7
-6 -15 -10 -8 -3 -15 -1 -15 4 0 6 7 10 15 10 8 0 15 -2 15 -4z m1480 -16 c0
-5 -8 -10 -17 -10 -15 0 -16 2 -3 10 19 12 20 12 20 0z m-1455 -30 c3 -5 -1
-10 -9 -10 -9 0 -16 5 -16 10 0 6 4 10 9 10 6 0 13 -4 16 -10z m-706 -110 c-2
-55 -6 -100 -11 -100 -4 0 -8 45 -8 100 0 63 4 100 10 100 7 0 10 -36 9 -100z
m1849 28 c-4 -30 -48 -39 -48 -10 0 10 3 22 7 25 3 4 15 7 25 7 14 0 19 -6 16
-22z m-1002 -39 c3 -5 18 -9 34 -9 50 0 77 -16 85 -52 4 -18 7 -37 6 -41 -1
-4 6 -10 14 -13 8 -4 15 -15 15 -26 0 -18 -4 -20 -32 -14 -18 3 -37 12 -43 19
-5 7 -33 24 -62 37 -51 23 -79 56 -71 82 3 7 -2 18 -10 24 -10 8 -5 9 22 6 20
-2 39 -8 42 -13z m-620 -59 c5 -11 8 -9 15 8 10 28 36 24 31 -4 -6 -30 -35
-52 -57 -44 -30 11 -35 3 -35 -52 0 -34 -6 -58 -16 -70 -16 -17 -18 -17 -32
10 -18 33 -19 136 -2 177 11 26 14 27 18 10 10 -45 48 -46 58 -2 8 30 8 30 12
7 1 -14 5 -32 8 -40z m3590 -79 c-1 -110 -3 -126 -18 -129 -18 -3 -50 24 -61
51 -3 9 -13 17 -21 17 -9 0 -18 14 -22 35 -7 37 12 77 48 103 12 9 17 21 13
32 -5 15 0 18 28 17 l34 -1 -1 -125z m-1986 69 c0 -11 -4 -20 -10 -20 -5 0
-10 9 -10 20 0 11 5 20 10 20 6 0 10 -9 10 -20z m-1592 -87 c-2 -10 -14 -20
-28 -22 -25 -3 -25 -3 -6 18 23 26 39 27 34 4z m486 -61 c-15 -24 -38 -21 -42
5 -2 14 3 23 15 25 26 6 40 -9 27 -30z m-667 -14 c-3 -7 -5 -2 -5 12 0 14 2
19 5 13 2 -7 2 -19 0 -25z m167 -4 c23 -9 20 -26 -4 -19 -12 4 -20 2 -20 -5 0
-6 5 -8 10 -5 6 3 10 -1 10 -10 0 -15 -26 -32 -35 -23 -3 2 -8 19 -11 36 -6
28 -4 32 14 32 11 0 27 -3 36 -6z m3486 -44 c0 -17 25 -35 43 -32 4 1 7 -2 7
-8 0 -5 -4 -10 -10 -10 -5 0 -10 -9 -10 -20 0 -13 7 -20 19 -20 15 0 20 -10
25 -54 4 -30 13 -57 20 -59 15 -6 26 -61 33 -172 2 -45 10 -83 16 -88 7 -5 2
-7 -13 -5 -20 2 -26 9 -28 36 -2 17 -8 32 -13 32 -15 0 -31 -51 -24 -77 3 -13
3 -23 1 -23 -2 0 -11 -3 -20 -6 -14 -5 -15 10 -11 137 2 79 2 135 0 124 -3
-15 -25 -218 -29 -266 -1 -3 -9 -13 -18 -23 -10 -10 -18 -22 -18 -27 0 -5 -6
-9 -14 -9 -7 0 -19 -7 -26 -15 -7 -8 -23 -15 -35 -15 -12 0 -29 -9 -36 -20 -8
-12 -35 -26 -63 -33 -27 -7 -52 -19 -54 -26 -3 -8 0 -11 6 -7 6 3 13 2 17 -4
3 -5 -4 -10 -17 -10 -87 -2 -124 -6 -129 -13 -3 -5 -12 -10 -20 -11 -45 -9
-69 -27 -69 -50 0 -16 -7 -27 -20 -31 -27 -8 -50 11 -50 41 0 27 17 41 22 17
3 -15 4 -15 20 0 11 11 16 32 14 64 0 27 4 64 11 83 7 19 12 53 13 76 0 36 4
42 45 69 32 19 42 32 35 39 -22 22 -8 102 20 109 10 2 26 21 35 41 10 20 22
33 28 29 5 -3 7 -1 3 5 -3 6 0 16 7 24 7 7 16 21 20 30 7 21 37 13 37 -9 0 -8
5 -11 11 -7 6 3 8 17 4 31 -8 32 3 66 20 60 7 -3 32 21 59 59 26 36 51 62 56
59 5 -3 17 -2 26 3 24 13 54 3 54 -18z m-3423 -6 c-3 -3 -12 -4 -19 -1 -8 3
-5 6 6 6 11 1 17 -2 13 -5z m-11 -29 c10 -8 14 -15 8 -15 -5 0 -19 7 -30 15
-10 8 -14 15 -8 15 5 0 19 -7 30 -15z m384 -9 c0 -2 -7 -9 -15 -16 -13 -11
-14 -10 -9 4 5 14 24 23 24 12z m3200 -55 c0 -5 -11 -8 -25 -8 -14 0 -28 3
-31 8 -3 5 9 9 25 9 17 0 31 -4 31 -9z m-1375 -170 c3 -5 1 -12 -5 -16 -5 -3
-10 1 -10 9 0 18 6 21 15 7z m772 -103 c-3 -8 -6 -5 -6 6 -1 11 2 17 5 13 3
-3 4 -12 1 -19z m553 -165 c0 -18 -4 -33 -10 -33 -5 0 -9 -3 -8 -7 0 -5 -3
-17 -7 -27 -6 -13 -3 -23 8 -31 21 -15 33 -90 18 -109 -9 -11 -9 -15 1 -19 7
-3 -47 -6 -119 -6 -126 -1 -133 -2 -133 -21 0 -14 -7 -20 -24 -20 -18 0 -25 7
-30 31 -12 61 -10 65 37 63 48 -2 117 23 117 43 0 7 5 13 10 13 6 0 10 5 10
11 0 6 18 29 40 50 22 22 40 42 40 45 0 3 7 22 16 41 19 39 34 29 34 -24z
m-666 22 c-4 -15 -2 -25 5 -25 6 0 11 -16 10 -37 l-1 -38 -12 33 c-6 18 -15
30 -19 26 -12 -12 -8 25 5 46 17 26 20 25 12 -5z m-75 -166 c3 -148 -2 -180
-29 -164 -8 5 -8 10 1 21 9 11 5 20 -20 44 -27 26 -30 34 -20 51 12 23 4 69
-11 69 -6 0 -9 10 -9 23 1 16 2 18 6 5 8 -33 19 -18 37 53 28 105 40 77 45
-102z m51 -73 c-7 -7 -11 -1 -12 20 -4 80 -2 130 7 136 14 10 19 -142 5 -156z
m510 79 c0 -10 -10 -15 -30 -15 -49 0 -34 24 18 29 6 0 12 -6 12 -14z m-730
-105 c-8 -5 -19 -10 -25 -10 -5 0 -3 5 5 10 8 5 20 10 25 10 6 0 3 -5 -5 -10z
m0 -24 c0 -3 -4 -8 -10 -11 -5 -3 -10 -1 -10 4 0 6 5 11 10 11 6 0 10 -2 10
-4z m470 -46 c0 -5 7 -7 16 -3 14 5 16 1 12 -26 -5 -36 12 -51 37 -31 27 22
35 0 35 -96 0 -88 -2 -97 -25 -118 -14 -13 -25 -26 -25 -29 0 -14 -56 -67 -71
-67 -10 0 -20 -11 -23 -25 -5 -18 -15 -26 -41 -31 -19 -3 -35 -10 -35 -14 0
-10 -44 -29 -96 -40 -25 -6 -57 -18 -71 -28 -15 -9 -38 -15 -51 -13 -13 1 -22
-1 -19 -7 8 -12 -50 -55 -63 -47 -13 8 -13 42 0 50 6 3 10 17 10 30 0 14 8 29
20 35 11 6 17 17 14 24 -3 8 4 19 16 26 16 9 19 15 10 25 -8 9 -8 15 0 20 5 3
10 21 10 40 0 19 6 35 14 38 7 3 14 17 14 32 0 31 28 66 48 58 8 -3 14 0 14 7
0 6 -4 8 -10 5 -5 -3 -10 3 -10 13 0 33 99 122 135 122 8 0 20 9 27 20 7 11
23 20 35 20 12 0 25 5 28 10 8 13 45 13 45 0z m-4963 -22 c-3 -8 -6 -5 -6 6
-1 11 2 17 5 13 3 -3 4 -12 1 -19z m4493 -78 c0 -27 5 -50 10 -50 6 0 10 6 10
14 0 9 7 12 20 9 18 -5 20 -14 20 -108 0 -81 -3 -105 -16 -116 -13 -10 -17
-10 -25 2 -7 11 -9 10 -10 -6 -6 -112 -19 -204 -30 -210 -5 -4 -9 3 -9 15 0
11 -7 23 -15 26 -8 4 -15 15 -15 26 0 15 -5 19 -20 15 -16 -4 -20 1 -24 27 -3
17 -8 47 -11 66 -22 119 -13 230 19 230 12 0 31 37 42 83 4 20 12 27 30 27 22
0 24 -4 24 -50z m-2900 0 c0 -5 -2 -10 -4 -10 -3 0 -8 5 -11 10 -3 6 -1 10 4
10 6 0 11 -4 11 -10z m2745 -14 c13 -12 8 -37 -9 -48 -10 -7 -26 -355 -17
-385 2 -8 12 -11 26 -7 32 8 38 -7 37 -92 0 -61 -4 -78 -25 -106 -13 -18 -27
-53 -30 -78 -3 -24 -13 -49 -21 -56 -9 -6 -16 -24 -17 -40 -1 -16 -4 -40 -8
-54 l-7 -25 -7 25 c-7 25 -7 25 -25 -10 -9 -19 -15 -37 -12 -40 20 -20 -8 -65
-46 -73 l-26 -5 5 162 c5 187 12 231 38 259 10 12 19 27 19 34 0 7 3 13 8 13
4 0 16 14 27 30 11 16 26 30 33 30 17 0 15 19 -3 27 -18 6 -105 -80 -105 -103
0 -8 -6 -14 -14 -14 -9 0 -15 -14 -18 -39 -2 -22 0 -37 4 -35 5 3 8 -4 8 -15
0 -12 -4 -21 -10 -21 -5 0 -10 5 -10 12 0 8 -3 8 -9 2 -5 -5 -11 -57 -13 -116
-2 -58 -6 -104 -10 -101 -5 2 -8 -2 -8 -11 0 -11 -9 -14 -36 -11 -25 2 -37 -1
-42 -13 -9 -25 -35 -52 -49 -52 -7 0 -13 -4 -13 -8 0 -5 -11 -14 -25 -20 -21
-10 -25 -9 -25 3 0 8 -10 25 -21 36 -17 17 -23 19 -30 8 -7 -12 -9 -11 -9 1 0
13 -1 13 -10 0 -7 -11 -10 -7 -10 18 0 25 4 32 20 32 14 0 18 5 13 16 -4 12
-7 13 -14 3 -6 -11 -9 -10 -15 4 -3 9 -10 17 -16 17 -5 0 -6 -4 -3 -10 3 -5 1
-10 -4 -10 -11 0 -15 18 -11 59 1 18 -2 22 -14 18 -13 -5 -16 1 -16 29 0 25
-3 33 -12 28 -7 -4 -5 2 5 13 23 27 22 45 -4 41 -39 -6 -46 25 -16 71 15 22
27 49 27 59 0 10 7 27 15 38 8 10 15 25 15 32 0 6 8 20 18 31 28 29 60 73 92
124 19 29 35 45 42 41 7 -4 8 -3 4 4 -4 7 -2 12 4 12 7 0 10 7 7 14 -4 9 2 17
13 21 11 3 19 10 17 14 -1 5 10 20 26 34 15 14 27 29 27 33 0 4 11 22 25 40
14 18 25 38 25 44 0 6 5 8 11 5 6 -4 25 9 44 29 32 35 47 40 118 39 9 0 17 4
17 9 0 11 40 0 55 -16z m58 -16 c3 -11 1 -20 -4 -20 -5 0 -9 9 -9 20 0 11 2
20 4 20 2 0 6 -9 9 -20z m-43 -56 c0 -8 -4 -12 -10 -9 -5 3 -10 10 -10 16 0 5
5 9 10 9 6 0 10 -7 10 -16z m-1480 -321 c0 -30 83 -113 112 -113 10 0 35 -7
55 -15 l37 -15 -54 -35 c-30 -19 -62 -35 -71 -35 -19 0 -53 -46 -44 -60 3 -5
-10 -16 -30 -24 -23 -10 -35 -22 -35 -35 0 -11 -8 -24 -17 -30 -14 -7 -18 -24
-18 -73 -1 -35 -4 -69 -9 -76 -4 -6 -7 -56 -7 -111 0 -89 -2 -100 -22 -118
-12 -11 -42 -23 -67 -27 -32 -5 -52 -16 -73 -39 -27 -30 -28 -31 -22 -7 4 14
10 43 15 65 4 22 13 41 19 43 6 2 11 18 11 35 0 34 23 113 46 160 8 16 14 46
14 68 0 28 4 39 15 39 11 0 15 12 15 50 0 43 3 50 20 50 18 0 20 7 20 70 0 56
3 70 15 70 11 0 15 14 16 58 2 95 4 109 18 125 17 22 41 10 41 -20z m1887
-105 c-3 -13 -8 -41 -12 -63 -12 -74 -15 -85 -30 -85 -11 0 -15 -11 -15 -39 0
-44 -21 -64 -82 -75 -21 -4 -38 -10 -38 -14 0 -12 -89 -42 -105 -36 -8 4 -15
1 -15 -5 0 -6 7 -11 15 -11 22 0 18 -28 -5 -35 -11 -3 -20 -11 -20 -16 0 -5
-13 -9 -28 -9 -15 0 -34 -6 -41 -12 -11 -11 -12 -10 -6 1 6 11 3 13 -13 9 -14
-4 -19 -2 -16 7 3 6 -2 18 -11 25 -8 7 -15 21 -15 33 0 17 33 83 50 97 3 3 14
22 25 44 11 21 26 40 32 43 7 3 22 20 34 39 11 19 27 34 35 34 8 0 14 4 14 9
0 5 9 12 19 16 11 3 21 16 23 28 3 20 10 22 88 28 47 3 93 6 104 7 14 2 17 -3
13 -20z m-3015 -44 c17 -29 25 -34 44 -30 19 5 24 2 24 -13 0 -11 6 -21 13
-24 8 -3 5 -12 -10 -28 -21 -22 -24 -22 -39 -7 -13 13 -31 15 -95 11 -69 -5
-79 -4 -79 11 0 9 8 16 19 16 24 0 36 16 19 23 -9 3 -7 7 6 12 11 5 21 3 26
-4 4 -7 18 -11 31 -9 21 3 22 4 6 20 -18 17 -22 40 -10 51 13 14 24 6 45 -29z
m1322 -136 c-9 -155 -15 -188 -30 -188 -21 0 -8 240 14 258 9 6 17 12 19 12 1
0 0 -37 -3 -82z m1803 18 c4 -8 16 -15 25 -17 20 -5 16 -11 -39 -63 -40 -37
-43 -38 -59 -21 -13 13 -15 21 -7 34 6 9 17 15 24 13 8 -2 7 4 -4 21 -14 21
-14 24 1 35 23 15 50 15 59 -2z m-3157 -5 c0 -5 -7 -14 -15 -21 -16 -14 -18
-10 -9 14 6 17 24 22 24 7z m3230 -1 c0 -5 -4 -10 -10 -10 -5 0 -10 5 -10 10
0 6 5 10 10 10 6 0 10 -4 10 -10z m-3283 -36 c-9 -9 -27 6 -27 22 0 13 2 13
16 -1 9 -9 14 -18 11 -21z m150 4 c-3 -8 -6 -5 -6 6 -1 11 2 17 5 13 3 -3 4
-12 1 -19z m-57 -8 c0 -30 -24 -100 -34 -100 -4 0 -3 -6 3 -14 8 -10 8 -16 -3
-25 -21 -18 -49 -2 -43 26 2 13 0 26 -4 29 -18 11 -8 56 17 79 33 31 64 33 64
5z m1615 -40 c-1 -19 -5 -24 -19 -22 -10 2 -27 -6 -38 -17 -25 -27 -42 -28
-28 0 8 15 8 24 0 34 -18 22 -6 30 42 30 39 0 43 -2 43 -25z m1325 -10 c0 -5
-5 -10 -11 -10 -5 0 -7 5 -4 10 3 6 8 10 11 10 2 0 4 -4 4 -10z m-2924 -36
c-5 -17 -3 -23 4 -19 6 3 10 -3 10 -15 0 -28 -24 -21 -28 9 -4 24 3 51 14 51
3 0 3 -12 0 -26z m3021 4 c1 -13 -1 -18 -5 -12 -5 7 -14 6 -30 -2 -16 -8 -19
-13 -10 -16 20 -8 4 -19 -34 -25 -18 -2 -34 -9 -36 -14 -6 -15 -42 -10 -42 6
0 13 24 20 52 16 4 0 5 6 2 14 -4 10 3 16 23 20 21 5 61 22 78 35 1 0 2 -10 2
-22z m-1515 -60 c-8 -8 -9 -4 -5 13 4 13 8 18 11 10 2 -7 -1 -18 -6 -23z
m1348 -28 c0 -5 12 -10 27 -10 25 0 26 0 8 -20 -10 -11 -22 -20 -26 -20 -4 0
-23 -16 -42 -35 -19 -19 -38 -35 -42 -35 -5 0 -16 -7 -26 -16 -11 -10 -25 -13
-39 -9 l-22 7 20 20 c11 11 35 22 53 24 18 2 40 11 50 20 20 18 31 52 18 60
-14 8 -10 24 6 24 8 0 15 -4 15 -10z m-50 -65 c-7 -9 -15 -13 -19 -10 -3 3 1
10 9 15 21 14 24 12 10 -5z m-496 -1 c12 -5 15 -16 11 -43 -2 -20 -7 -62 -10
-93 -5 -41 -11 -58 -21 -58 -10 0 -14 -14 -14 -53 0 -55 -12 -77 -42 -77 -10
0 -18 -7 -18 -15 0 -8 -6 -15 -12 -15 -9 0 -8 -4 2 -11 12 -8 10 -9 -9 -4 -22
7 -23 5 -17 -27 7 -31 6 -32 -9 -14 -8 11 -13 28 -9 38 3 9 1 25 -4 35 -6 10
-12 65 -13 123 -4 101 -3 105 17 108 15 2 24 13 28 33 4 20 13 33 26 36 12 3
19 11 16 19 -3 8 6 14 27 17 18 2 33 5 34 5 1 1 8 -1 17 -4z m-1094 -91 c1
-32 5 -77 9 -101 5 -23 5 -57 1 -75 -5 -17 -8 -25 -9 -16 -1 14 -49 34 -59 24
-2 -2 -6 -31 -9 -64 -10 -110 -33 -57 -32 73 0 101 10 139 44 180 43 52 55 47
55 -21z m1430 30 c0 -16 -4 -22 -12 -17 -7 5 -9 2 -6 -8 7 -17 -26 -144 -43
-164 -6 -8 -15 -11 -20 -8 -5 3 -9 1 -9 -3 0 -5 -22 -19 -50 -32 -27 -13 -50
-30 -50 -38 0 -18 -84 -54 -132 -56 -39 -1 -60 9 -42 21 6 4 11 14 11 23 0 9
9 36 20 60 12 24 23 62 27 83 7 49 24 67 67 69 20 2 33 7 32 14 -2 6 6 15 17
18 11 4 18 10 15 15 -3 5 2 18 12 28 14 15 33 18 91 18 69 0 72 0 72 -23z
m-2592 -34 c-3 -8 -7 -3 -11 10 -4 17 -3 21 5 13 5 -5 8 -16 6 -23z m2672 -3
c0 -3 -4 -8 -10 -11 -5 -3 -10 -1 -10 4 0 6 5 11 10 11 6 0 10 -2 10 -4z
m-2801 -35 c-3 -6 -10 -7 -18 -2 -7 5 -10 14 -6 21 9 14 29 -2 24 -19z m1549
-46 c-3 -27 -1 -32 9 -23 10 8 13 6 13 -6 0 -9 -4 -16 -10 -16 -5 0 -10 -9
-10 -19 0 -10 -7 -21 -15 -25 -8 -3 -15 -13 -15 -21 0 -9 -4 -13 -10 -10 -5 3
-10 -1 -10 -9 0 -9 -8 -16 -17 -16 -14 0 -15 -2 -5 -9 10 -6 8 -10 -10 -16
-12 -4 -30 -6 -40 -6 -9 1 -19 -3 -23 -9 -3 -5 2 -10 13 -10 26 0 36 -25 11
-28 -43 -4 -49 -6 -49 -14 0 -4 -7 -8 -15 -8 -10 0 -15 10 -15 34 0 18 7 39
15 46 8 7 15 23 15 36 0 13 14 38 31 55 20 20 29 38 26 50 -3 11 -2 17 2 15 3
-2 15 2 26 10 13 10 14 14 5 14 -12 0 -11 3 2 16 13 13 20 14 38 4 12 -7 19
-17 16 -26 -3 -8 -1 -14 4 -14 6 0 10 15 11 33 0 17 3 26 6 19 3 -7 3 -28 1
-47z m642 -86 c2 -75 2 -76 -16 -83 -12 -4 -15 -2 -10 9 3 8 0 15 -6 15 -7 0
-6 5 2 15 9 11 10 15 0 15 -8 0 -9 10 -5 31 5 23 4 29 -4 24 -16 -9 -2 47 13
57 15 10 24 -19 26 -83z m-2430 21 c0 -12 -8 -12 -35 0 -18 8 -17 9 8 9 15 1
27 -3 27 -9z m2230 -85 c0 -8 6 -15 13 -15 7 0 8 -3 2 -8 -5 -4 -10 -18 -10
-32 0 -15 -6 -25 -15 -25 -22 0 -24 34 -3 51 17 14 17 15 -4 9 -25 -7 -30 4
-11 23 16 16 28 15 28 -3z m600 10 c0 -2 -9 -9 -20 -15 -16 -9 -18 -8 -14 5 5
13 34 22 34 10z m-430 -97 c0 -17 3 -18 15 -8 12 10 16 9 21 -3 8 -22 1 -58
-11 -55 -6 2 -12 -29 -15 -72 -4 -53 -9 -74 -18 -72 -8 1 -11 -9 -10 -30 3
-27 -1 -33 -17 -33 -17 0 -22 -12 -35 -73 -15 -78 -32 -90 -38 -26 -2 21 -8
44 -13 50 -5 6 -6 45 -3 86 8 89 -1 148 -21 148 -12 0 -15 -18 -15 -90 0 -79
-2 -91 -20 -100 -11 -6 -20 -18 -20 -26 0 -16 -23 -44 -36 -44 -4 0 -15 -7
-25 -16 -15 -14 -17 -13 -18 13 -10 203 -14 239 -27 246 -20 11 -17 35 6 47
16 8 18 8 14 -4 -6 -15 47 -33 65 -22 5 4 13 -4 17 -16 8 -22 8 -22 13 6 4 16
13 31 21 34 12 4 13 2 3 -9 -18 -18 -16 -34 2 -19 8 7 15 20 16 29 0 11 3 9 9
-6 14 -34 49 -28 63 10 3 9 13 17 21 17 8 0 18 9 21 20 4 11 11 18 16 15 5 -4
9 -1 9 4 0 6 -8 11 -17 11 -15 0 -16 2 -3 9 19 13 30 5 30 -21z m-200 -22 c0
-20 -4 -23 -21 -19 -20 6 -20 7 -6 18 9 7 14 15 10 18 -3 4 -1 7 5 7 7 0 12
-11 12 -24z m-2057 -6 c5 -18 14 -20 85 -20 58 0 83 -4 92 -15 8 -9 30 -15 59
-15 57 0 200 -46 223 -71 9 -10 26 -19 38 -19 12 0 28 -7 36 -15 9 -8 31 -15
50 -15 26 0 34 -4 34 -17 0 -17 40 -43 66 -43 6 0 17 -6 23 -14 6 -7 23 -13
37 -13 35 0 43 -11 45 -62 2 -33 -1 -47 -16 -58 -11 -7 -20 -17 -21 -21 0 -4
-4 -34 -8 -67 -6 -45 -10 -55 -17 -40 -6 16 -8 12 -8 -16 -1 -22 -7 -39 -15
-42 -10 -4 -17 -28 -22 -66 -4 -39 -11 -61 -19 -61 -7 0 -16 -19 -20 -46 -5
-36 -11 -47 -32 -55 -28 -10 -53 3 -53 27 0 8 -9 14 -20 14 -11 0 -20 4 -20 9
0 5 -16 15 -35 22 -22 8 -34 19 -32 29 1 9 -4 14 -15 12 -9 -1 -19 2 -23 8 -3
5 -24 10 -47 10 -31 0 -41 4 -45 20 -4 13 -14 20 -32 21 -57 3 -96 10 -105 19
-6 6 -29 10 -53 10 -30 0 -45 5 -49 15 -4 11 -21 15 -56 15 -28 0 -64 6 -81
14 -20 9 -77 16 -154 18 -113 4 -122 3 -127 -15 -2 -11 -10 -17 -17 -15 -20 7
-20 44 1 68 17 20 20 38 20 117 0 88 2 95 21 100 19 5 21 11 17 65 -3 44 -1
61 9 65 9 4 13 25 13 69 0 48 3 64 14 64 8 0 16 7 20 15 4 12 27 15 120 15
105 0 114 -1 119 -20z m-613 6 c0 -11 -19 -15 -25 -6 -3 5 1 10 9 10 9 0 16
-2 16 -4z m3128 -109 c-3 -52 -10 -102 -16 -113 -10 -17 -11 -17 -12 -1 0 9
-4 17 -10 17 -5 0 -10 -13 -10 -30 0 -16 -4 -30 -9 -30 -5 0 -19 -15 -30 -34
-16 -25 -31 -36 -57 -41 -20 -3 -54 -17 -75 -31 -22 -13 -39 -19 -39 -14 0 6
-5 8 -12 4 -7 -5 -8 -3 -3 6 4 7 8 26 7 42 0 16 5 31 11 34 8 3 11 19 9 42 -3
30 2 45 21 68 13 16 27 39 31 51 4 13 12 22 19 20 6 -1 11 3 12 8 0 6 12 24
28 40 15 16 27 33 27 37 0 4 19 9 43 11 23 2 48 4 56 5 11 2 13 -16 9 -91z
m-1240 -49 c-1 -45 -4 -58 -16 -58 -13 0 -13 -3 -4 -12 14 -14 16 -96 3 -117
-7 -11 -12 -4 -20 25 -6 21 -11 48 -11 59 0 33 -12 65 -23 65 -6 0 -7 -29 -3
-85 4 -47 3 -85 -1 -85 -4 0 -16 7 -25 14 -15 11 -18 29 -18 102 l0 89 38 36
c66 64 83 57 80 -33z m215 -43 c4 -69 3 -76 -7 -52 l-12 28 -13 -40 c-12 -41
-42 -71 -72 -71 -9 0 -22 -7 -29 -15 -10 -12 -16 -13 -24 -4 -8 8 -8 13 2 16
6 3 12 20 12 39 0 22 6 37 15 40 10 4 13 13 10 25 -4 12 -1 19 7 19 25 1 58
38 58 66 0 30 31 60 42 41 3 -7 8 -48 11 -92z m946 -215 c-2 -50 -5 -60 -20
-60 -9 0 -24 -3 -33 -6 -9 -3 -16 -1 -16 5 0 6 5 11 11 11 20 0 48 45 49 78 0
17 2 32 6 32 3 0 4 -27 3 -60z m-328 -100 c-6 -30 -14 -77 -20 -105 -5 -27
-12 -70 -15 -95 -3 -25 -5 -46 -5 -47 -1 -2 -7 -3 -15 -3 -18 0 -46 60 -46
100 0 17 -7 39 -16 47 -12 13 -14 27 -9 62 9 57 22 77 82 117 l48 32 3 -27 c2
-15 -2 -51 -7 -81z m-958 68 c-5 -21 -7 -37 -11 -91 -1 -9 -13 -22 -26 -28
-22 -10 -25 -20 -31 -95 -4 -46 -11 -84 -16 -84 -5 0 -9 5 -9 11 0 8 -4 8 -12
2 -7 -6 -28 -13 -45 -16 l-33 -6 -2 62 c-2 90 0 101 22 116 11 7 20 19 20 26
0 8 10 22 23 32 12 10 27 32 32 48 7 19 17 29 27 27 9 -1 19 2 23 8 3 5 15 10
25 10 15 0 18 -5 13 -22z m1163 -34 c8 -56 -2 -135 -18 -146 -7 -4 -23 -5 -35
-1 -17 4 -23 1 -23 -11 0 -9 5 -16 10 -16 6 0 10 -7 10 -16 0 -8 -4 -13 -9
-10 -5 3 -11 -1 -15 -9 -3 -8 -10 -15 -16 -15 -6 0 -8 6 -4 13 4 7 3 9 -2 4
-5 -5 -9 -14 -9 -20 0 -14 -9 -14 -45 -3 -23 6 -25 11 -24 71 1 44 6 69 18 80
9 9 16 22 16 29 0 7 18 31 40 54 29 31 47 42 69 42 28 0 30 -3 37 -46z m-996
-115 c0 -71 -9 -91 -62 -142 -26 -24 -53 -39 -79 -43 -21 -4 -39 -11 -39 -16
0 -5 -10 -6 -21 -3 -15 5 -19 4 -15 -4 4 -6 2 -11 -4 -11 -22 0 17 105 51 136
10 9 19 23 19 31 0 7 5 13 10 13 6 0 15 11 22 25 6 13 26 31 44 40 19 9 34 20
34 25 0 6 9 10 20 10 18 0 20 -7 20 -61z m-1582 35 c25 -7 29 -26 8 -43 -11
-9 -17 -8 -29 4 -9 8 -20 15 -26 15 -15 0 -14 17 2 23 17 7 19 7 45 1z m245
-115 c34 -10 47 -18 47 -31 0 -15 9 -18 49 -18 27 0 62 -6 78 -14 70 -34 192
-63 308 -72 39 -3 71 -6 71 -7 1 -1 5 -12 9 -25 l7 -23 -122 5 c-91 4 -127 9
-140 21 -10 10 -36 15 -71 15 -30 0 -63 6 -74 14 -11 7 -44 19 -73 25 -30 6
-60 18 -68 26 -9 8 -24 15 -34 15 -10 0 -21 4 -25 10 -3 5 -13 6 -22 3 -11 -4
-14 -2 -9 5 4 7 -4 14 -21 18 -49 11 -83 28 -83 43 0 11 13 13 63 8 34 -3 84
-12 110 -18z m2167 -69 c0 -5 -2 -10 -4 -10 -3 0 -8 5 -11 10 -3 6 -1 10 4 10
6 0 11 -4 11 -10z m-1560 -102 c0 -18 -2 -20 -9 -8 -6 8 -7 18 -5 22 9 14 14
9 14 -14z m-357 -18 c27 0 46 -4 42 -9 -5 -10 41 -19 120 -23 l40 -3 -30 -32
-31 -32 -70 12 c-39 7 -79 19 -89 27 -11 9 -16 10 -11 3 4 -7 2 -13 -3 -13 -6
0 -11 7 -11 15 0 8 -9 15 -20 15 -11 0 -20 4 -20 9 0 5 -3 17 -7 27 -5 14 -2
16 18 11 13 -4 46 -7 72 -7z"/>
<path d="M5321 3834 c-24 -14 -46 -23 -48 -20 -3 3 -16 -7 -29 -22 -73 -83
-84 -110 -84 -217 0 -73 3 -94 15 -99 11 -4 15 -22 15 -70 0 -63 -1 -65 -27
-68 -25 -3 -28 -7 -29 -39 -1 -47 -10 -59 -40 -59 -15 0 -24 -6 -24 -15 0 -11
12 -15 44 -15 34 0 47 5 58 22 12 17 25 23 57 23 22 0 41 3 41 7 0 5 6 8 13 8
8 0 24 11 37 25 l23 24 -27 12 c-29 14 -33 31 -11 49 8 7 15 23 15 35 0 16 12
31 36 45 33 21 35 25 30 63 -3 22 -7 42 -9 43 -2 2 -17 0 -34 -5 -36 -10 -63
2 -63 29 0 25 45 38 72 21 18 -11 19 -10 13 11 -4 13 -10 29 -12 36 -3 6 2 12
11 12 14 0 15 4 5 21 -8 17 -8 23 2 29 14 10 49 -9 49 -27 0 -6 12 -13 27 -15
23 -3 27 -8 30 -47 3 -25 9 -53 14 -63 5 -9 7 -37 4 -60 l-6 -43 17 35 c14 27
17 59 16 145 -2 98 -4 111 -22 124 -11 7 -20 18 -20 23 0 6 -14 23 -31 39 -38
36 -70 36 -128 3z"/>
<path d="M3926 3547 c-19 -14 -12 -47 9 -47 7 0 16 -13 20 -30 4 -16 10 -30
15 -30 5 0 16 -3 25 -6 13 -6 16 -1 13 22 -2 20 -12 33 -31 42 -20 10 -26 19
-22 32 8 24 -7 33 -29 17z"/>
<path d="M2102 3353 c3 -51 28 -75 28 -26 0 39 -10 73 -22 73 -5 0 -8 -21 -6
-47z"/>
<path d="M4005 3351 c-28 -4 -41 -12 -43 -25 -4 -17 1 -18 60 -11 34 4 65 9
67 11 5 5 -31 34 -39 32 -3 0 -23 -4 -45 -7z"/>
<path d="M2910 3275 c-11 -13 -9 -20 11 -42 34 -36 76 -50 137 -45 43 3 52 7
52 23 0 16 -7 19 -42 19 -69 1 -144 24 -140 43 4 21 -2 21 -18 2z"/>
<path d="M2799 3280 c0 -3 -2 -13 -4 -22 -2 -9 3 -19 11 -22 8 -3 14 0 14 7 0
12 -19 46 -21 37z"/>
<path d="M3170 3204 c0 -32 3 -55 6 -51 11 11 15 95 5 102 -7 4 -11 -13 -11
-51z"/>
<path d="M2842 3205 c-11 -23 -10 -25 13 -25 13 0 36 -5 50 -12 39 -18 42 -1
4 32 -42 36 -53 37 -67 5z"/>
<path d="M2790 3190 c0 -5 5 -10 10 -10 6 0 10 5 10 10 0 6 -4 10 -10 10 -5 0
-10 -4 -10 -10z"/>
<path d="M2467 3131 c2 -9 12 -22 22 -28 17 -11 17 -9 7 13 -13 28 -36 40 -29
15z"/>
<path d="M2662 3119 c2 -7 10 -15 17 -17 8 -3 12 1 9 9 -2 7 -10 15 -17 17 -8
3 -12 -1 -9 -9z"/>
<path d="M3070 3107 c0 -4 5 -5 10 -2 6 3 10 1 10 -5 0 -6 -13 -15 -28 -21
-15 -5 -36 -23 -45 -38 -21 -36 -21 -41 -2 -41 9 0 15 -9 15 -22 0 -13 12 -34
25 -47 14 -13 25 -27 25 -32 0 -5 7 -9 15 -9 9 0 19 -8 22 -17 4 -10 17 -32
28 -49 l22 -32 11 30 c11 29 9 33 -37 79 -27 27 -57 49 -67 49 -9 0 -15 3 -11
6 3 3 1 20 -5 36 -9 24 -8 34 3 42 8 7 29 28 48 48 l33 36 -36 -1 c-20 -1 -36
-5 -36 -10z m-20 -57 c0 -5 -5 -10 -11 -10 -5 0 -7 5 -4 10 3 6 8 10 11 10 2
0 4 -4 4 -10z"/>
<path d="M2275 3099 c-4 -6 -5 -13 -2 -16 7 -7 27 6 27 18 0 12 -17 12 -25 -2z"/>
<path d="M3235 2890 c3 -5 15 -10 27 -10 17 0 18 -2 8 -15 -7 -9 -10 -19 -6
-22 4 -4 11 -1 15 6 6 9 11 10 15 2 4 -6 16 -11 27 -11 11 0 18 4 14 9 -3 5 0
13 6 16 16 11 -38 35 -78 35 -20 0 -32 -4 -28 -10z"/>
<path d="M2430 2800 c-32 -10 167 -10 265 0 56 5 39 7 -85 7 -85 1 -166 -3
-180 -7z"/>
<path d="M2478 2773 c7 -3 16 -2 19 1 4 3 -2 6 -13 5 -11 0 -14 -3 -6 -6z"/>
<path d="M3155 2770 c-3 -5 -1 -10 4 -10 6 0 11 5 11 10 0 6 -2 10 -4 10 -3 0
-8 -4 -11 -10z"/>
<path d="M2993 2763 c9 -2 25 -2 35 0 9 3 1 5 -18 5 -19 0 -27 -2 -17 -5z"/>
<path d="M2368 2722 c-7 -11 -30 -22 -50 -26 -22 -4 -38 -13 -38 -21 0 -7 -6
-16 -12 -18 -7 -3 2 -6 20 -6 22 -1 32 4 32 14 0 18 26 20 33 3 4 -10 6 -10 6
0 1 6 13 12 27 12 22 0 24 2 14 15 -7 8 -10 22 -6 30 8 21 -10 19 -26 -3z"/>
<path d="M2730 2690 c0 -5 11 -9 25 -8 14 1 25 6 25 10 0 4 -11 8 -25 8 -14 0
-25 -4 -25 -10z"/>
<path d="M2850 2690 c-12 -8 -11 -10 8 -10 12 0 22 5 22 10 0 13 -11 13 -30 0z"/>
<path d="M3280 2664 c0 -17 22 -14 28 4 2 7 -3 12 -12 12 -9 0 -16 -7 -16 -16z"/>
<path d="M2890 2655 c0 -16 42 -20 99 -9 53 11 34 24 -34 24 -51 0 -65 -3 -65
-15z"/>
<path d="M3057 2625 c-4 -8 -3 -16 1 -18 12 -6 73 19 66 26 -13 13 -62 7 -67
-8z"/>
<path d="M3391 2621 c-8 -5 -9 -11 -3 -15 5 -3 12 1 16 9 6 17 6 18 -13 6z"/>
<path d="M3794 2575 l-30 -34 -126 -2 c-116 -2 -127 -4 -132 -22 -3 -13 1 -21
15 -24 10 -3 19 -14 19 -25 0 -14 5 -18 18 -14 9 3 31 8 47 11 17 4 39 10 50
15 11 4 39 13 63 21 23 7 47 18 53 26 6 7 19 13 29 13 10 0 20 9 23 20 3 11
12 20 21 20 10 0 13 6 10 15 -9 23 -26 17 -60 -20z"/>
<path d="M3430 2593 c8 -4 20 -12 25 -18 6 -7 19 -15 29 -19 15 -5 13 -1 -8
19 -15 14 -35 25 -44 24 -14 0 -14 -2 -2 -6z"/>
<path d="M2938 2583 c12 -2 32 -2 45 0 12 2 2 4 -23 4 -25 0 -35 -2 -22 -4z"/>
<path d="M2774 2549 c-9 -16 20 -41 39 -33 21 8 22 30 1 38 -23 9 -32 7 -40
-5z"/>
<path d="M3055 2550 c-4 -6 7 -10 27 -9 27 0 30 2 13 9 -27 12 -33 12 -40 0z"/>
<path d="M3275 2551 c-17 -7 -13 -10 23 -20 42 -12 62 -9 62 10 0 5 -11 7 -25
3 -15 -4 -25 -2 -25 5 0 13 -7 13 -35 2z"/>
<path d="M3130 2541 c0 -15 48 -41 75 -41 14 0 25 5 25 10 0 6 -11 10 -24 10
-13 0 -26 7 -30 15 -6 16 -46 21 -46 6z"/>
<path d="M2847 2520 c4 -16 13 -20 47 -19 l41 2 -37 10 c-21 6 -38 14 -38 19
0 4 -4 8 -9 8 -5 0 -7 -9 -4 -20z"/>
<path d="M2963 2493 c9 -2 25 -2 35 0 9 3 1 5 -18 5 -19 0 -27 -2 -17 -5z"/>
<path d="M3445 2470 c-3 -5 -2 -10 4 -10 5 0 13 5 16 10 3 6 2 10 -4 10 -5 0
-13 -4 -16 -10z"/>
<path d="M1936 2459 c4 -7 1 -10 -7 -7 -15 5 -39 -14 -39 -32 0 -6 -12 -22
-26 -35 -15 -14 -23 -25 -19 -25 4 0 2 -7 -5 -15 -7 -8 -9 -15 -4 -15 5 0 18
14 29 30 11 16 26 30 33 30 6 0 12 6 12 13 0 8 9 22 20 32 22 20 26 35 9 35
-5 0 -7 -5 -3 -11z"/>
<path d="M3314 2455 c25 -19 36 -19 36 0 0 10 -10 15 -27 15 -27 -1 -27 -1 -9
-15z"/>
<path d="M3505 2450 c3 -5 10 -10 16 -10 5 0 9 5 9 10 0 6 -7 10 -16 10 -8 0
-12 -4 -9 -10z"/>
<path d="M3120 2440 c0 -5 17 -10 38 -9 30 0 33 2 17 9 -28 12 -55 12 -55 0z"/>
<path d="M3415 2430 c-14 -6 -16 -9 -5 -10 41 -6 60 -4 62 5 4 13 -32 16 -57
5z"/>
<path d="M3210 2410 c0 -5 5 -10 11 -10 5 0 7 5 4 10 -3 6 -8 10 -11 10 -2 0
-4 -4 -4 -10z"/>
<path d="M3250 2396 c0 -2 14 -6 30 -8 17 -3 30 -1 30 4 0 4 -13 8 -30 8 -16
0 -30 -2 -30 -4z"/>
<path d="M3334 2373 c2 -10 10 -19 19 -21 21 -4 22 5 3 24 -19 19 -25 18 -22
-3z"/>
<path d="M3526 2315 c-4 -13 -2 -14 14 -5 23 13 26 20 6 20 -8 0 -16 -7 -20
-15z"/>
<path d="M1800 2305 c-7 -8 -8 -15 -2 -15 5 0 15 7 22 15 7 8 8 15 2 15 -5 0
-15 -7 -22 -15z"/>
<path d="M1760 2258 c0 -6 -7 -19 -16 -29 -9 -10 -11 -19 -5 -23 5 -3 17 8 25
25 19 38 19 39 6 39 -5 0 -10 -5 -10 -12z"/>
<path d="M1666 2124 c-5 -12 -2 -15 10 -10 8 3 18 6 20 6 3 0 2 5 -1 10 -9 15
-22 12 -29 -6z"/>
<path d="M1600 2065 c0 -14 3 -25 8 -25 4 0 7 11 7 25 0 14 -3 25 -7 25 -5 0
-8 -11 -8 -25z"/>
<path d="M1709 2021 c-16 -12 -50 -21 -97 -26 -98 -10 -102 -25 -6 -25 76 0
153 23 170 52 4 7 2 8 -5 4 -6 -4 -18 -3 -25 3 -10 8 -19 6 -37 -8z"/>
<path d="M1596 2021 c-4 -7 -5 -15 -2 -18 9 -9 19 4 14 18 -4 11 -6 11 -12 0z"/>
<path d="M1430 1920 c0 -27 -5 -43 -15 -46 -10 -4 -15 -20 -15 -46 0 -33 3
-39 16 -34 9 3 42 6 75 6 33 0 59 4 59 10 0 6 -28 10 -64 10 -36 0 -67 4 -70
8 -3 5 4 23 15 40 20 34 26 92 9 92 -5 0 -10 -18 -10 -40z"/>
<path d="M1495 1950 c3 -5 8 -10 11 -10 2 0 4 5 4 10 0 6 -5 10 -11 10 -5 0
-7 -4 -4 -10z"/>
<path d="M1350 1780 c0 -5 10 -10 23 -10 18 0 19 2 7 10 -19 13 -30 13 -30 0z"/>
<path d="M1296 1719 c-10 -54 -7 -101 7 -97 7 3 13 28 15 66 3 65 -11 85 -22
31z"/>
<path d="M1445 1650 c-4 -6 11 -10 37 -11 24 -1 35 -3 26 -6 -35 -9 -17 -22
40 -28 31 -3 66 -8 78 -10 17 -4 54 24 54 40 0 3 -33 5 -72 6 -52 1 -66 3 -48
9 18 6 7 8 -42 9 -37 1 -70 -3 -73 -9z"/>
<path d="M1262 1603 c-13 -26 -22 -102 -12 -108 11 -7 18 15 26 75 7 51 2 63
-14 33z"/>
<path d="M1503 1403 c15 -2 37 -2 50 0 12 2 0 4 -28 4 -27 0 -38 -2 -22 -4z"/>
<path d="M1548 1383 c7 -3 16 -2 19 1 4 3 -2 6 -13 5 -11 0 -14 -3 -6 -6z"/>
<path d="M1460 1076 c0 -71 14 -80 17 -10 1 29 -3 56 -8 59 -5 4 -9 -17 -9
-49z"/>
<path d="M1471 946 c-1 -38 2 -57 9 -50 5 5 6 29 1 59 l-9 50 -1 -59z"/>
<path d="M1501 845 c0 -35 1 -37 10 -17 6 15 5 30 -1 40 -7 13 -9 8 -9 -23z"/>
<path d="M1651 404 c0 -11 3 -14 6 -6 3 7 2 16 -1 19 -3 4 -6 -2 -5 -13z"/>
<path d="M1765 269 c-17 -6 -16 -8 7 -8 15 -1 29 3 32 7 6 11 -14 11 -39 1z"/>
<path d="M5060 4143 c0 -18 20 -56 20 -39 0 5 7 3 16 -5 13 -11 14 -9 8 17 -9
39 -13 44 -30 44 -8 0 -14 -8 -14 -17z"/>
<path d="M5250 4064 c0 -8 5 -12 10 -9 6 3 10 10 10 16 0 5 -4 9 -10 9 -5 0
-10 -7 -10 -16z"/>
<path d="M5120 4060 c0 -5 7 -10 15 -10 8 0 15 5 15 10 0 6 -7 10 -15 10 -8 0
-15 -4 -15 -10z"/>
<path d="M5394 4339 c-10 -17 13 -36 27 -22 12 12 4 33 -11 33 -5 0 -12 -5
-16 -11z"/>
<path d="M5460 4228 c0 -22 17 -41 29 -34 8 5 8 13 1 27 -12 21 -30 26 -30 7z"/>
<path d="M5525 3990 c3 -5 11 -10 16 -10 6 0 7 5 4 10 -3 6 -11 10 -16 10 -6
0 -7 -4 -4 -10z"/>
<path d="M6050 3974 c0 -8 5 -12 10 -9 6 4 8 11 5 16 -9 14 -15 11 -15 -7z"/>
<path d="M5738 3234 c-5 -4 -8 -16 -8 -28 0 -14 3 -17 11 -9 6 6 9 19 7 28 -1
9 -6 13 -10 9z"/>
<path d="M5460 2485 c-7 -8 -24 -21 -38 -28 -14 -6 -27 -18 -30 -24 -5 -18 27
-16 34 2 3 8 14 17 25 20 10 4 19 12 19 20 0 7 6 16 13 18 7 4 8 6 1 6 -6 1
-17 -6 -24 -14z"/>
<path d="M5380 2369 c0 -5 5 -7 10 -4 6 3 10 8 10 11 0 2 -4 4 -10 4 -5 0 -10
-5 -10 -11z"/>
<path d="M4450 1720 c0 -5 5 -10 11 -10 5 0 7 5 4 10 -3 6 -8 10 -11 10 -2 0
-4 -4 -4 -10z"/>
<path d="M4760 1210 c-9 -6 -10 -10 -3 -10 6 0 15 5 18 10 8 12 4 12 -15 0z"/>
<path d="M2700 959 c0 -5 5 -7 10 -4 6 3 10 8 10 11 0 2 -4 4 -10 4 -5 0 -10
-5 -10 -11z"/>
<path d="M3480 490 c0 -5 7 -10 15 -10 8 0 15 5 15 10 0 6 -7 10 -15 10 -8 0
-15 -4 -15 -10z"/>
<path d="M3457 463 c-4 -3 -7 -11 -7 -17 0 -6 5 -5 12 2 6 6 9 14 7 17 -3 3
-9 2 -12 -2z"/>
<path d="M7590 2890 c-147 -15 -165 -35 -152 -170 6 -57 15 -98 24 -107 23
-22 86 -33 156 -26 l62 6 0 153 c0 85 -3 153 -7 153 -5 -1 -42 -5 -83 -9z"/>
<path d="M0 1255 l0 -585 53 -2 c104 -4 222 4 242 17 33 21 70 59 98 100 l27
40 0 212 c0 116 4 223 10 237 5 14 7 90 3 181 -5 136 -9 161 -27 187 -30 44
-65 67 -106 70 -19 1 -53 12 -75 24 -22 13 -62 28 -90 35 -27 6 -59 20 -71 30
-11 11 -24 16 -27 12 -4 -3 -7 1 -7 10 0 10 -7 17 -15 17 -13 0 -15 -72 -15
-585z"/>
<path d="M4242 20 c0 -14 2 -19 5 -12 2 6 2 18 0 25 -3 6 -5 1 -5 -13z"/>
</g>
</svg>
