<?xml version="1.0" standalone="no"?>
<!DOCTYPE svg PUBLIC "-//W3C//DTD SVG 20010904//EN"
 "http://www.w3.org/TR/2001/REC-SVG-20010904/DTD/svg10.dtd">
<svg version="1.0" xmlns="http://www.w3.org/2000/svg"
 width="896.000000pt" height="1152.000000pt" viewBox="0 0 896.000000 1152.000000"
 preserveAspectRatio="xMidYMid meet">

<g transform="translate(0.000000,1152.000000) scale(0.100000,-0.100000)"
fill="#000000" stroke="none">
<path d="M4505 11089 c-22 -5 -67 -19 -100 -31 -54 -19 -63 -20 -110 -7 -83
22 -255 15 -350 -14 -188 -59 -236 -81 -395 -185 -232 -151 -377 -291 -519
-499 -90 -132 -208 -424 -270 -666 -11 -43 -22 -81 -25 -86 -3 -4 -12 -48 -20
-97 -9 -49 -22 -129 -31 -179 -16 -92 -18 -136 -31 -529 -4 -144 -3 -227 3
-223 5 3 10 91 12 199 3 241 8 376 15 386 3 5 14 73 26 153 62 426 183 790
343 1029 141 210 310 372 542 517 118 74 329 155 468 179 93 16 137 14 233
-11 49 -13 56 -12 140 17 81 28 100 31 209 30 80 0 155 -7 225 -21 130 -27
352 -100 343 -114 -3 -6 -1 -7 5 -3 18 11 83 -26 77 -43 -5 -13 -4 -13 6 -4
15 15 94 -22 83 -39 -4 -7 -3 -8 4 -4 14 8 55 -12 48 -23 -3 -4 1 -17 10 -27
14 -18 15 -18 4 4 -14 28 -2 28 39 -2 30 -22 31 -25 14 -35 -10 -6 -13 -11 -8
-11 6 0 16 5 21 10 7 7 17 5 30 -6 13 -11 14 -14 3 -11 -9 3 -16 -1 -16 -8 0
-10 5 -11 18 -5 20 11 73 -25 63 -42 -4 -7 -2 -8 4 -4 18 11 37 -4 21 -16 -11
-7 -10 -8 2 -6 15 3 59 -34 67 -55 1 -4 5 -7 10 -8 4 0 16 -8 27 -16 11 -9
-18 22 -65 68 -154 152 -366 283 -570 352 -107 36 -184 57 -212 57 -12 0 -50
9 -82 20 -65 22 -234 26 -311 9z"/>
<path d="M4565 10989 c-83 -19 -186 -107 -214 -181 -16 -43 7 -35 67 21 53 50
112 79 133 65 7 -4 9 -3 5 4 -9 14 40 24 122 24 98 -1 251 -63 355 -144 53
-42 46 -18 -9 31 -83 73 -261 151 -346 151 -30 0 -39 3 -28 9 8 6 18 7 22 5 4
-3 14 -2 20 2 9 6 5 10 -12 15 -34 9 -67 9 -115 -2z"/>
<path d="M3954 10926 c-65 -12 -157 -53 -208 -91 -27 -20 -13 -30 16 -12 12 8
70 30 128 48 168 54 266 43 344 -40 32 -33 46 -39 46 -18 0 20 -66 83 -107
102 -48 23 -133 27 -219 11z"/>
<path d="M5380 10820 c-8 -5 -10 -10 -5 -10 6 0 17 5 25 10 8 5 11 10 5 10 -5
0 -17 -5 -25 -10z"/>
<path d="M4622 10784 c-13 -9 -22 -20 -20 -25 2 -6 40 -25 85 -43 72 -30 138
-67 153 -87 3 -3 15 -11 28 -18 12 -7 20 -17 16 -23 -4 -6 -3 -8 3 -5 6 4 23
-5 39 -19 16 -14 39 -32 51 -41 13 -8 20 -19 17 -24 -3 -5 -1 -8 4 -7 15 4
176 -161 211 -216 17 -27 27 -55 24 -64 -4 -9 -2 -13 5 -8 6 3 14 -3 18 -16 4
-13 10 -25 14 -28 30 -22 189 -330 193 -372 1 -10 4 -18 8 -18 4 0 13 -17 20
-37 6 -21 22 -58 34 -83 20 -39 75 -191 75 -206 0 -3 -6 -2 -12 1 -7 4 -5 0 4
-7 31 -26 97 -310 84 -362 -4 -15 0 -28 9 -36 18 -15 20 -63 3 -58 -7 3 -18
19 -24 36 -5 18 -14 29 -18 25 -4 -4 -4 1 0 11 5 12 4 17 -3 13 -12 -8 -48 67
-46 95 1 11 -1 17 -4 14 -10 -9 -55 76 -49 91 3 8 2 12 -3 8 -5 -3 -13 9 -17
27 -4 18 -9 27 -12 19 -2 -7 -19 13 -38 47 -18 32 -40 65 -49 72 -13 11 -13 8
0 -31 9 -24 25 -59 35 -77 11 -18 20 -45 20 -60 0 -16 3 -22 8 -15 7 11 79
-123 74 -139 -1 -5 3 -8 9 -8 6 0 8 -7 5 -16 -3 -8 -2 -13 2 -10 8 5 55 -79
66 -117 3 -10 10 -16 15 -13 5 3 7 -4 5 -16 -2 -13 -2 -17 2 -11 3 8 19 -4 40
-33 19 -25 32 -50 28 -56 -4 -6 -3 -8 3 -5 15 9 37 -19 27 -34 -5 -9 -2 -10
12 -5 14 5 16 4 7 -5 -15 -15 -36 -1 -28 18 4 13 3 13 -9 4 -21 -18 -104 69
-157 165 -51 92 -51 92 -106 175 -24 35 -43 70 -43 77 0 8 -5 10 -12 6 -8 -5
-9 -2 -5 10 4 9 3 15 -2 12 -5 -3 -32 35 -61 84 -48 82 -70 112 -70 95 0 -10
32 -68 60 -110 15 -22 28 -43 29 -48 0 -4 13 -25 27 -47 14 -21 24 -45 22 -52
-5 -14 -81 99 -81 120 0 6 -2 10 -5 7 -3 -2 -12 6 -22 18 -23 29 -131 209
-133 222 -1 6 -4 12 -8 15 -3 3 -13 23 -23 45 -10 22 -23 46 -29 54 -6 7 -12
18 -13 25 -1 6 -6 22 -11 35 -10 24 -10 24 -15 3 -4 -12 -2 -20 3 -16 5 3 6
-2 3 -11 -4 -9 2 -25 11 -35 10 -11 15 -20 11 -20 -4 0 1 -12 12 -27 11 -16
36 -63 57 -105 21 -43 41 -78 44 -78 10 0 45 -73 42 -85 -1 -5 1 -7 5 -3 6 7
102 -130 121 -172 4 -8 9 -17 13 -20 3 -3 23 -30 45 -60 21 -30 52 -71 69 -90
17 -19 22 -28 11 -20 -11 8 -23 20 -27 25 -4 6 -8 6 -8 2 0 -4 -15 3 -32 16
-18 14 -51 34 -73 45 -43 21 -92 92 -79 114 4 6 3 8 -3 5 -5 -3 -17 10 -26 29
-20 41 -21 48 -5 38 7 -4 8 -3 4 5 -4 6 -11 9 -16 6 -11 -7 -22 24 -13 37 3 6
1 8 -4 5 -12 -8 -26 20 -17 34 3 5 1 9 -4 9 -5 0 -37 66 -71 148 -35 81 -69
161 -77 179 -8 18 -22 62 -31 97 -10 42 -20 63 -27 59 -6 -4 -5 1 3 11 12 15
12 17 0 14 -9 -2 -13 4 -11 16 2 10 -1 16 -6 12 -5 -3 -19 25 -32 62 -38 111
-146 350 -175 388 -43 57 -41 31 3 -43 49 -81 146 -319 138 -340 -4 -9 -2 -11
6 -7 8 5 9 2 5 -9 -3 -10 -2 -17 2 -17 5 0 30 -62 55 -137 110 -337 183 -642
150 -629 -7 3 -31 10 -53 16 -35 9 -42 16 -51 49 -5 21 -28 87 -50 146 -22 59
-37 112 -33 118 3 5 2 7 -4 4 -5 -3 -20 24 -32 61 -13 37 -29 80 -36 95 -12
28 -12 28 -11 -16 0 -25 3 -44 6 -42 10 6 53 -133 45 -146 -5 -7 -4 -10 3 -5
16 10 54 -98 43 -125 -5 -14 -10 -18 -15 -11 -3 6 -2 13 4 17 5 3 10 11 10 17
0 7 -5 6 -14 -1 -10 -9 -16 -9 -21 -1 -4 6 -4 14 -1 17 3 4 6 0 6 -8 1 -11 3
-10 10 2 12 20 -6 80 -23 76 -14 -3 -59 90 -61 125 0 14 -4 24 -7 22 -7 -4
-69 211 -69 237 0 30 -70 298 -99 379 -37 106 -90 220 -101 220 -5 0 6 -33 25
-74 33 -72 93 -262 114 -361 41 -194 61 -399 61 -637 0 -115 -2 -128 -17 -128
-16 0 -18 9 -15 82 4 119 -32 450 -57 523 -11 33 -21 68 -21 78 0 9 -4 17 -9
17 -4 0 -2 -28 6 -62 20 -87 12 -533 -11 -595 -8 -24 -12 -43 -9 -43 3 0 0 -8
-8 -17 -17 -22 -39 -60 -39 -69 0 -3 11 -4 25 -2 28 6 30 1 14 -39 -6 -15 -12
-41 -14 -57 -6 -42 -26 -87 -36 -80 -5 3 -6 -2 -2 -11 3 -10 2 -20 -3 -24 -5
-3 -17 -22 -28 -42 -10 -20 -32 -53 -48 -73 -29 -35 -31 -36 -47 -19 -16 17
-16 21 1 66 43 113 33 354 -28 700 -20 111 -37 231 -39 267 -1 36 -9 88 -18
115 -9 28 -25 88 -35 135 -16 68 -20 77 -21 46 -1 -21 7 -86 16 -145 25 -157
25 -706 0 -841 -23 -126 -62 -249 -105 -335 -21 -43 -28 -64 -18 -56 37 31 90
145 116 249 6 23 15 40 20 37 6 -4 10 -1 10 4 0 6 -5 11 -11 11 -6 0 -2 16 10
36 12 19 17 32 11 29 -5 -3 -10 0 -10 9 0 8 6 17 13 19 6 3 7 6 2 6 -6 1 -9
18 -7 41 2 22 8 38 12 35 5 -3 12 0 16 6 4 7 3 9 -3 6 -7 -4 -11 20 -12 67 -1
60 2 75 16 87 15 11 16 11 6 -1 -7 -8 -13 -25 -13 -38 0 -16 4 -21 13 -16 10
6 10 4 0 -7 -7 -7 -13 -22 -12 -34 0 -19 0 -19 9 1 5 12 13 25 19 29 8 4 8 12
0 26 -7 14 -7 24 0 33 6 7 7 17 2 22 -5 5 -5 18 -1 29 l9 20 0 -20 c1 -11 4
-31 8 -44 4 -17 3 -22 -5 -17 -17 10 -15 -3 3 -20 9 -9 15 -35 16 -62 0 -26 2
-56 5 -67 9 -47 5 -284 -6 -330 -18 -71 -57 -151 -85 -173 -52 -41 13 -33 81
11 68 42 153 161 195 270 12 33 26 54 32 50 7 -4 8 1 3 13 -4 10 -3 15 1 10 4
-4 13 9 20 31 19 64 14 11 -7 -73 -25 -97 -79 -206 -128 -258 -25 -26 -30 -35
-15 -27 34 18 92 91 122 157 28 59 71 213 71 253 0 12 6 21 15 21 20 0 19 -11
-5 -100 -39 -143 -77 -225 -134 -289 l-21 -25 30 21 c17 12 45 46 63 76 31 51
90 209 106 283 7 30 10 32 63 37 89 9 109 2 123 -47 6 -22 14 -95 17 -162 l6
-121 -62 -7 c-116 -13 -218 -60 -218 -100 0 -11 4 -13 12 -6 7 5 15 6 19 2 4
-4 6 -1 4 7 -5 25 133 81 201 81 24 0 29 -3 25 -17 -5 -15 -3 -15 10 1 9 11
16 27 16 37 0 9 9 45 21 80 11 35 19 79 17 97 -2 17 -1 32 4 32 13 0 23 -71
23 -164 l0 -89 -63 -13 c-35 -7 -83 -24 -107 -38 -63 -38 -140 -127 -165 -192
-23 -63 -18 -82 11 -44 10 14 31 41 46 61 48 63 138 113 225 125 74 11 210
-49 279 -123 90 -97 120 -183 93 -272 -7 -25 -12 -47 -10 -49 9 -8 49 47 76
105 30 62 53 84 123 116 41 18 33 27 -22 20 -60 -7 -70 -1 -120 66 l-41 54 23
15 c28 19 47 42 47 58 0 9 -16 11 -59 7 -50 -5 -65 -2 -96 17 -27 17 -33 25
-25 35 15 19 -4 29 -30 15 -14 -8 -34 -6 -79 7 l-59 18 15 28 c23 45 43 155
43 240 0 42 1 77 3 77 2 0 23 -7 48 -16 42 -15 47 -21 94 -117 28 -55 69 -129
93 -165 23 -36 42 -68 42 -72 0 -4 8 -14 18 -21 16 -13 16 -12 3 6 -8 11 4 0
26 -25 22 -25 38 -51 35 -58 -2 -8 4 -16 17 -19 11 -3 22 -9 22 -14 1 -5 3
-18 4 -29 1 -11 3 -25 4 -30 0 -6 7 -9 13 -8 21 5 23 -203 4 -304 -20 -106
-20 -117 -1 -92 13 18 14 16 15 -24 0 -24 -7 -57 -16 -73 -8 -17 -13 -33 -10
-36 3 -3 12 10 20 28 l14 34 1 -71 c1 -68 0 -72 -23 -78 -14 -3 -32 -13 -40
-22 -9 -9 -16 -11 -16 -4 0 6 -5 8 -10 5 -6 -4 -8 -10 -5 -15 3 -4 -2 -13 -10
-20 -8 -7 -15 -17 -15 -22 0 -5 -11 -34 -25 -64 -14 -30 -25 -57 -25 -59 0
-15 -123 -250 -158 -302 -108 -159 -374 -396 -662 -590 -203 -136 -255 -137
-467 -6 -34 21 -99 60 -145 87 -318 189 -505 352 -585 510 -39 76 -136 353
-239 683 -21 67 -41 120 -45 117 -4 -2 -19 12 -33 31 -15 19 -40 42 -55 50
-16 8 -31 21 -34 28 -4 12 3 14 31 10 41 -5 65 -29 58 -55 -2 -10 0 -18 5 -18
5 0 9 -7 9 -15 0 -8 5 -15 11 -15 6 0 9 7 5 15 -7 19 3 19 28 0 11 -8 27 -15
37 -15 22 0 79 -59 79 -82 0 -11 7 -18 19 -18 11 0 22 -9 26 -19 7 -22 35 -36
35 -18 0 7 -5 18 -10 23 -6 6 -15 39 -21 73 -21 130 53 268 176 333 54 29 167
36 218 14 41 -17 157 -104 157 -117 0 -5 5 -9 11 -9 6 0 9 6 6 14 -3 8 -1 17
6 19 7 2 -22 37 -63 78 -83 82 -138 109 -222 109 -59 0 -64 19 -5 21 102 4
155 -14 233 -77 29 -24 42 -30 38 -19 -6 14 -4 16 7 11 8 -4 -2 8 -22 26 -49
44 -139 77 -214 79 -75 3 -85 6 -85 31 0 12 -4 16 -11 12 -9 -5 -10 1 -5 20 3
14 2 26 -3 26 -5 0 -9 37 -9 82 -1 50 2 77 8 69 5 -10 8 -5 7 15 -1 16 -6 32
-12 36 -6 5 -5 8 3 8 7 0 10 4 7 10 -3 5 7 12 22 16 15 3 35 8 44 10 13 4 18
-6 23 -43 9 -70 38 -153 53 -153 7 0 13 -5 13 -11 0 -5 -5 -7 -11 -3 -8 5 -8
1 0 -14 6 -12 17 -24 24 -28 8 -5 7 -2 -2 9 -8 10 -11 20 -8 23 3 3 21 -18 40
-48 31 -49 85 -108 62 -68 -5 8 -19 29 -31 45 -12 17 -22 32 -22 35 0 15 -26
59 -33 54 -5 -3 -9 0 -9 5 0 6 5 11 11 11 5 0 7 5 3 11 -4 8 -9 7 -15 -2 -13
-21 -25 3 -44 83 -21 95 -20 108 10 108 14 0 25 -6 26 -12 0 -7 2 -22 5 -33 2
-11 5 -41 6 -67 2 -27 6 -48 9 -48 3 0 11 -17 17 -38 16 -54 63 -120 97 -138
15 -8 30 -13 31 -11 2 2 -6 9 -19 16 -12 6 -35 35 -50 64 -16 29 -22 44 -14
34 14 -16 15 -16 19 8 4 20 1 25 -16 25 -17 0 -18 2 -6 10 8 5 11 10 5 10 -5
0 -4 4 3 9 11 6 9 9 -6 13 -16 4 -19 2 -15 -11 4 -14 3 -14 -6 -1 -16 22 -13
34 8 47 18 11 21 8 36 -37 21 -62 69 -151 95 -175 22 -20 28 -8 8 15 -7 8 7
-3 30 -24 27 -23 50 -35 59 -32 9 4 22 1 29 -5 23 -19 16 6 -7 27 -30 27 -66
79 -48 70 7 -4 4 1 -7 11 -22 18 -54 111 -54 156 0 14 -4 29 -10 32 -14 9 -12
-28 5 -107 14 -68 30 -101 74 -153 21 -25 19 -24 -11 5 -50 47 -138 196 -138
232 0 20 -4 27 -12 22 -8 -5 -9 -2 -5 9 3 10 2 17 -3 17 -6 0 -10 7 -10 16 0
8 4 13 8 10 5 -3 7 8 4 23 -4 26 -2 28 27 23 17 -2 34 -8 37 -13 3 -5 12 -9
20 -9 12 0 12 3 2 20 -7 11 -18 20 -24 20 -6 0 -17 7 -24 15 -7 8 -25 15 -41
15 l-29 0 0 178 c0 97 7 224 15 282 12 93 13 123 2 109 -7 -8 -76 -375 -82
-434 -14 -145 -14 -145 -47 -145 l-31 0 6 243 c6 274 25 431 67 557 4 14 20
66 35 115 15 50 33 104 40 120 44 100 54 126 60 154 8 39 0 40 -20 1 -10 -19
-20 -28 -28 -24 -7 4 -9 4 -5 0 3 -4 -7 -31 -24 -59 -60 -102 -69 -120 -82
-170 -8 -29 -19 -65 -25 -81 -9 -22 -9 -31 0 -37 9 -5 5 -30 -15 -95 -19 -59
-26 -100 -22 -124 3 -19 1 -53 -5 -75 -6 -22 -12 -51 -13 -65 -5 -43 -17 -110
-46 -260 -15 -80 -31 -166 -34 -192 -4 -28 -13 -49 -23 -52 -13 -5 -14 1 -9
46 12 106 18 213 12 207 -9 -9 -36 -176 -36 -223 0 -41 -9 -53 -70 -85 l-35
-19 2 92 c3 203 26 362 89 617 30 119 50 178 95 268 35 71 54 120 48 125 -6 6
-9 5 -9 -2 0 -7 -12 -29 -28 -51 -70 -96 -145 -354 -202 -692 -17 -96 -107
-362 -121 -354 -4 3 -11 0 -15 -6 -4 -8 -3 -9 4 -5 16 10 15 -9 -3 -44 -18
-35 -20 -36 -22 -10 -1 11 2 18 8 15 5 -4 9 -2 9 4 0 5 -5 11 -10 13 -10 3 19
113 55 212 13 34 13 58 1 45 -8 -8 -136 -381 -136 -396 0 -8 -4 -12 -9 -9 -5
3 -12 -1 -15 -10 -9 -24 -7 -31 4 -14 7 11 10 7 10 -17 0 -17 2 -40 5 -50 3
-10 -4 0 -15 22 -38 77 -21 310 41 549 17 66 36 129 41 140 6 10 18 46 28 80
10 33 23 76 28 94 6 19 7 30 1 27 -5 -4 -9 -13 -9 -21 0 -8 -9 -33 -20 -57
-26 -55 -95 -259 -119 -350 -11 -40 -27 -130 -37 -200 -15 -111 -16 -142 -5
-232 6 -57 21 -130 32 -162 11 -32 22 -63 23 -69 1 -7 8 -20 16 -30 9 -11 10
-15 3 -10 -8 4 -13 2 -13 -4 0 -6 -4 -9 -9 -5 -5 3 -12 1 -16 -5 -3 -5 9 -23
27 -41 34 -31 24 -30 -24 3 -39 27 -48 22 -13 -8 17 -14 21 -21 10 -15 -43 21
-87 74 -121 145 -54 114 -67 251 -39 399 19 99 18 103 -6 42 -30 -74 -42 -163
-43 -335 -1 -174 3 -195 41 -241 l28 -33 -27 18 c-45 29 -80 114 -87 209 -17
228 38 462 161 688 100 184 257 493 252 498 -6 7 -29 -26 -60 -86 -14 -29 -30
-53 -35 -53 -5 0 -15 -15 -23 -32 -8 -18 -15 -26 -15 -18 -2 37 88 292 100
284 4 -2 9 4 11 14 3 9 6 22 8 27 1 6 11 22 21 36 10 14 16 29 12 33 -3 3 -1
6 6 6 7 0 9 5 6 10 -3 6 -1 10 5 10 6 0 8 5 5 10 -3 6 -1 10 4 10 6 0 11 9 11
20 0 11 5 20 10 20 6 0 10 7 10 15 0 22 135 179 243 282 117 112 263 227 277
218 6 -4 9 -1 8 6 -2 7 41 40 95 73 53 33 97 66 97 73 0 7 -11 20 -25 29 -51
34 -181 -2 -263 -71 -18 -15 -37 -23 -43 -19 -8 5 -9 3 -4 -6 5 -8 -21 -42
-78 -99 -99 -101 -188 -221 -318 -431 -18 -30 -37 -56 -41 -58 -5 -2 -8 -10
-8 -18 0 -8 -15 -44 -34 -79 -74 -139 -176 -437 -176 -513 0 -11 -36 -91 -80
-178 -84 -169 -130 -306 -149 -447 -22 -158 -9 -348 29 -413 11 -19 15 -42 12
-64 -3 -23 -1 -31 7 -26 7 5 9 1 5 -9 -8 -21 14 -494 32 -690 22 -232 9 -527
-37 -846 -11 -75 -26 -162 -34 -192 -8 -30 -23 -100 -35 -155 -11 -55 -34
-142 -50 -192 -17 -51 -27 -97 -23 -102 3 -6 1 -8 -4 -5 -6 4 -13 -7 -17 -26
-3 -17 -17 -53 -30 -80 -14 -26 -28 -62 -31 -80 -4 -17 -13 -45 -20 -62 -7
-16 -15 -37 -18 -45 -4 -13 -110 -46 -177 -55 -8 -1 -32 -10 -54 -19 -21 -10
-40 -15 -43 -13 -2 3 20 67 50 144 68 172 98 266 147 463 42 168 69 310 68
350 0 14 4 50 10 80 6 30 13 80 16 110 6 68 -5 35 -30 -90 -21 -107 -71 -268
-164 -525 -147 -408 -159 -444 -172 -505 l-12 -62 -85 -39 c-47 -22 -95 -40
-107 -41 -13 -1 -20 -7 -17 -12 4 -6 -1 -6 -13 -2 -10 4 -15 4 -12 0 4 -4 -18
-27 -50 -53 -87 -70 -239 -241 -305 -342 -9 -14 -26 -61 -37 -105 -11 -43 -23
-86 -26 -94 -4 -8 -8 -22 -9 -30 -1 -8 -11 -55 -23 -105 -46 -198 -62 -274
-71 -355 -26 -213 -101 -594 -151 -769 -17 -57 -30 -111 -30 -120 0 -10 -9
-44 -19 -77 -11 -32 -41 -135 -66 -229 -57 -207 -74 -264 -85 -290 -39 -90
-50 -120 -50 -135 0 -30 -28 -98 -49 -119 -16 -16 -21 -34 -21 -75 0 -51 2
-54 31 -67 18 -7 43 -22 58 -34 31 -26 220 -142 346 -214 50 -28 103 -61 119
-74 l28 -23 -1 -464 c-2 -598 -7 -665 -84 -970 -68 -269 -102 -446 -112 -584
-3 -39 -10 -105 -15 -146 -21 -174 -22 -180 -6 -180 17 0 20 19 41 235 20 203
54 401 106 613 86 354 87 367 105 1184 5 253 9 298 22 303 12 4 12 3 3 -8 -18
-22 -13 -223 6 -242 8 -8 17 -15 21 -16 96 -8 184 -8 172 1 -11 7 -4 10 28 10
32 0 41 -3 36 -12 -6 -10 -5 -10 7 -2 13 11 88 12 119 2 8 -3 35 -12 59 -19
24 -7 65 -33 92 -57 28 -25 51 -43 53 -41 3 2 9 20 14 39 6 19 11 28 11 20 1
-16 -9 -76 -63 -390 -37 -213 -44 -316 -24 -353 6 -12 29 -45 51 -74 39 -52
39 -53 28 -103 -15 -72 -14 -166 4 -199 8 -16 36 -47 62 -69 48 -40 49 -41 50
-103 2 -48 -3 -72 -19 -100 -17 -31 -19 -41 -9 -53 11 -13 -1 -30 -71 -108
-135 -151 -254 -311 -307 -416 l-21 -42 2150 0 2151 0 -7 23 c-4 12 -9 28 -12
36 -3 9 -1 12 6 7 7 -4 12 -15 13 -24 0 -14 2 -14 10 3 7 15 8 12 4 -15 l-5
-35 16 25 c12 20 14 21 9 4 -5 -19 -1 -20 95 -23 77 -2 100 1 100 11 0 10 3 9
10 -2 7 -11 10 -6 11 20 0 27 2 31 8 15 12 -31 23 54 12 93 -8 25 -7 32 5 32
15 0 20 36 5 42 -4 1 -11 14 -15 28 -3 14 -3 19 0 13 13 -29 22 -9 22 49 1 89
-18 232 -32 241 -8 5 -7 10 4 18 13 9 12 10 -3 5 -10 -3 -21 -6 -23 -6 -2 0
-4 -8 -4 -17 -1 -34 -50 35 -50 69 0 30 -1 30 -19 14 -19 -17 -20 -16 -31 38
-6 31 -17 56 -23 56 -7 0 -3 7 7 15 27 20 8 42 -22 26 -12 -6 -23 -8 -25 -4
-12 21 -16 63 -7 68 6 4 10 -9 10 -32 0 -27 3 -34 9 -23 6 8 7 27 4 42 -3 17
-1 28 6 28 6 0 11 -11 11 -24 0 -26 15 -43 24 -27 4 5 2 11 -3 13 -6 1 -13 26
-17 55 -5 45 -4 52 12 55 15 4 12 7 -11 13 -40 11 -64 43 -65 84 0 30 -2 32
-17 20 -13 -11 -17 -11 -20 -1 -9 24 -23 12 -18 -15 4 -26 -8 -43 -30 -43 -5
1 -3 6 6 13 9 7 15 21 13 31 -1 11 9 42 23 70 18 34 28 75 32 123 4 39 4 70 0
67 -3 -2 -9 15 -13 39 -3 23 -8 53 -11 67 -5 22 -3 21 9 -5 9 -16 15 -40 16
-53 0 -24 23 -55 33 -46 3 3 1 -12 -4 -33 -5 -21 -12 -51 -14 -68 -5 -29 -5
-29 9 5 l15 35 -2 -37 c-1 -20 -4 -36 -7 -36 -22 2 -31 -4 -27 -16 3 -8 0 -20
-7 -26 -20 -16 -27 -60 -10 -60 8 0 14 9 14 21 0 12 4 17 11 14 6 -4 8 -14 4
-24 -5 -12 -3 -13 5 -5 9 9 9 17 0 34 -6 12 -9 24 -6 28 3 3 6 -1 6 -8 0 -7 3
-10 6 -7 4 4 1 13 -6 22 -10 12 -10 15 2 15 16 0 19 -65 5 -87 -4 -6 -3 -14 3
-18 5 -3 10 -1 10 6 0 7 3 9 6 6 4 -4 -1 -18 -11 -33 -15 -23 -15 -28 -2 -41
13 -13 16 -11 22 26 4 26 13 42 25 46 10 3 21 17 24 30 4 14 10 25 15 25 4 0
9 26 10 58 0 31 6 82 13 112 11 52 12 53 19 25 4 -19 7 9 8 73 1 71 -2 101
-10 97 -7 -5 -8 5 -3 31 5 27 20 50 55 82 27 25 47 48 44 51 -2 4 9 5 26 3 16
-2 29 -9 29 -14 0 -6 11 -7 24 -4 15 4 28 1 32 -6 5 -8 2 -9 -12 -4 -12 4 -15
4 -9 -2 11 -10 117 -40 270 -76 55 -13 108 -27 117 -31 14 -5 18 0 21 32 8 59
-3 -271 -13 -420 -17 -241 -12 -368 20 -588 17 -112 33 -273 37 -356 l6 -153
179 0 178 0 1 123 c0 67 2 147 4 177 2 30 6 448 10 928 3 480 8 879 11 887 7
17 127 105 146 106 7 0 54 22 103 47 l90 47 3 48 c2 26 -6 96 -17 155 -12 59
-30 154 -41 212 -30 158 -106 536 -124 615 -15 64 -72 355 -96 485 -39 211
-56 322 -90 580 -14 103 -57 348 -72 410 -6 25 -18 53 -26 63 -9 10 -27 48
-42 85 -42 108 -117 207 -268 356 -77 76 -151 144 -164 150 -35 17 -47 68 -48
201 0 66 -4 126 -9 134 -11 16 -26 -217 -16 -248 5 -16 3 -20 -9 -15 -9 3 -13
10 -10 15 3 5 -4 9 -14 9 -11 0 -27 10 -36 23 -9 12 -14 16 -10 8 5 -10 -3 -8
-26 5 l-32 19 6 75 c11 126 17 152 31 140 18 -15 25 39 25 195 0 96 -5 152
-20 214 -12 47 -18 91 -15 98 2 8 0 11 -5 8 -6 -3 -10 1 -10 9 0 9 -18 71 -40
138 -22 67 -38 128 -35 136 2 7 1 11 -4 7 -5 -3 -28 55 -51 127 -23 73 -48
150 -56 170 -22 61 -95 358 -89 368 3 4 1 10 -3 12 -15 6 -61 246 -87 452 -14
113 -30 216 -35 228 -11 25 -10 18 11 -204 6 -65 9 -124 6 -132 -3 -8 -2 -16
3 -18 5 -2 10 -43 12 -93 2 -49 6 -92 10 -95 7 -5 27 -112 31 -165 1 -11 5
-22 8 -25 3 -3 13 -34 23 -69 15 -53 15 -65 4 -73 -10 -8 -9 -9 3 -5 12 4 19
-5 28 -34 7 -22 9 -48 6 -59 -3 -10 -1 -21 4 -25 7 -4 9 1 5 12 -5 17 -5 17 6
0 9 -14 8 -23 -3 -41 -11 -16 -12 -27 -5 -37 8 -11 9 -11 5 3 -3 9 0 21 7 27
11 9 15 6 18 -14 3 -14 1 -28 -4 -31 -5 -3 -7 -12 -4 -20 3 -7 1 -16 -5 -19
-5 -4 -13 4 -18 17 -8 22 -9 21 -16 -10 -4 -18 -4 -36 -1 -39 3 -4 6 4 6 17 0
18 3 20 14 11 10 -8 16 -9 21 -1 3 6 11 7 17 4 6 -4 6 2 -1 15 -7 11 -8 21 -3
21 13 0 33 -75 25 -96 -5 -13 -3 -15 7 -9 10 6 12 2 8 -18 -3 -15 -1 -24 3
-21 13 8 11 -10 -3 -24 -6 -6 -8 -15 -4 -19 4 -4 12 -1 17 7 8 12 9 11 8 -5
-2 -11 7 -63 18 -115 12 -52 26 -129 32 -170 6 -41 13 -86 17 -100 4 -18 3
-21 -4 -11 -7 10 -11 3 -14 -25 -3 -22 0 -42 5 -45 5 -4 7 -14 4 -24 -4 -10
-3 -14 4 -9 6 3 8 21 4 45 -4 23 -3 39 3 39 5 0 15 -46 21 -102 21 -187 22
-195 11 -173 -8 15 -9 11 -4 -19 7 -52 6 -268 -2 -322 -12 -79 -19 -46 -18 79
1 133 -11 230 -52 425 -14 70 -27 134 -28 142 -1 8 -8 32 -15 52 -7 21 -10 42
-7 47 4 5 2 11 -2 13 -8 3 -81 286 -88 343 0 6 -4 17 -7 25 -12 32 -15 76 -6
92 7 13 6 16 -5 12 -10 -4 -15 7 -20 40 -4 25 -4 51 0 58 4 6 3 8 -3 5 -6 -4
-15 26 -23 76 -7 45 -16 102 -20 127 -27 152 -52 335 -53 394 -1 38 -4 61 -6
50 -3 -10 -10 33 -17 96 -6 63 -17 164 -24 224 -13 118 -16 153 -18 234 -1 29
-6 51 -11 48 -5 -3 -7 -25 -6 -48 2 -24 6 -88 10 -143 6 -115 49 -536 65 -640
5 -38 12 -86 15 -105 9 -55 45 -255 66 -359 10 -51 17 -97 14 -101 -3 -5 -1
-11 4 -14 5 -3 12 -23 15 -43 4 -21 32 -141 62 -266 30 -125 52 -233 48 -239
-4 -6 -3 -8 3 -5 8 5 45 -163 69 -308 10 -66 16 -226 10 -277 l-7 -55 -117 47
c-64 26 -128 49 -142 53 -23 6 -25 10 -24 69 2 145 -32 503 -62 655 -8 39 -11
79 -8 87 3 9 2 16 -3 16 -5 0 -15 39 -22 88 -21 152 -51 374 -61 457 -5 44
-14 118 -20 165 -5 47 -12 110 -15 140 -3 30 -8 66 -10 80 -5 27 -16 189 -40
615 -15 262 -41 565 -51 574 -2 2 -4 -3 -4 -12 0 -9 -5 -17 -12 -17 -9 0 -9
-3 0 -12 7 -7 12 -21 11 -32 0 -21 0 -21 -9 -1 -7 17 -9 17 -9 3 -1 -10 -5
-18 -11 -18 -12 0 -12 -2 -1 35 20 73 -16 621 -56 850 l-18 100 -5 -55 c-3
-30 -2 -71 2 -90 10 -49 14 -277 5 -286 -4 -4 -2 -13 4 -21 9 -9 8 -13 0 -13
-6 0 -11 -18 -12 -42 0 -24 -6 -77 -14 -118 l-13 -75 -1 99 c-1 118 -19 277
-33 291 -7 7 -8 3 -4 -10 9 -31 14 -341 7 -422 -3 -39 -3 -69 1 -66 5 2 8 -3
8 -11 0 -9 -3 -16 -7 -17 -5 0 -20 -2 -35 -4 -31 -4 -60 21 -39 34 10 6 9 10
-4 14 -9 4 -13 3 -10 -3 3 -6 2 -10 -3 -10 -21 0 -69 89 -67 124 1 20 -3 32
-8 29 -6 -4 -8 10 -4 35 3 23 2 42 -2 42 -4 0 -15 42 -25 93 -39 206 -58 287
-86 381 -16 55 -27 103 -24 108 3 4 0 8 -6 8 -6 0 -8 5 -4 11 3 6 2 14 -3 18
-11 7 -76 168 -76 189 0 6 -5 12 -10 12 -5 0 -6 7 -3 16 3 8 2 12 -4 9 -13 -8
-12 -3 0 32 9 24 8 26 -3 11 -12 -16 -15 -14 -27 17 -7 18 -12 36 -11 40 1 3
-5 13 -14 21 -8 9 -13 20 -10 25 4 5 1 9 -5 9 -6 0 -8 5 -4 11 4 8 9 7 15 -2
4 -7 6 -16 4 -20 -3 -3 4 -14 15 -24 11 -10 17 -22 14 -26 -3 -5 -1 -16 4 -25
5 -10 12 -12 15 -7 10 15 -52 133 -69 133 -9 0 -12 -5 -8 -12 4 -7 3 -8 -5 -4
-6 4 -9 12 -6 17 3 5 -3 18 -14 30 -11 12 -17 28 -14 37 5 11 3 13 -7 7 -10
-6 -12 -4 -7 9 4 9 3 15 -2 12 -12 -8 -53 63 -45 76 4 6 2 8 -3 5 -6 -4 -30
21 -54 56 -24 34 -67 90 -97 125 -29 34 -49 62 -46 62 4 0 -3 8 -14 19 -12 10
-19 20 -17 23 3 3 -1 11 -10 18 -8 7 -15 9 -15 5 0 -4 -7 -2 -15 5 -12 10 -13
16 -4 27 9 10 9 12 -2 8 -8 -3 -26 5 -39 17 -14 13 -28 22 -32 21 -5 -2 -7 0
-7 5 3 19 -2 33 -10 27 -5 -3 -27 11 -48 30 -21 19 -46 38 -55 41 -10 3 -18
10 -18 16 0 6 -3 9 -6 5 -4 -3 -19 0 -35 8 -37 20 -119 19 -147 -1z m-188
-1276 c-3 -10 -1 -18 5 -18 13 0 15 -37 2 -44 -5 -4 -7 2 -4 13 3 10 0 22 -6
25 -6 4 -11 34 -10 69 l1 62 9 -45 c5 -25 6 -53 3 -62z m313 -55 c-2 -16 -4
-5 -4 22 0 28 2 40 4 28 2 -13 2 -35 0 -50z m123 -68 c0 25 60 -61 83 -120
l26 -66 -62 2 c-91 3 -88 -1 -81 93 7 100 11 116 24 96 6 -8 10 -11 10 -5z
m-1210 -116 c-10 -17 -9 -23 1 -30 11 -7 10 -9 -5 -9 -14 0 -17 5 -13 23 3 12
9 40 14 62 l8 40 3 -32 c2 -18 -2 -42 -8 -54z m1353 -4 c-3 -9 -8 -14 -10 -11
-3 3 -2 9 2 15 9 16 15 13 8 -4z m19 -38 c3 -14 0 -24 -7 -24 -7 0 -10 10 -7
24 2 13 6 23 7 23 1 0 5 -10 7 -23z m202 -31 c55 -83 56 -88 8 -69 -34 13 -41
21 -46 52 -7 42 -8 71 -2 71 2 0 20 -24 40 -54z m-1597 -8 c-3 -8 -6 -5 -6 6
-1 11 2 17 5 13 3 -3 4 -12 1 -19z m42 -52 c2 -69 6 -63 -58 -81 -16 -5 -18
-2 -14 17 3 13 16 32 29 44 15 14 20 25 14 34 -7 11 8 39 26 49 1 1 2 -28 3
-63z m-43 9 c1 -8 -2 -17 -7 -21 -5 -3 -9 7 -9 22 0 27 12 26 16 -1z m1829
-15 c9 -16 14 -30 12 -30 -2 0 -13 14 -25 30 -13 17 -18 30 -13 30 6 0 17 -13
26 -30z m-1659 -6 c-5 -17 -3 -23 4 -19 5 3 10 1 10 -4 0 -6 -7 -11 -15 -11
-16 0 -19 17 -9 44 10 26 17 18 10 -10z m944 12 c0 -2 -7 -6 -15 -10 -8 -3
-15 -1 -15 4 0 6 7 10 15 10 8 0 15 -2 15 -4z m314 -12 c3 -8 2 -12 -4 -9 -6
3 -10 10 -10 16 0 14 7 11 14 -7z m94 0 c23 -5 23 -6 19 -127 -4 -129 -9 -164
-32 -206 -13 -24 -14 -18 -16 77 -4 149 -3 147 -11 152 -3 3 -9 23 -13 44 -6
32 -5 37 6 31 8 -4 4 2 -8 14 -13 12 -23 23 -23 25 0 3 36 -1 78 -10z m-78
-68 c0 -28 -13 -11 -16 21 -2 21 -1 24 6 13 5 -8 10 -24 10 -34z m439 3 c11
-19 12 -21 0 -9 -8 8 -21 21 -29 29 -12 11 -12 12 -1 9 8 -2 21 -15 30 -29z
m-2128 -67 c3 -56 2 -58 -53 -91 l-37 -22 12 30 c6 16 14 28 19 25 4 -3 5 2 2
10 -3 9 3 32 15 51 12 20 21 44 21 53 0 10 3 12 9 7 5 -6 11 -34 12 -63z
m2047 26 c31 -18 75 -52 97 -76 88 -96 204 -212 213 -212 10 0 18 -167 29
-615 11 -430 9 -707 -6 -795 -24 -138 -63 -304 -91 -390 -16 -47 -38 -119 -49
-160 -11 -41 -29 -109 -40 -150 -34 -126 -109 -483 -115 -555 -2 -22 -6 -47
-9 -55 -3 -8 -8 -37 -12 -64 -4 -27 -9 -56 -13 -65 -5 -14 -4 -14 11 -2 9 7
17 10 17 6 0 -4 -7 -13 -15 -19 -8 -6 -19 -33 -25 -61 -9 -48 -7 -348 4 -450
3 -27 -2 -12 -10 35 -17 99 -21 391 -5 433 9 24 8 27 -9 27 -18 0 -19 2 -8 20
11 17 10 22 -2 30 -13 8 -12 10 3 10 17 0 18 6 12 49 -6 41 -4 51 12 61 16 10
15 10 -6 4 -21 -5 -22 -4 -10 9 8 8 17 13 20 11 8 -5 25 55 44 161 16 88 39
196 131 605 25 113 50 241 55 285 6 44 13 352 16 685 5 505 8 606 20 615 23
17 29 117 9 155 -18 38 -20 43 -7 36 5 -4 7 3 4 13 -3 11 -12 22 -20 25 -7 3
-12 2 -8 -3 3 -5 2 -17 -2 -28 -6 -13 -10 -4 -15 32 -9 69 -28 157 -38 174 -5
10 -9 6 -12 -13 -3 -14 -2 -26 2 -26 4 0 7 -6 8 -12 1 -17 12 -70 17 -85 2 -7
-1 -15 -7 -19 -6 -4 -8 -3 -5 3 4 6 0 13 -8 17 -8 3 -15 11 -15 18 0 9 3 8 10
-2 8 -13 10 -12 10 3 0 11 -8 17 -24 17 -28 0 -51 24 -40 41 4 8 3 9 -5 5 -6
-4 -14 0 -18 11 -4 10 -20 36 -35 57 -16 22 -26 46 -23 53 2 8 0 11 -5 8 -5
-3 -30 35 -55 85 -25 49 -43 90 -40 90 3 0 31 -15 63 -32z m-1874 -105 c-9
-91 -14 -92 -14 -5 0 43 4 72 10 72 7 0 8 -24 4 -67z m243 35 c-3 -7 -5 -2 -5
12 0 14 2 19 5 13 2 -7 2 -19 0 -25z m-277 -53 c0 -76 27 -183 54 -215 28 -33
30 -43 6 -30 -12 6 -27 9 -34 7 -7 -3 -13 1 -14 9 -1 8 -3 20 -4 28 -1 7 -8
13 -17 12 -16 -1 -64 114 -75 183 -6 39 -5 41 31 60 21 11 41 20 46 21 4 0 7
-34 7 -75z m2100 -40 c0 -5 -9 4 -20 20 -11 17 -20 35 -20 40 0 6 9 -3 20 -20
11 -16 20 -34 20 -40z m-2214 -50 c16 -70 49 -140 78 -164 8 -7 1 13 -16 44
-16 31 -28 59 -24 62 3 3 1 14 -5 24 -6 12 -6 19 0 19 5 0 15 -17 22 -37 6
-21 23 -58 37 -81 15 -27 21 -46 15 -50 -5 -4 -39 -26 -75 -50 -57 -37 -69
-41 -92 -32 -15 5 -35 10 -44 10 -13 0 -11 -5 8 -20 14 -11 31 -20 38 -20 17
0 15 -7 -12 -37 -19 -20 -29 -24 -54 -18 -42 9 -57 28 -37 48 8 9 14 26 13 39
-2 37 13 178 26 243 10 53 17 63 56 94 40 30 45 32 48 15 1 -11 10 -50 18 -89z
m-176 5 c-13 -28 -27 -50 -32 -50 -5 0 -7 4 -4 9 14 22 29 68 27 81 -2 13 -1
13 8 0 9 -13 11 -12 11 4 0 11 3 16 7 13 3 -4 -4 -30 -17 -57z m203 10 c3 -11
1 -18 -4 -14 -5 3 -9 12 -9 20 0 20 7 17 13 -6z m-190 -58 c-3 -12 -9 -22 -14
-22 -5 0 -3 11 3 25 13 30 20 28 11 -3z m2617 8 c0 -5 -4 -10 -10 -10 -5 0
-10 5 -10 10 0 6 5 10 10 10 6 0 10 -4 10 -10z m-1920 -20 c6 -11 8 -20 6 -20
-3 0 -10 9 -16 20 -6 11 -8 20 -6 20 3 0 10 -9 16 -20z m518 -32 c-41 -34 -53
-36 -32 -3 9 14 21 22 27 18 6 -3 7 -1 3 5 -12 20 4 35 21 20 13 -10 10 -16
-19 -40z m-1289 -102 c1 -23 -12 -13 -15 12 -1 9 -5 33 -8 52 -6 35 -6 35 8
-5 8 -22 15 -49 15 -59z m88 52 c-3 -8 -6 -5 -6 6 -1 11 2 17 5 13 3 -3 4 -12
1 -19z m-11 -88 c2 -39 -2 -63 -11 -70 -17 -14 -22 -5 -29 55 -6 45 -5 47 9
29 15 -19 15 -19 13 1 -2 35 2 59 9 51 4 -3 8 -33 9 -66z m2184 60 c-20 -13
-60 -13 -60 0 0 6 17 10 38 10 27 0 33 -3 22 -10z m-2451 -55 c0 -5 -4 -3 -9
5 -5 8 -9 22 -9 30 0 16 17 -16 18 -35z m3061 11 c0 -3 -4 -8 -10 -11 -5 -3
-10 -1 -10 4 0 6 5 11 10 11 6 0 10 -2 10 -4z m-407 -19 c3 -8 -1 -14 -8 -14
-7 0 -11 6 -8 14 3 7 6 13 8 13 2 0 5 -6 8 -13z m-2657 -35 c-17 -16 -18 -16
-5 5 7 12 15 20 18 17 3 -2 -3 -12 -13 -22z m2983 4 c31 -33 60 -132 67 -229
6 -79 5 -85 -34 -178 -52 -125 -137 -259 -164 -259 -17 0 3 84 27 110 47 52
74 106 80 160 4 30 15 67 26 82 25 35 24 86 -3 176 -37 127 -79 116 -136 -33
-17 -44 -32 -91 -35 -105 -2 -14 -5 24 -6 84 l-1 109 53 54 c61 60 90 67 126
29z m-2954 -16 c3 -5 1 -10 -4 -10 -6 0 -11 5 -11 10 0 6 2 10 4 10 3 0 8 -4
11 -10z m3026 -17 c-12 -20 -14 -14 -5 12 4 9 9 14 11 11 3 -2 0 -13 -6 -23z
m-334 -15 c-3 -8 -6 -5 -6 6 -1 11 2 17 5 13 3 -3 4 -12 1 -19z m344 -15 c-12
-20 -14 -14 -5 12 4 9 9 14 11 11 3 -2 0 -13 -6 -23z m-3006 -33 c3 -5 1 -10
-4 -10 -6 0 -11 5 -11 10 0 6 2 10 4 10 3 0 8 -4 11 -10z m152 3 c-4 -3 1 -16
10 -27 18 -21 18 -21 -4 -2 -20 16 -23 36 -6 36 4 0 3 -3 0 -7z m-186 -40 c13
-16 12 -17 -3 -4 -10 7 -18 15 -18 17 0 8 8 3 21 -13z m90 -24 c7 -14 6 -17
-3 -14 -7 3 -18 17 -25 31 -10 22 -10 24 3 13 8 -7 19 -20 25 -30z m215 33
c13 -8 0 -52 -15 -52 -6 0 -8 6 -6 13 3 7 -7 20 -22 29 l-28 17 30 1 c17 0 35
-4 41 -8z m2754 4 c0 -3 -4 -8 -10 -11 -5 -3 -10 -1 -10 4 0 6 5 11 10 11 6 0
10 -2 10 -4z m-2840 -76 c10 -10 45 -8 52 3 5 7 8 1 8 -15 0 -30 -32 -58 -67
-58 -16 0 -28 11 -44 41 -11 23 -16 38 -10 34 10 -6 16 8 11 30 -1 8 27 -12
50 -35z m-224 -22 c-3 -13 -3 -17 0 -10 3 6 14 12 25 12 18 0 18 -2 4 -24 -9
-13 -19 -56 -22 -95 -6 -76 -17 -95 -19 -33 -3 75 -10 138 -18 150 -5 8 -2 10
10 5 12 -4 15 -3 10 5 -4 7 -2 12 4 12 7 0 9 -9 6 -22z m41 16 c-3 -3 -12 -4
-19 -1 -8 3 -5 6 6 6 11 1 17 -2 13 -5z m-90 -56 c-3 -8 -6 -5 -6 6 -1 11 2
17 5 13 3 -3 4 -12 1 -19z m128 -48 c-20 -39 -31 -131 -18 -155 9 -16 11 -16
28 2 18 17 19 17 11 -2 -15 -40 -15 -97 0 -126 17 -34 19 -35 21 -9 1 11 -2
18 -8 15 -5 -4 -9 -2 -9 3 0 6 7 13 16 16 8 3 12 2 9 -4 -3 -5 3 -17 14 -27
10 -10 25 -37 33 -61 8 -23 18 -39 23 -35 4 5 5 2 1 -5 -9 -15 8 -32 49 -51
30 -13 30 -13 8 -24 -27 -12 -29 -20 -8 -37 12 -10 15 -10 15 3 0 15 37 30 51
21 8 -4 16 -31 35 -107 l6 -28 -37 15 c-99 42 -169 122 -248 284 -46 94 -50
109 -50 175 -1 86 11 169 23 162 4 -2 13 2 20 11 22 26 33 0 15 -36z m3000 3
c2 -15 6 -129 10 -253 4 -124 9 -238 10 -255 2 -16 8 -192 15 -390 12 -358 9
-665 -10 -990 -13 -218 -17 -257 -33 -267 -8 -5 -8 -8 0 -8 6 0 9 -9 6 -20 -5
-20 -6 -19 -19 5 -15 29 -45 220 -38 240 3 7 0 32 -6 56 -29 105 9 1765 40
1777 5 2 5 15 1 29 -6 23 8 117 17 108 2 -2 5 -16 7 -32z m-2931 -34 c-8 -13
-24 -1 -24 18 0 13 3 13 15 3 8 -7 12 -16 9 -21z m2653 -11 c-3 -8 -6 -5 -6 6
-1 11 2 17 5 13 3 -3 4 -12 1 -19z m-2630 -17 c11 -18 10 -18 -17 -8 -20 8
-25 14 -17 19 17 11 21 10 34 -11z m3 -53 c0 -6 -6 -5 -15 2 -8 7 -15 14 -15
16 0 2 7 1 15 -2 8 -4 15 -11 15 -16z m2633 -25 c3 -24 1 -43 -4 -43 -5 0 -9
21 -9 47 0 56 5 54 13 -4z m-2669 7 c-6 -6 -10 -3 -10 10 0 13 4 16 10 10 7
-7 7 -13 0 -20z m-133 -152 c0 -31 4 -60 9 -63 6 -3 10 -12 10 -18 0 -8 -3 -8
-9 1 -6 10 -10 9 -14 -7 -3 -12 -2 -21 3 -21 4 0 8 -36 9 -80 1 -44 -2 -80 -7
-80 -4 0 -8 -22 -7 -50 2 -77 -12 -59 -18 23 -7 109 -6 423 1 449 9 31 25 -77
23 -154z m177 117 c-3 -3 -9 2 -12 12 -6 14 -5 15 5 6 7 -7 10 -15 7 -18z
m2632 -45 c0 -11 -2 -20 -4 -20 -2 0 -6 9 -9 20 -3 11 -1 20 4 20 5 0 9 -9 9
-20z m27 -32 c-3 -8 -6 -5 -6 6 -1 11 2 17 5 13 3 -3 4 -12 1 -19z m-2667 -18
c0 -5 -6 -12 -12 -16 -7 -4 -10 -4 -6 1 4 4 3 14 -4 22 -8 11 -7 12 6 7 9 -3
16 -10 16 -14z m2640 -15 c0 -14 -4 -25 -9 -25 -4 0 -6 11 -3 25 2 14 6 25 8
25 2 0 4 -11 4 -25z m-2743 -252 c1 -98 1 -173 -2 -168 -2 6 -6 78 -9 160 -2
83 -6 163 -9 178 -3 20 -1 25 6 18 7 -7 12 -80 14 -188z m2582 112 c1 -58 -10
-71 -47 -56 -17 7 -39 22 -49 33 -17 19 -16 21 32 66 49 47 49 47 56 22 4 -14
7 -43 8 -65z m-2502 -76 l50 -66 5 -187 c5 -157 8 -190 22 -204 15 -16 16 -14
12 23 -2 22 -2 34 1 27 2 -6 9 -9 15 -6 16 10 1 -546 -22 -841 -12 -143 -19
-291 -16 -330 4 -53 3 -61 -4 -35 -5 19 -12 123 -15 230 -4 107 -11 242 -15
300 -6 78 -7 47 -4 -120 4 -219 9 -336 20 -510 5 -77 62 -346 84 -395 5 -11
18 -40 29 -65 10 -25 34 -72 53 -105 83 -146 117 -274 99 -370 -17 -88 -55
-150 -113 -179 -14 -8 -26 -30 -38 -73 -17 -63 -61 -133 -83 -133 -7 1 -6 5 4
13 40 31 96 167 69 167 -10 0 -10 3 -1 14 19 23 -5 128 -51 220 -173 350 -229
539 -243 826 -4 80 -8 146 -10 148 -2 2 -10 -37 -35 -178 -21 -114 -24 -394
-6 -479 21 -100 13 -103 -10 -4 -34 145 -17 455 56 1008 39 298 79 817 87
1133 3 133 7 241 8 240 2 -2 25 -33 52 -69z m2850 34 c-3 -10 -5 -4 -5 12 0
17 2 24 5 18 2 -7 2 -21 0 -30z m0 -100 c-3 -10 -5 -4 -5 12 0 17 2 24 5 18 2
-7 2 -21 0 -30z m-178 -353 c6 -179 18 -440 26 -580 22 -376 29 -757 17 -881
-10 -94 -32 -205 -46 -227 -7 -12 -34 -137 -61 -290 -32 -177 -40 -291 -26
-377 6 -38 12 -79 14 -90 1 -11 5 -22 8 -25 3 -3 18 -30 34 -62 17 -33 39 -61
53 -68 13 -6 22 -13 19 -16 -3 -4 -26 8 -51 26 -30 22 -43 37 -39 48 4 10 2
13 -5 8 -6 -4 -18 4 -27 17 -33 51 -50 148 -50 277 l1 85 -13 -55 c-16 -69
-14 -169 5 -240 8 -30 14 -61 15 -67 0 -7 5 -13 11 -14 6 0 0 -5 -13 -10 -27
-11 -53 7 -77 54 -9 16 -20 25 -26 21 -6 -4 -8 -3 -5 3 3 5 0 27 -8 49 -27 75
-13 444 17 444 5 0 6 5 3 10 -10 16 5 91 17 84 6 -4 8 2 3 16 -5 17 -4 21 6
15 9 -6 11 -3 6 8 -7 19 16 70 27 60 4 -4 4 -1 1 8 -3 8 4 41 16 74 80 224 88
257 110 433 15 113 7 132 -11 25 -7 -43 -16 -94 -21 -113 -4 -19 -11 -51 -14
-70 -8 -45 -49 -165 -87 -255 -16 -38 -42 -104 -58 -145 -15 -41 -46 -113 -68
-160 -48 -104 -94 -239 -117 -344 -21 -93 -15 -190 16 -251 l19 -40 -25 30
c-54 64 -57 178 -9 340 15 50 28 101 29 115 2 14 19 75 39 135 107 321 172
765 185 1260 8 258 10 286 33 363 14 45 24 82 22 82 -2 0 6 21 16 46 37 85 61
230 67 407 3 92 7 166 8 165 2 -2 8 -149 14 -328z m167 113 c-8 -224 -16 -314
-26 -308 -5 3 -11 -1 -13 -7 -3 -7 -6 -3 -6 10 -1 13 3 21 9 17 5 -3 9 23 8
67 0 40 2 109 5 153 4 44 9 117 13 163 10 144 16 88 10 -95z m-2638 123 c-1
-25 -6 -32 -17 -28 -10 4 -11 7 -3 10 18 6 14 40 -5 45 -13 4 -12 5 5 6 20 1
22 -3 20 -33z m-351 -38 c-2 -13 -4 -5 -4 17 -1 22 1 32 4 23 2 -10 2 -28 0
-40z m330 -20 c-3 -8 -6 -5 -6 6 -1 11 2 17 5 13 3 -3 4 -12 1 -19z m20 -25
c-3 -10 -5 -4 -5 12 0 17 2 24 5 18 2 -7 2 -21 0 -30z m-20 -65 c-2 -13 -4 -5
-4 17 -1 22 1 32 4 23 2 -10 2 -28 0 -40z m-330 -115 c-3 -10 -5 -4 -5 12 0
17 2 24 5 18 2 -7 2 -21 0 -30z m2570 15 c-3 -8 -6 -5 -6 6 -1 11 2 17 5 13 3
-3 4 -12 1 -19z m-2239 -46 c-4 -2 -8 -13 -8 -23 0 -11 5 -17 10 -14 6 3 10
-1 10 -9 0 -9 4 -16 8 -16 10 0 5 -284 -8 -492 -12 -189 -73 -591 -79 -523 -2
18 -3 17 -12 -5 -7 -17 -7 -26 0 -28 6 -2 11 -10 11 -18 0 -9 -5 -12 -11 -8
-8 4 -9 -3 -4 -25 4 -21 3 -31 -5 -31 -20 0 -2 333 50 915 30 323 32 346 40
310 3 -16 2 -31 -2 -33z m31 6 c-1 -40 -1 -41 -9 -15 -8 26 -4 57 6 57 2 0 4
-19 3 -42z m2198 0 c-3 -8 -6 -5 -6 6 -1 11 2 17 5 13 3 -3 4 -12 1 -19z
m-2560 -20 c-3 -8 -6 -5 -6 6 -1 11 2 17 5 13 3 -3 4 -12 1 -19z m2550 -40
c-3 -8 -6 -5 -6 6 -1 11 2 17 5 13 3 -3 4 -12 1 -19z m-357 -34 c0 -8 -5 -12
-10 -9 -6 4 -8 11 -5 16 9 14 15 11 15 -7z m757 -6 c-3 -8 -6 -5 -6 6 -1 11 2
17 5 13 3 -3 4 -12 1 -19z m-776 -15 c13 -16 12 -17 -3 -4 -16 12 -18 11 -18
-3 0 -9 7 -16 15 -16 11 0 15 -10 13 -37 l-1 -38 -4 33 c-4 27 -8 32 -21 27
-9 -4 -24 -8 -32 -9 -8 -2 -15 -7 -15 -12 0 -16 -16 -35 -28 -33 -33 4 -40 0
-26 -18 9 -10 9 -14 2 -10 -16 10 -31 -21 -27 -57 3 -26 2 -27 -11 -10 -10 14
-10 21 -2 26 9 6 8 8 -1 8 -8 0 -16 -8 -19 -19 -2 -10 -15 -23 -28 -29 -17 -8
-23 -18 -21 -36 3 -21 0 -23 -17 -17 -33 13 -31 28 7 46 20 10 33 22 29 28 -3
5 -1 7 4 4 12 -7 26 20 18 32 -4 8 67 71 80 71 3 0 19 15 35 33 17 17 27 24
24 14 -5 -13 -2 -16 10 -11 9 3 13 10 10 16 -6 9 1 38 9 38 3 0 11 -8 18 -17z
m-2184 -150 c-2 -21 -4 -4 -4 37 0 41 2 58 4 38 2 -21 2 -55 0 -75z m2977 -40
c-6 -151 -14 -204 -14 -97 0 32 -2 98 -3 146 -3 78 -1 89 20 97 1 1 0 -65 -3
-146z m-844 69 c0 -11 -3 -12 -13 -3 -8 6 -16 8 -19 5 -3 -3 -8 -1 -11 3 -3 5
5 9 19 9 14 0 24 -6 24 -14z m47 -97 c-3 -25 -4 -24 -6 10 -2 32 -4 36 -11 20
l-9 -20 -1 20 c-1 11 -3 29 -5 40 -2 11 1 23 8 27 15 9 30 -52 24 -97z m-229
36 c-7 -11 -19 -22 -28 -25 -8 -2 -37 -22 -65 -42 -27 -21 -45 -33 -40 -26 9
10 137 110 143 111 1 1 -3 -8 -10 -18z m-1961 -68 c-3 -10 -5 -2 -5 17 0 19 2
27 5 18 2 -10 2 -26 0 -35z m1033 -40 c0 -18 4 -24 14 -20 10 4 13 1 10 -7 -5
-14 20 -39 43 -42 8 -2 12 0 9 3 -3 4 0 13 7 21 10 13 9 15 -8 8 -15 -5 -17
-4 -8 5 17 17 34 1 28 -29 -2 -14 -1 -31 3 -36 5 -6 13 -23 20 -38 18 -43 -10
-25 -30 20 -10 21 -15 26 -12 12 8 -30 56 -109 67 -110 5 0 6 4 2 9 -3 5 -1
12 4 15 4 3 19 -8 31 -24 25 -33 43 -40 33 -13 -6 15 -5 16 9 3 11 -11 13 -19
5 -32 -6 -9 -15 -14 -19 -12 -21 13 -4 -24 36 -77 34 -45 46 -55 49 -42 4 14
5 13 6 -4 1 -14 6 -21 15 -17 14 5 50 -41 42 -55 -5 -7 37 -51 49 -51 3 0 5 7
5 15 0 8 6 15 13 15 21 0 38 -16 34 -31 -2 -8 -2 -11 0 -6 7 11 33 9 33 -3 0
-6 -7 -13 -15 -16 -8 -4 -12 -10 -9 -15 11 -18 -9 -9 -27 13 -11 11 -21 19
-24 16 -3 -3 7 -17 21 -32 24 -24 29 -25 44 -11 22 20 36 19 20 0 -16 -19 -5
-34 12 -17 7 7 17 12 23 12 5 -1 0 -9 -13 -20 l-23 -19 33 -30 c18 -16 35 -25
36 -20 2 5 8 9 14 9 6 0 8 -6 5 -14 -3 -7 3 -20 14 -29 16 -14 20 -14 33 -2
19 19 34 19 54 -1 15 -15 14 -16 -8 -10 -18 5 -21 4 -11 -2 12 -9 12 -11 0
-15 -8 -2 -6 -3 4 -1 28 4 46 -6 41 -21 -6 -16 31 -39 47 -30 20 13 58 12 63
-2 3 -7 1 -25 -5 -40 -18 -47 -90 -186 -110 -211 -28 -36 -22 -52 6 -17 14 17
25 24 25 17 0 -23 24 -38 56 -36 27 1 31 -2 26 -20 -5 -19 -4 -20 14 -7 18 14
18 14 2 -3 -19 -21 -40 -13 -32 12 5 16 5 16 -9 0 -8 -10 -17 -18 -20 -18 -4
0 -4 8 0 18 3 9 3 14 -2 10 -4 -4 -14 -3 -22 3 -19 17 -17 -6 3 -26 9 -9 23
-14 30 -11 23 9 16 -7 -13 -32 l-28 -23 25 7 c14 4 61 25 104 46 l80 40 184 9
c102 6 186 8 189 6 5 -6 -146 -69 -254 -106 -398 -134 -914 -96 -1283 96 -58
30 -118 65 -135 78 l-30 25 31 0 c58 0 426 -70 471 -90 25 -11 58 -34 74 -51
41 -44 59 -32 20 14 -53 59 -115 82 -311 112 -220 34 -244 40 -274 70 -21 21
-26 22 -44 9 -16 -11 -22 -11 -29 -1 -15 18 -27 43 -18 35 4 -4 14 -3 21 3 10
8 15 7 20 -4 3 -9 13 -13 25 -10 10 3 16 9 13 14 -3 5 -9 7 -14 4 -5 -3 -11
-1 -15 5 -3 5 -1 10 6 10 17 0 204 96 258 133 43 29 43 29 37 6 -7 -22 -5 -22
18 5 31 38 71 159 85 259 19 138 11 395 -15 462 -5 13 -4 16 4 11 7 -4 12 -19
12 -33z m865 17 c-3 -5 -12 -10 -18 -10 -7 0 -6 4 3 10 19 12 23 12 15 0z
m252 -12 c-3 -8 -6 -5 -6 6 -1 11 2 17 5 13 3 -3 4 -12 1 -19z m-343 -13 c-3
-8 -14 -17 -25 -20 -11 -4 -17 -11 -14 -16 5 -8 -10 -14 -17 -7 -2 2 -19 -8
-38 -20 l-35 -24 30 26 c16 14 31 24 33 22 2 -2 17 9 35 25 36 33 38 34 31 14z
m381 -75 c0 -97 -11 -92 -17 8 -4 48 -1 72 6 72 7 0 11 -28 11 -80z m-36 27
c0 -21 -1 -21 -9 -2 -12 28 -12 37 0 30 6 -3 10 -16 9 -28z m-992 -28 c3 -17
13 -34 22 -37 18 -8 27 -32 12 -32 -5 0 -13 -9 -16 -21 -4 -11 -9 -18 -12 -16
-2 3 0 15 7 26 9 17 8 25 -5 37 -8 8 -15 23 -15 33 0 9 -5 22 -12 29 -9 9 -9
12 0 12 7 0 15 -14 19 -31z m893 16 c0 -9 -6 -12 -15 -9 -8 4 -15 10 -15 15 0
5 7 9 15 9 8 0 15 -7 15 -15z m-820 -35 c0 -5 -5 -10 -11 -10 -5 0 -7 5 -4 10
3 6 8 10 11 10 2 0 4 -4 4 -10z m435 -9 c-3 -6 -11 -9 -16 -6 -5 4 -9 2 -9 -3
0 -5 -10 -12 -22 -15 -22 -6 -22 -6 2 13 13 10 28 16 32 14 4 -3 8 0 8 7 0 7
3 10 6 6 3 -3 3 -11 -1 -16z m-421 -19 c2 -4 -4 -8 -14 -8 -10 0 -16 4 -14 8
3 4 9 8 14 8 5 0 11 -4 14 -8z m776 -2 c0 -5 -11 -10 -25 -10 -14 0 -25 5 -25
10 0 6 11 10 25 10 14 0 25 -4 25 -10z m132 -12 c-7 -7 -12 -8 -12 -2 0 14 12
26 19 19 2 -3 -1 -11 -7 -17z m-422 8 c0 -2 -7 -7 -16 -10 -8 -3 -12 -2 -9 4
6 10 25 14 25 6z m340 -32 c0 -13 -4 -24 -10 -24 -5 0 -10 14 -10 31 0 17 4
28 10 24 6 -3 10 -17 10 -31z m-503 2 c0 -8 -6 -12 -15 -9 -11 5 -11 7 0 14 7
5 13 9 14 9 0 0 1 -6 1 -14z m463 -26 c0 -22 -4 -40 -10 -40 -5 0 -10 18 -10
40 0 22 5 40 10 40 6 0 10 -18 10 -40z m160 -39 c0 -69 -11 -91 -29 -58 -7 14
-11 33 -9 43 4 14 7 10 15 -16 13 -41 15 -15 4 52 -6 36 -5 45 6 41 9 -3 13
-24 13 -62z m-833 53 c-3 -3 -12 -4 -19 -1 -8 3 -5 6 6 6 11 1 17 -2 13 -5z
m29 -10 c-3 -19 -32 -38 -46 -29 -17 10 0 26 21 20 11 -4 19 -3 18 2 -2 12 0
23 5 23 2 0 3 -7 2 -16z m149 6 c3 -6 -1 -7 -9 -4 -18 7 -21 14 -7 14 6 0 13
-4 16 -10z m-35 -8 c0 -4 -17 -6 -37 -4 -65 6 -70 10 -15 11 28 0 52 -3 52 -7z
m-93 -33 c2 -16 -1 -19 -9 -11 -5 5 -7 15 -4 21 10 15 12 14 13 -10z m228 12
c3 -5 1 -12 -5 -16 -5 -3 -10 1 -10 9 0 18 6 21 15 7z m465 -12 c0 -5 -10 -9
-21 -9 -18 0 -19 2 -9 15 12 15 30 12 30 -6z m-533 -5 c-3 -3 -12 -4 -19 -1
-8 3 -5 6 6 6 11 1 17 -2 13 -5z m570 -26 c-3 -8 -6 -5 -6 6 -1 11 2 17 5 13
3 -3 4 -12 1 -19z m-382 2 c4 -6 -6 -10 -22 -10 -22 0 -25 2 -13 10 19 12 27
12 35 0z m-2134 -106 c-34 -162 -126 -470 -162 -535 -13 -24 -13 -23 -21 15
-5 23 -5 42 1 45 5 3 20 45 34 92 31 107 161 488 165 484 2 -1 -6 -47 -17
-101z m2189 86 c0 -5 -7 -10 -15 -10 -8 0 -15 5 -15 10 0 6 7 10 15 10 8 0 15
-4 15 -10z m610 -70 c-10 -23 -10 -22 -5 9 3 18 6 43 7 55 1 12 3 9 5 -9 2
-17 -1 -42 -7 -55z m-260 15 c0 -5 -5 -3 -10 5 -8 12 -10 12 -10 1 0 -8 -2
-12 -5 -9 -3 3 -2 13 1 22 5 14 9 15 15 4 5 -7 9 -17 9 -23z m-880 15 c0 -5
-5 -10 -11 -10 -5 0 -7 5 -4 10 3 6 8 10 11 10 2 0 4 -4 4 -10z m590 -40 c0
-22 -4 -40 -10 -40 -5 0 -10 18 -10 40 0 22 5 40 10 40 6 0 10 -18 10 -40z
m-555 -8 c-8 -8 -25 10 -25 26 0 13 2 13 14 -4 8 -10 13 -21 11 -22z m345 23
c-7 -8 -20 -14 -29 -14 -13 1 -13 2 2 6 9 2 17 9 17 14 0 5 5 9 11 9 8 0 8 -5
-1 -15z m533 -46 c-5 -5 -7 7 -4 29 5 34 6 35 9 8 2 -16 0 -32 -5 -37z m-236
36 c24 -25 7 -30 -18 -6 -13 12 -17 21 -10 21 7 0 19 -7 28 -15z m113 -4 c0
-6 -4 -13 -10 -16 -5 -3 -10 1 -10 9 0 9 5 16 10 16 6 0 10 -4 10 -9z m106
-18 c-10 -10 -19 5 -10 18 6 11 8 11 12 0 2 -7 1 -15 -2 -18z m-566 -3 c0 -5
9 -10 20 -10 11 0 20 5 20 11 0 5 5 7 11 3 21 -12 -19 -25 -56 -18 -37 7 -48
24 -15 24 11 0 20 -4 20 -10z m327 -16 c-3 -3 -12 -4 -19 -1 -8 3 -5 6 6 6 11
1 17 -2 13 -5z m160 0 c-3 -3 -12 -4 -19 -1 -8 3 -5 6 6 6 11 1 17 -2 13 -5z
m-627 -34 c5 0 11 8 14 18 3 9 3 -2 0 -25 -5 -40 -4 -43 18 -43 33 0 68 -11
68 -21 0 -5 -9 -9 -20 -9 -11 0 -20 5 -20 10 0 6 -11 10 -25 10 -26 0 -65 49
-65 80 1 12 3 11 11 -2 5 -10 14 -18 19 -18z m740 10 c0 -5 -4 -10 -10 -10 -5
0 -10 5 -10 10 0 6 5 10 10 10 6 0 10 -4 10 -10z m-800 -4 c0 -11 -19 -15 -25
-6 -3 5 1 10 9 10 9 0 16 -2 16 -4z m780 -26 c0 -5 -5 -10 -11 -10 -5 0 -7 5
-4 10 3 6 8 10 11 10 2 0 4 -4 4 -10z m-784 -16 c-5 -13 -2 -15 15 -11 16 4
19 3 11 -5 -15 -15 -43 -2 -36 17 3 8 8 15 11 15 3 0 2 -7 -1 -16z m507 -21
c-18 -7 -16 -30 3 -37 8 -3 12 -10 9 -16 -9 -15 -22 -4 -33 30 -10 27 -9 30
11 29 12 0 16 -3 10 -6z m53 -31 c1 -20 -1 -30 -4 -22 -3 8 -11 19 -19 23 -11
7 -11 12 -2 23 18 22 24 17 25 -24z m170 24 c8 -8 11 -17 7 -19 -5 -2 -16 4
-25 15 -21 21 -4 25 18 4z m-486 -6 c0 -5 -15 -10 -32 -10 -25 0 -29 3 -18 10
20 13 50 13 50 0z m574 -33 c-4 -26 -3 -28 6 -12 9 19 10 19 7 1 -1 -12 -11
-20 -27 -23 -20 -2 -22 -1 -10 8 11 8 12 12 3 16 -18 7 -16 23 2 23 9 0 12 6
8 17 -4 11 -3 14 5 9 6 -4 9 -21 6 -39z m-364 13 c0 -5 -4 -10 -10 -10 -5 0
-10 5 -10 10 0 6 5 10 10 10 6 0 10 -4 10 -10z m196 -5 c9 -8 12 -19 9 -25 -3
-5 1 -10 9 -10 9 0 16 -4 16 -10 0 -5 9 -10 20 -10 11 0 20 -4 20 -10 0 -5 -9
-10 -20 -10 -25 0 -27 -27 -2 -33 9 -2 1 -2 -18 0 -19 3 -37 8 -40 11 -3 4
-14 12 -25 18 -23 13 -32 59 -14 80 15 18 27 18 45 -1z m-406 -15 c0 -5 -9
-10 -21 -10 -11 0 -17 5 -14 10 3 6 13 10 21 10 8 0 14 -4 14 -10z m-10 -27
c0 -10 -20 -40 -20 -31 0 3 -3 13 -6 22 -4 11 -1 16 10 16 9 0 16 -3 16 -7z
m120 -33 c0 -22 -4 -40 -10 -40 -5 0 -10 18 -10 40 0 22 5 40 10 40 6 0 10
-18 10 -40z m502 -15 c9 -20 9 -20 -6 -1 -11 13 -16 15 -16 6 0 -7 -3 -11 -6
-7 -3 3 -2 16 2 29 5 17 8 19 12 8 3 -8 9 -24 14 -35z m-8 -23 c3 -5 -1 -9 -9
-9 -8 0 -12 4 -9 9 3 4 7 8 9 8 2 0 6 -4 9 -8z m-644 -12 c-20 -13 -33 -13
-25 0 3 6 14 10 23 10 15 0 15 -2 2 -10z m300 -7 c0 -18 39 -17 46 2 11 28 24
15 24 -24 0 -22 5 -41 11 -43 9 -3 9 -9 0 -25 -13 -25 -15 -53 -3 -53 16 0 29
59 24 109 -4 43 -2 51 13 51 14 0 16 -8 12 -62 -7 -92 -10 -102 -36 -115 -31
-17 -31 -17 -32 15 0 15 -3 21 -6 15 -10 -26 -18 -11 -18 34 0 40 -3 48 -20
51 -11 2 -24 9 -30 16 -5 7 -18 15 -27 19 -28 10 -21 24 12 24 18 0 30 -6 30
-14z m374 1 c3 -8 2 -12 -4 -9 -6 3 -10 10 -10 16 0 14 7 11 14 -7z m-614 -26
c0 -5 -8 -8 -18 -8 -11 0 -18 7 -18 19 0 15 3 17 18 7 10 -6 18 -14 18 -18z
m35 22 c3 -5 -1 -10 -9 -10 -9 0 -16 5 -16 10 0 6 4 10 9 10 6 0 13 -4 16 -10z
m-1835 -164 c-22 -88 -45 -165 -50 -171 -9 -11 -70 -27 -70 -19 0 1 -3 10 -6
19 -4 10 -2 15 7 13 7 -2 14 2 14 7 2 12 12 35 59 138 20 43 33 83 30 89 -4 6
-2 8 4 4 6 -3 17 12 28 39 9 25 18 44 20 42 2 -1 -15 -74 -36 -161z m2400 144
c7 -14 7 -20 0 -20 -5 0 -10 7 -10 16 0 8 -5 12 -11 9 -6 -4 -8 -13 -5 -21 8
-22 -2 -17 -15 7 -8 15 -8 19 0 15 6 -4 11 -2 11 3 0 18 19 12 30 -9z m-380
-20 c0 -5 -5 -10 -11 -10 -5 0 -7 -5 -4 -10 4 -6 10 -8 15 -5 11 7 26 -43 16
-52 -3 -4 -6 2 -6 13 0 13 -7 20 -20 21 -11 1 -20 -2 -20 -8 0 -5 5 -9 10 -9
6 0 10 -4 10 -10 0 -21 -20 -9 -26 15 -6 23 -15 30 -36 26 -5 0 -8 4 -8 9 0
13 6 13 32 -1 15 -8 19 -8 14 0 -9 14 1 31 20 31 8 0 14 -4 14 -10z m498 -97
c1 -13 -2 -23 -7 -23 -6 0 -7 7 -4 17 4 10 2 14 -4 10 -6 -4 -17 1 -24 11 -12
15 -12 16 2 5 25 -20 30 -3 6 21 -12 11 -29 30 -36 41 -8 11 3 2 25 -19 21
-22 40 -50 42 -63z m-83 77 c3 -6 -1 -7 -9 -4 -18 7 -21 14 -7 14 6 0 13 -4
16 -10z m-369 -26 c4 -15 2 -30 -6 -37 -10 -10 -11 -7 -7 12 3 14 1 31 -5 38
-7 9 -7 13 1 13 6 0 14 -12 17 -26z m-106 -6 c0 -4 -4 -8 -9 -8 -6 0 -12 4
-15 8 -3 5 1 9 9 9 8 0 15 -4 15 -9z m499 3 c11 -7 9 -11 -8 -20 -12 -7 -19
-16 -17 -20 3 -4 -1 -8 -9 -8 -20 0 -19 2 8 28 18 18 18 21 4 16 -11 -4 -16
-3 -12 3 8 12 16 12 34 1z m-544 -11 c3 -5 -1 -10 -9 -10 -9 0 -16 5 -16 10 0
6 4 10 9 10 6 0 13 -4 16 -10z m262 -32 c-3 -8 -6 -5 -6 6 -1 11 2 17 5 13 3
-3 4 -12 1 -19z m378 -17 c-6 -5 -25 10 -25 20 0 5 6 4 14 -3 8 -7 12 -15 11
-17z m-2183 -81 c4 -63 3 -82 -3 -55 -8 39 -12 162 -5 154 2 -2 6 -47 8 -99z
m1651 88 c-4 -7 -8 -22 -8 -32 0 -11 -7 -21 -15 -23 -12 -4 -13 -3 -1 5 7 5
11 14 7 20 -8 13 3 42 16 42 5 0 6 -6 1 -12z m187 -18 c0 -5 -12 -10 -26 -10
-14 0 -23 4 -19 10 3 6 15 10 26 10 10 0 19 -4 19 -10z m150 -20 c0 -5 -4 -10
-10 -10 -5 0 -10 5 -10 10 0 6 5 10 10 10 6 0 10 -4 10 -10z m170 6 c0 -2 -7
-7 -16 -10 -8 -3 -12 -2 -9 4 6 10 25 14 25 6z m-375 -16 c3 -6 17 -7 31 -4
13 3 24 2 24 -4 0 -13 -39 -23 -66 -16 -13 3 -28 -1 -38 -11 -27 -27 -31 -9
-5 19 26 27 44 32 54 16z m-170 -47 l-6 -28 16 28 c18 31 21 32 31 15 4 -7 4
-10 -1 -6 -8 7 -23 -15 -38 -56 -6 -14 -4 -17 9 -12 14 5 15 4 4 -8 -11 -14
-14 -14 -28 1 -15 14 -17 14 -25 -11 -5 -14 -14 -26 -19 -26 -13 0 -1 -14 13
-16 5 -1 14 -2 19 -3 6 0 10 -8 10 -16 0 -9 6 -12 18 -9 14 5 15 4 2 -5 -11
-8 -19 -7 -30 7 -9 11 -23 18 -33 16 -9 -1 -17 1 -17 4 0 9 72 152 77 152 2 0
1 -12 -2 -27z m1872 5 c-3 -8 -6 -5 -6 6 -1 11 2 17 5 13 3 -3 4 -12 1 -19z
m-4304 -85 c-7 -17 -17 -53 -23 -79 -12 -53 -31 -74 -41 -46 -8 21 5 56 37
104 14 20 25 42 23 50 -1 7 0 24 1 38 2 24 3 23 9 -5 4 -17 2 -43 -6 -62z
m2987 77 c0 -5 -4 -10 -10 -10 -5 0 -10 5 -10 10 0 6 5 10 10 10 6 0 10 -4 10
-10z m164 -19 c-4 -3 -9 0 -11 7 -3 6 -10 9 -15 6 -7 -4 -8 -2 -4 5 6 9 11 9
22 0 8 -6 12 -15 8 -18z m-344 15 c0 -3 -4 -8 -10 -11 -5 -3 -10 -1 -10 4 0 6
5 11 10 11 6 0 10 -2 10 -4z m-1590 -41 c14 -19 14 -19 -2 -6 -10 7 -18 18
-18 24 0 6 1 8 3 6 1 -2 9 -13 17 -24z m1650 15 c0 -5 -5 -10 -11 -10 -5 0 -7
5 -4 10 3 6 8 10 11 10 2 0 4 -4 4 -10z m127 -22 c-3 -8 -6 -5 -6 6 -1 11 2
17 5 13 3 -3 4 -12 1 -19z m116 -10 c-18 -18 -35 -29 -39 -25 -3 3 0 13 9 21
8 8 17 12 21 9 3 -3 8 2 12 11 3 9 11 16 17 16 7 0 -3 -14 -20 -32z m-304 8
c-2 -2 -28 -6 -57 -10 -37 -5 -52 -4 -47 4 3 5 29 10 57 10 28 0 49 -2 47 -4z
m-2222 -203 c-2 -37 -3 -9 -3 62 0 72 1 102 3 68 2 -34 2 -93 0 -130z m1986
180 c-24 -5 -32 -23 -11 -23 6 0 8 -3 5 -6 -4 -4 -14 -1 -22 6 -13 11 -13 15
-3 21 7 5 22 8 33 7 17 -1 17 -1 -2 -5z m-95 -17 c-10 -7 -18 -18 -18 -25 0
-16 -17 -14 -24 4 -3 9 0 15 9 15 8 0 15 5 15 10 0 6 8 10 18 10 16 -1 16 -1
0 -14z m152 4 c0 -5 -7 -7 -15 -4 -8 4 -15 8 -15 10 0 2 7 4 15 4 8 0 15 -4
15 -10z m120 0 c0 -5 -7 -10 -16 -10 -8 0 -12 5 -9 10 3 6 10 10 16 10 5 0 9
-4 9 -10z m50 -20 c13 -8 13 -10 -2 -10 -9 0 -20 5 -23 10 -8 13 5 13 25 0z
m-170 -10 c0 -5 -6 -10 -14 -10 -8 0 -18 5 -21 10 -3 6 3 10 14 10 12 0 21 -4
21 -10z m-50 -21 c13 -9 13 -10 0 -6 -8 2 -34 -6 -58 -19 -46 -26 -56 -29 -47
-15 3 5 1 12 -5 16 -5 3 -10 1 -10 -6 0 -7 -3 -10 -6 -6 -3 3 -3 11 1 17 5 8
11 8 21 -1 8 -6 18 -9 21 -5 4 4 1 11 -7 17 -11 7 -8 8 11 5 14 -2 32 0 40 5
18 11 21 11 39 -2z m180 -5 c0 -2 -37 -3 -82 -2 -77 1 -79 2 -28 7 53 6 110 3
110 -5z m143 9 c-18 -2 -48 -2 -65 0 -18 2 -4 4 32 4 36 0 50 -2 33 -4z m-508
-21 c-3 -3 -11 0 -18 7 -9 10 -8 11 6 5 10 -3 15 -9 12 -12z m-2250 -64 c9
-52 8 -53 -148 -113 -236 -91 -308 -135 -426 -261 -77 -83 -90 -110 -72 -159
10 -30 15 -94 4 -67 -2 6 -9 10 -14 6 -5 -3 -34 20 -64 52 -31 31 -58 54 -62
50 -8 -7 -4 -13 40 -68 l27 -35 -24 -44 c-61 -110 -124 -344 -147 -542 -21
-185 -6 -531 42 -954 l13 -112 -120 -176 c-65 -97 -122 -182 -127 -188 -16
-27 -76 -165 -92 -214 -10 -29 -19 -53 -22 -53 -3 0 -17 8 -31 19 -15 10 -37
22 -49 25 -13 4 -23 12 -23 17 0 5 -4 9 -10 9 -23 0 -7 -20 49 -61 53 -38 58
-46 48 -64 -5 -11 -9 -21 -8 -23 5 -6 -54 -172 -62 -172 -19 0 -158 102 -153
113 11 28 139 424 177 547 59 193 76 246 88 268 5 10 12 30 14 43 3 13 30 98
62 189 66 193 96 295 129 440 33 145 41 197 28 185 -6 -6 -22 -64 -37 -131
-26 -126 -59 -242 -96 -344 -23 -64 -35 -77 -19 -21 23 81 92 447 115 611 20
139 88 487 117 590 18 67 59 157 77 170 4 3 18 21 31 40 104 152 217 252 375
331 94 47 315 133 357 138 3 1 9 -18 13 -41z m469 -478 l7 -45 -13 35 c-7 19
-14 80 -14 135 l-2 100 8 -90 c4 -49 10 -110 14 -135z m24 -120 c0 -9 -3 -7
-8 5 -5 11 -8 29 -8 40 0 16 2 15 8 -5 4 -14 8 -32 8 -40z m2385 15 c-3 -9 -8
-14 -10 -11 -3 3 -2 9 2 15 9 16 15 13 8 -4z m-2347 -132 c-5 -5 -36 74 -36
90 1 6 10 -10 20 -37 11 -28 18 -51 16 -53z m62 -95 c8 -10 12 -18 9 -18 -10
0 -67 81 -67 94 0 6 10 -5 21 -24 12 -19 28 -43 37 -52z m2423 -65 c13 -16 12
-17 -3 -4 -17 13 -22 21 -14 21 2 0 10 -8 17 -17z m-1766 -596 c56 -32 77 -76
72 -154 -6 -79 -35 -139 -98 -200 -55 -53 -139 -103 -175 -103 -12 0 -30 10
-38 22 -18 25 -13 36 46 115 38 50 73 135 61 147 -42 42 -250 -94 -301 -196
-51 -104 -21 -158 169 -301 136 -101 179 -165 179 -261 -1 -66 -26 -120 -81
-173 -148 -144 -452 -190 -584 -88 -48 36 -65 74 -65 140 0 104 63 183 163
205 100 23 204 -22 195 -84 -3 -18 -12 -22 -74 -26 -52 -4 -78 -10 -93 -24
l-22 -20 21 -20 c17 -18 33 -21 98 -21 135 0 262 68 262 139 0 45 -26 75 -123
143 -178 125 -247 221 -247 348 0 59 5 79 33 133 88 171 301 300 497 301 50 1
75 -5 105 -22z m969 -178 c35 -28 60 -115 52 -181 -20 -150 -116 -300 -268
-420 -43 -34 -78 -65 -78 -70 0 -4 13 -22 28 -39 39 -44 112 -50 191 -17 61
26 55 19 111 149 51 120 85 159 137 159 78 0 81 -34 17 -185 -29 -69 -47 -126
-48 -155 -1 -42 1 -45 23 -42 50 5 85 45 109 124 36 118 113 218 209 275 39
22 60 28 111 28 58 0 66 -3 86 -28 13 -16 32 -28 42 -27 54 6 62 -15 29 -80
-50 -98 -86 -203 -83 -239 4 -53 36 -53 109 -2 66 47 74 49 89 22 19 -36 11
-69 -22 -101 -120 -113 -248 -131 -280 -39 l-10 29 -36 -31 c-53 -47 -116 -72
-160 -64 -34 6 -84 46 -93 73 -3 10 -20 3 -57 -22 -67 -45 -111 -57 -157 -45
-41 11 -65 42 -65 82 0 32 5 32 -100 3 -30 -9 -70 -16 -88 -16 -33 0 -34 -1
-28 -31 3 -17 6 -70 6 -118 l0 -86 488 0 c501 0 549 -4 587 -41 20 -21 19 -67
-2 -86 -33 -29 -87 -40 -117 -25 -15 9 -62 15 -113 16 -48 1 -90 4 -95 7 -13
8 -698 4 -741 -4 -37 -7 -39 -9 -63 -81 -32 -94 -47 -123 -91 -172 -43 -47
-89 -69 -147 -69 -34 0 -48 6 -72 31 -29 30 -29 31 -28 146 l2 115 -67 -7
c-139 -13 -443 -69 -606 -110 -143 -36 -170 -46 -170 -61 0 -29 -87 -32 -114
-5 -41 41 -19 112 47 149 90 50 544 134 860 158 89 6 93 8 99 33 3 14 28 105
54 201 26 96 44 178 40 182 -3 3 -31 1 -61 -6 -45 -10 -58 -18 -69 -42 -39
-81 -82 -134 -133 -163 -93 -54 -178 -37 -229 45 -20 32 -24 52 -23 114 1 198
111 354 250 354 94 0 164 -70 166 -169 0 -33 5 -45 15 -45 21 0 134 61 138 74
95 330 171 489 263 551 47 32 118 34 156 4z m381 -114 c28 -27 31 -54 11 -93
-23 -45 -52 -64 -97 -66 -56 -1 -83 31 -76 89 12 83 108 125 162 70z m-3337
-1694 c11 -7 10 -9 -3 -14 -9 -4 -14 -3 -10 2 3 5 -1 12 -7 14 -7 3 -8 6 -3 6
6 0 16 -3 23 -8z m29 -25 c0 -8 -6 -12 -15 -9 -11 5 -11 7 0 14 7 5 13 9 14 9
0 0 1 -6 1 -14z m107 -47 c-4 -8 0 -9 15 -4 11 3 29 1 38 -5 15 -8 12 -9 -12
-4 -23 4 -26 3 -15 -5 20 -14 11 -14 -30 1 -30 10 -32 12 -14 19 26 10 26 10
18 -2z m106 -29 c9 -6 10 -10 3 -10 -6 0 -19 -7 -27 -16 -9 -8 -16 -11 -16 -5
0 5 5 13 10 16 6 4 8 11 5 16 -8 12 6 11 25 -1z m-45 -10 c-3 -5 -14 -10 -23
-9 -14 0 -13 2 3 9 27 11 27 11 20 0z m90 -18 c-3 -3 -11 0 -18 7 -9 10 -8 11
6 5 10 -3 15 -9 12 -12z m-40 -2 c-3 -5 -12 -10 -18 -10 -7 0 -6 4 3 10 19 12
23 12 15 0z m111 -18 c1 -7 0 -8 -3 -2 -2 5 -13 10 -23 10 -10 0 -21 4 -24 9
-4 5 5 6 21 2 15 -4 28 -13 29 -19z m194 -52 c0 -5 -2 -10 -4 -10 -3 0 -8 5
-11 10 -3 6 -1 10 4 10 6 0 11 -4 11 -10z m4777 -177 c-2 -21 -4 -6 -4 32 0
39 2 55 4 38 2 -18 2 -50 0 -70z m-4829 42 c-3 -3 -9 2 -12 12 -6 14 -5 15 5
6 7 -7 10 -15 7 -18z m4499 -61 c-3 -3 -12 -4 -19 -1 -8 3 -5 6 6 6 11 1 17
-2 13 -5z m-32 -14 c3 -5 2 -10 -4 -10 -5 0 -13 5 -16 10 -3 6 -2 10 4 10 5 0
13 -4 16 -10z m-50 -15 c-38 -14 -85 -22 -85 -15 0 5 10 11 23 13 27 5 76 7
62 2z m-105 -25 c-20 -13 -33 -13 -25 0 3 6 14 10 23 10 15 0 15 -2 2 -10z
m-75 -20 c8 -13 -5 -13 -25 0 -13 8 -13 10 2 10 9 0 20 -4 23 -10z m-65 -10
c-14 -4 -36 -8 -50 -8 -22 0 -22 1 5 8 17 4 39 8 50 8 16 0 15 -2 -5 -8z
m-210 -51 c-6 -19 -9 -51 -8 -71 1 -21 -1 -41 -5 -44 -9 -9 -1 131 8 146 12
20 15 5 5 -31z m63 34 c-13 -2 -30 -14 -38 -26 -17 -24 -20 -15 -5 14 7 12 20
19 38 18 23 -2 24 -2 5 -6z m57 3 c0 -2 -7 -6 -15 -10 -8 -3 -15 -1 -15 4 0 6
7 10 15 10 8 0 15 -2 15 -4z m34 -32 c3 -8 2 -12 -4 -9 -6 3 -10 10 -10 16 0
14 7 11 14 -7z m704 -15 c-3 -8 -7 -3 -11 10 -4 17 -3 21 5 13 5 -5 8 -16 6
-23z m-493 -119 c3 -5 1 -10 -4 -10 -6 0 -11 5 -11 10 0 6 2 10 4 10 3 0 8 -4
11 -10z m482 -37 c-3 -10 -5 -2 -5 17 0 19 2 27 5 18 2 -10 2 -26 0 -35z
m-842 17 c3 -5 1 -10 -4 -10 -6 0 -11 5 -11 10 0 6 2 10 4 10 3 0 8 -4 11 -10z
m315 -4 c0 -2 -7 -9 -15 -16 -13 -11 -14 -10 -9 4 5 14 24 23 24 12z m-286
-111 c3 -8 1 -15 -4 -15 -6 0 -10 7 -10 15 0 8 2 15 4 15 2 0 6 -7 10 -15z
m193 -7 c-3 -8 -6 -5 -6 6 -1 11 2 17 5 13 3 -3 4 -12 1 -19z m-174 -73 c-3
-9 -8 -14 -10 -11 -3 3 -2 9 2 15 9 16 15 13 8 -4z m66 -40 c0 -5 -4 -3 -9 5
-5 8 -9 22 -9 30 0 16 17 -16 18 -35z m118 -57 c-3 -7 -5 -2 -5 12 0 14 2 19
5 13 2 -7 2 -19 0 -25z m-40 -30 c-3 -8 -6 -5 -6 6 -1 11 2 17 5 13 3 -3 4
-12 1 -19z m0 -70 c-3 -8 -6 -5 -6 6 -1 11 2 17 5 13 3 -3 4 -12 1 -19z m-37
-18 c0 -5 -4 -10 -10 -10 -5 0 -10 5 -10 10 0 6 5 10 10 10 6 0 10 -4 10 -10z
m-3 -120 c2 -52 -11 -69 -19 -25 -6 28 1 75 11 75 3 0 7 -23 8 -50z m-117
-131 c0 -5 -5 -7 -12 -3 -8 5 -9 2 -4 -12 5 -10 10 -44 13 -74 2 -30 6 -60 8
-67 2 -7 0 -15 -6 -19 -5 -3 -7 -14 -4 -25 4 -10 2 -19 -3 -19 -6 0 -9 -13 -8
-30 1 -16 -2 -30 -7 -30 -5 0 -6 23 -3 53 11 87 12 171 4 195 -5 13 -6 28 -2
33 7 12 24 11 24 -2z m37 -40 c-6 -10 -13 -15 -15 -9 -6 17 7 42 18 35 6 -4 5
-13 -3 -26z m50 -31 c-3 -7 -5 -2 -5 12 0 14 2 19 5 13 2 -7 2 -19 0 -25z
m-68 -62 c-9 -8 -10 -7 -5 7 3 10 7 26 7 35 1 9 4 6 6 -7 3 -13 -1 -28 -8 -35z
m24 -46 c-3 -11 -9 -20 -14 -20 -11 0 -11 3 -3 24 9 23 23 20 17 -4z m27 -40
c0 -5 -2 -10 -4 -10 -3 0 -8 5 -11 10 -3 6 -1 10 4 10 6 0 11 -4 11 -10z m-50
-50 c0 -5 -4 -10 -10 -10 -5 0 -10 5 -10 10 0 6 5 10 10 10 6 0 10 -4 10 -10z
m60 -20 c0 -5 -4 -10 -10 -10 -5 0 -10 5 -10 10 0 6 5 10 10 10 6 0 10 -4 10
-10z m-100 -17 c0 -5 -5 -15 -10 -23 -8 -12 -10 -11 -10 8 0 12 5 22 10 22 6
0 10 -3 10 -7z m110 -28 c0 -9 -6 -12 -15 -9 -8 4 -15 10 -15 15 0 5 7 9 15 9
8 0 15 -7 15 -15z m-132 -67 c-3 -36 0 -46 22 -66 17 -16 19 -22 8 -18 -15 4
-17 0 -13 -27 5 -32 5 -32 -4 -4 -6 16 -7 35 -4 43 3 8 1 14 -5 14 -10 0 -23
-49 -21 -84 1 -19 2 -18 8 4 6 18 8 11 8 -29 1 -51 0 -53 -13 -30 l-13 24 -1
-24 c0 -13 11 -34 25 -47 19 -17 25 -19 25 -8 0 8 5 12 10 9 6 -3 10 3 10 14
0 10 -6 21 -12 24 -10 3 -10 7 0 20 9 10 11 27 7 47 -5 25 -4 29 9 24 13 -5
16 -25 16 -110 0 -103 -7 -125 -27 -82 -10 21 -11 21 -10 -9 0 -18 3 -31 6
-28 4 2 13 -1 21 -7 12 -8 11 -9 -3 -4 -15 5 -17 2 -12 -17 6 -21 5 -21 -6 -3
-7 11 -14 36 -16 55 -4 37 -30 87 -40 77 -3 -3 0 -12 7 -21 7 -8 10 -21 7 -29
-3 -7 -1 -18 5 -24 6 -6 11 -25 10 -42 0 -17 3 -28 7 -26 4 3 7 -12 8 -32 0
-31 -4 -22 -28 48 -16 46 -29 100 -29 120 0 42 32 290 38 290 2 0 2 -19 0 -42z
m36 6 c3 -8 2 -12 -4 -9 -6 3 -10 10 -10 16 0 14 7 11 14 -7z m111 6 c3 -5 1
-10 -4 -10 -6 0 -11 5 -11 10 0 6 2 10 4 10 3 0 8 -4 11 -10z m55 -22 c0 -5
-7 -8 -15 -8 -15 0 -20 21 -8 33 7 7 23 -11 23 -25z m-177 -153 c-3 -9 -8 -14
-10 -11 -3 3 -2 9 2 15 9 16 15 13 8 -4z m297 -35 c0 -5 -2 -10 -4 -10 -3 0
-8 5 -11 10 -3 6 -1 10 4 10 6 0 11 -4 11 -10z m-200 -50 c0 -5 -4 -10 -10
-10 -5 0 -10 5 -10 10 0 6 5 10 10 10 6 0 10 -4 10 -10z m167 -12 c-3 -8 -6
-5 -6 6 -1 11 2 17 5 13 3 -3 4 -12 1 -19z m-60 -104 c-3 -3 -12 -4 -19 -1 -8
3 -5 6 6 6 11 1 17 -2 13 -5z m-2290 -33 c-1 -16 -4 -17 -25 -8 -22 10 -22 12
-5 18 28 12 32 10 30 -10z m2380 -73 c-3 -7 -5 -2 -5 12 0 14 2 19 5 13 2 -7
2 -19 0 -25z m-285 0 c-7 -7 -12 -8 -12 -2 0 14 12 26 19 19 2 -3 -1 -11 -7
-17z m84 -13 c-3 -20 -16 -31 -16 -13 0 13 8 28 16 28 1 0 1 -7 0 -15z"/>
<path d="M5140 8880 c0 -5 5 -10 10 -10 6 0 10 5 10 10 0 6 -4 10 -10 10 -5 0
-10 -4 -10 -10z"/>
<path d="M5692 8355 c0 -16 2 -22 5 -12 2 9 2 23 0 30 -3 6 -5 -1 -5 -18z"/>
<path d="M5741 7564 c0 -11 3 -14 6 -6 3 7 2 16 -1 19 -3 4 -6 -2 -5 -13z"/>
<path d="M5723 7470 c0 -41 2 -58 4 -37 2 20 2 54 0 75 -2 20 -4 3 -4 -38z"/>
<path d="M5710 7375 c0 -8 5 -15 10 -15 6 0 10 7 10 15 0 8 -4 15 -10 15 -5 0
-10 -7 -10 -15z"/>
<path d="M5701 7267 c-17 -109 -21 -150 -14 -143 4 3 10 30 14 59 13 91 20
132 24 144 2 7 1 14 -3 17 -5 3 -14 -32 -21 -77z"/>
<path d="M5421 5984 c0 -11 3 -14 6 -6 3 7 2 16 -1 19 -3 4 -6 -2 -5 -13z"/>
<path d="M3224 8570 c2 -16 20 -14 24 2 3 10 2 10 -6 -1 -7 -9 -11 -10 -15 -2
-4 7 -5 8 -3 1z"/>
<path d="M6060 6139 c0 -11 4 -18 10 -14 5 3 7 12 3 20 -7 21 -13 19 -13 -6z"/>
<path d="M3171 6864 c0 -11 3 -14 6 -6 3 7 2 16 -1 19 -3 4 -6 -2 -5 -13z"/>
<path d="M3176 6803 c-6 -14 -5 -15 5 -6 7 7 10 15 7 18 -3 3 -9 -2 -12 -12z"/>
<path d="M3090 5671 c0 -4 11 -52 24 -107 14 -54 23 -101 20 -105 -2 -4 0 -9
5 -11 5 -1 25 -46 44 -98 19 -52 56 -141 81 -196 26 -56 53 -130 60 -165 11
-55 14 -61 23 -44 25 47 45 151 40 210 -9 111 -36 163 -188 366 -31 40 -66 93
-78 117 -21 40 -31 52 -31 33z m259 -423 c1 -5 -3 -8 -9 -8 -5 0 -10 12 -9 28
0 24 1 25 9 7 5 -11 9 -23 9 -27z m-2 -40 c-3 -8 -6 -5 -6 6 -1 11 2 17 5 13
3 -3 4 -12 1 -19z m19 -70 c2 -37 2 -39 -5 -13 -11 38 -13 70 -5 62 4 -3 8
-26 10 -49z"/>
<path d="M5811 6234 c0 -11 3 -14 6 -6 3 7 2 16 -1 19 -3 4 -6 -2 -5 -13z"/>
<path d="M5767 5785 c-4 -8 -2 -17 3 -20 6 -4 10 3 10 14 0 25 -6 27 -13 6z"/>
<path d="M5762 5725 c0 -16 2 -22 5 -12 2 9 2 23 0 30 -3 6 -5 -1 -5 -18z"/>
<path d="M5753 5645 c0 -27 2 -38 4 -22 2 15 2 37 0 50 -2 12 -4 0 -4 -28z"/>
<path d="M5650 4814 c0 -2 9 -8 20 -14 11 -6 20 -7 20 -2 0 6 -9 12 -20 15
-11 3 -20 3 -20 1z"/>
<path d="M5025 7040 c-10 -11 -14 -20 -9 -20 5 0 15 9 22 20 7 11 11 20 9 20
-2 0 -12 -9 -22 -20z"/>
<path d="M4920 6930 c0 -5 5 -10 10 -10 6 0 10 5 10 10 0 6 -4 10 -10 10 -5 0
-10 -4 -10 -10z"/>
<path d="M4440 6370 c0 -5 5 -10 10 -10 6 0 10 5 10 10 0 6 -4 10 -10 10 -5 0
-10 -4 -10 -10z"/>
<path d="M4790 6080 c0 -5 5 -10 10 -10 6 0 10 5 10 10 0 6 -4 10 -10 10 -5 0
-10 -4 -10 -10z"/>
<path d="M4820 6080 c0 -5 5 -10 10 -10 6 0 10 5 10 10 0 6 -4 10 -10 10 -5 0
-10 -4 -10 -10z"/>
<path d="M3585 6001 c-3 -5 -1 -12 5 -16 5 -3 10 1 10 9 0 18 -6 21 -15 7z"/>
<path d="M4737 5806 c-6 -14 0 -26 13 -26 3 0 6 9 6 20 0 23 -11 27 -19 6z"/>
<path d="M4746 5755 c4 -8 8 -15 10 -15 2 0 4 7 4 15 0 8 -4 15 -10 15 -5 0
-7 -7 -4 -15z"/>
<path d="M5040 6290 c0 -5 9 -10 20 -10 11 0 20 5 20 10 0 6 -9 10 -20 10 -11
0 -20 -4 -20 -10z"/>
<path d="M4950 6145 c0 -8 5 -15 10 -15 6 0 10 7 10 15 0 8 -4 15 -10 15 -5 0
-10 -7 -10 -15z"/>
<path d="M4827 5953 c-4 -3 -7 -11 -7 -17 0 -6 5 -5 12 2 6 6 9 14 7 17 -3 3
-9 2 -12 -2z"/>
<path d="M4645 3937 c-20 -32 -79 -176 -99 -245 -20 -70 -5 -65 50 14 73 104
114 239 77 251 -6 2 -19 -7 -28 -20z"/>
<path d="M5284 3565 c-54 -58 -86 -126 -92 -192 -4 -49 -3 -53 17 -53 31 0 61
41 103 141 20 49 44 99 53 112 21 30 19 37 -12 37 -19 0 -39 -13 -69 -45z"/>
<path d="M4070 3526 c0 -25 12 -46 26 -46 17 0 18 14 4 41 -12 22 -30 25 -30
5z"/>
<path d="M3981 3513 c-20 -39 -41 -129 -41 -179 0 -85 39 -94 93 -21 35 47 39
65 18 77 -22 12 -41 60 -41 106 0 37 -14 44 -29 17z"/>
<path d="M4416 3257 c-19 -43 -66 -213 -66 -239 0 -14 8 -18 34 -18 19 0 37 4
40 8 14 23 27 191 18 237 l-9 50 -17 -38z"/>
<path d="M4306 2833 c-9 -58 -7 -113 4 -113 11 0 70 116 70 138 0 7 -13 12
-34 12 -31 0 -34 -3 -40 -37z"/>
<path d="M4240 10730 c0 -5 5 -10 11 -10 5 0 7 5 4 10 -3 6 -8 10 -11 10 -2 0
-4 -4 -4 -10z"/>
<path d="M4089 10592 c-19 -21 -40 -49 -48 -62 -49 -83 -62 -111 -58 -122 2
-7 12 4 22 25 11 20 22 37 27 37 4 0 8 5 8 11 0 6 23 40 50 75 28 35 50 66 50
69 0 14 -20 1 -51 -33z"/>
<path d="M5025 10590 c3 -5 8 -10 11 -10 2 0 4 5 4 10 0 6 -5 10 -11 10 -5 0
-7 -4 -4 -10z"/>
<path d="M5760 10556 c0 -2 8 -10 18 -17 15 -13 16 -12 3 4 -13 16 -21 21 -21
13z"/>
<path d="M5865 10423 c34 -53 45 -67 45 -60 0 10 -51 87 -57 87 -3 0 3 -12 12
-27z"/>
<path d="M4216 10318 c-3 -35 -8 -126 -12 -203 -3 -77 -7 -162 -9 -190 -5 -98
-38 -283 -87 -485 -27 -113 -55 -239 -63 -280 l-13 -75 -1 55 c0 30 8 122 19
204 11 82 18 152 15 154 -12 12 -46 -220 -52 -356 -10 -208 40 -429 107 -470
18 -11 20 -10 20 9 0 13 -4 18 -12 13 -7 -4 -8 -3 -4 5 4 6 3 17 -2 24 -5 7
-13 31 -17 55 -4 23 -10 40 -14 37 -4 -2 -6 42 -4 98 5 115 6 122 21 157 6 14
21 52 33 85 13 33 27 65 32 72 5 7 6 17 2 23 -3 5 -1 10 5 10 6 0 10 6 9 13
-1 6 4 26 11 42 7 17 15 55 19 85 l7 55 7 -45 c30 -197 35 -411 13 -537 -16
-89 -35 -133 -74 -175 -38 -41 -21 -43 21 -2 95 93 111 265 67 734 -11 113
-22 241 -26 285 -4 44 -6 212 -5 373 1 160 0 292 -3 292 -2 0 -7 -28 -10 -62z
m-19 -680 c-3 -7 -5 -2 -5 12 0 14 2 19 5 13 2 -7 2 -19 0 -25z m-20 -60 c-3
-8 -6 -5 -6 6 -1 11 2 17 5 13 3 -3 4 -12 1 -19z m-10 -40 c-3 -8 -6 -5 -6 6
-1 11 2 17 5 13 3 -3 4 -12 1 -19z m-10 -40 c-3 -8 -6 -5 -6 6 -1 11 2 17 5
13 3 -3 4 -12 1 -19z m70 -30 c-3 -7 -5 -2 -5 12 0 14 2 19 5 13 2 -7 2 -19 0
-25z m-80 -10 c-3 -8 -6 -5 -6 6 -1 11 2 17 5 13 3 -3 4 -12 1 -19z m-30 -130
c-3 -8 -6 -5 -6 6 -1 11 2 17 5 13 3 -3 4 -12 1 -19z m-20 -80 c-3 -8 -6 -5
-6 6 -1 11 2 17 5 13 3 -3 4 -12 1 -19z m-20 -100 c-3 -7 -5 -2 -5 12 0 14 2
19 5 13 2 -7 2 -19 0 -25z m2 -73 c0 -5 -4 -3 -9 5 -5 8 -9 22 -9 30 0 16 17
-16 18 -35z m31 19 c0 -8 -5 -12 -10 -9 -6 4 -8 11 -5 16 9 14 15 11 15 -7z
m-53 -71 c-3 -10 -5 -4 -5 12 0 17 2 24 5 18 2 -7 2 -21 0 -30z m-30 -15 c-3
-8 -6 -5 -6 6 -1 11 2 17 5 13 3 -3 4 -12 1 -19z m30 -40 c-3 -7 -5 -2 -5 12
0 14 2 19 5 13 2 -7 2 -19 0 -25z m0 -80 c-3 -7 -5 -2 -5 12 0 14 2 19 5 13 2
-7 2 -19 0 -25z m16 -43 c-3 -9 -8 -14 -10 -11 -3 3 -2 9 2 15 9 16 15 13 8
-4z"/>
<path d="M5236 10338 c3 -5 10 -6 15 -3 13 9 11 12 -6 12 -8 0 -12 -4 -9 -9z"/>
<path d="M5329 10233 c-13 -16 -12 -17 4 -4 9 7 17 15 17 17 0 8 -8 3 -21 -13z"/>
<path d="M5595 10240 c3 -5 8 -10 11 -10 2 0 4 5 4 10 0 6 -5 10 -11 10 -5 0
-7 -4 -4 -10z"/>
<path d="M5630 10213 c0 -6 9 -21 21 -34 l20 -24 -17 30 c-24 39 -24 40 -24
28z"/>
<path d="M5616 10173 c-6 -14 -5 -15 5 -6 7 7 10 15 7 18 -3 3 -9 -2 -12 -12z"/>
<path d="M6052 10105 c18 -35 34 -63 36 -61 4 5 -56 126 -63 126 -3 0 10 -29
27 -65z"/>
<path d="M5680 10145 c0 -3 7 -17 16 -30 9 -14 14 -32 10 -40 -4 -10 -2 -14 5
-9 7 4 9 -1 4 -15 -3 -11 -2 -29 4 -38 6 -10 11 -14 11 -9 0 6 7 1 15 -10 25
-34 16 3 -21 81 -32 67 -44 86 -44 70z"/>
<path d="M5675 10100 c3 -5 8 -10 11 -10 2 0 4 5 4 10 0 6 -5 10 -11 10 -5 0
-7 -4 -4 -10z"/>
<path d="M5640 10058 c0 -9 5 -20 10 -23 13 -8 13 5 0 25 -8 13 -10 13 -10 -2z"/>
<path d="M6090 10028 c0 -11 30 -78 35 -78 3 0 -2 17 -10 37 -15 36 -25 52
-25 41z"/>
<path d="M5660 10004 c0 -8 5 -12 10 -9 6 4 8 11 5 16 -9 14 -15 11 -15 -7z"/>
<path d="M4826 9977 c3 -10 9 -15 12 -12 3 3 0 11 -7 18 -10 9 -11 8 -5 -6z"/>
<path d="M4925 9970 c-3 -5 -1 -10 4 -10 6 0 11 5 11 10 0 6 -2 10 -4 10 -3 0
-8 -4 -11 -10z"/>
<path d="M5676 9965 c4 -8 8 -15 10 -15 2 0 4 7 4 15 0 8 -4 15 -10 15 -5 0
-7 -7 -4 -15z"/>
<path d="M4681 9934 c0 -11 3 -14 6 -6 3 7 2 16 -1 19 -3 4 -6 -2 -5 -13z"/>
<path d="M6130 9934 c0 -15 53 -165 57 -161 2 3 -8 40 -23 83 -25 77 -34 97
-34 78z"/>
<path d="M5060 9821 c0 -6 4 -13 10 -16 6 -3 7 1 4 9 -7 18 -14 21 -14 7z"/>
<path d="M6195 9740 c13 -65 55 -200 50 -163 -3 23 -16 75 -30 115 -14 40 -22
62 -20 48z"/>
<path d="M6273 9373 c0 -39 5 -63 11 -63 6 0 4 -5 -4 -10 -12 -8 -12 -10 -1
-10 10 0 12 -10 8 -37 -3 -21 -3 -30 -1 -20 3 9 9 17 13 17 8 0 -3 100 -17
154 -7 25 -8 20 -9 -31z"/>
<path d="M6307 9175 c3 -38 7 -72 9 -74 7 -8 3 64 -6 104 -7 31 -7 24 -3 -30z"/>
<path d="M6323 9055 c0 -22 2 -30 4 -17 2 12 2 30 0 40 -3 9 -5 -1 -4 -23z"/>
<path d="M6333 8970 c0 -25 2 -35 4 -22 2 12 2 32 0 45 -2 12 -4 2 -4 -23z"/>
<path d="M3835 8890 c3 -5 8 -10 11 -10 2 0 4 5 4 10 0 6 -5 10 -11 10 -5 0
-7 -4 -4 -10z"/>
<path d="M6341 8868 c-1 -14 -4 -28 -8 -31 -5 -2 -3 -2 4 -1 8 2 13 -14 16
-44 l3 -47 1 50 c1 28 -3 61 -7 75 l-8 25 -1 -27z"/>
<path d="M4892 8755 c-30 -14 -57 -23 -61 -21 -4 3 -13 0 -21 -6 -12 -8 -11
-9 5 -4 13 4 9 -3 -13 -20 -31 -25 -81 -104 -65 -104 5 1 20 18 35 39 34 50
106 99 177 122 45 14 50 18 26 18 -16 1 -54 -10 -83 -24z"/>
<path d="M6366 8640 c9 -179 14 -243 20 -249 9 -8 -5 251 -16 309 -7 32 -8 15
-4 -60z"/>
<path d="M5026 8630 c-106 -32 -169 -144 -170 -300 -1 -89 21 -146 78 -207 50
-54 52 -55 118 -60 51 -4 79 -1 114 12 l46 17 -27 18 c-26 17 -28 17 -46 -1
-21 -21 -47 -24 -101 -9 -47 14 -53 23 -34 60 9 19 11 30 3 30 -6 0 -2 8 9 19
16 15 22 16 38 5 12 -8 37 -11 70 -8 46 5 49 4 33 -9 -18 -15 -18 -16 2 -36
12 -12 21 -16 21 -11 0 14 27 13 32 -2 8 -23 34 1 61 56 43 88 42 212 -3 295
-50 95 -163 155 -244 131z m-7 -106 c59 -75 -23 -182 -97 -127 -39 29 -41 80
-7 122 34 40 75 42 104 5z m94 -164 c5 -20 -5 -32 -35 -43 -25 -9 -34 29 -13
53 20 22 41 17 48 -10z m67 -180 c0 -5 -5 -10 -11 -10 -5 0 -7 5 -4 10 3 6 8
10 11 10 2 0 4 -4 4 -10z"/>
<path d="M3076 8590 c10 -38 56 -130 65 -130 17 0 20 22 5 33 -8 7 -29 37 -46
67 -17 30 -28 44 -24 30z"/>
<path d="M3695 8520 c-16 -4 -39 -11 -50 -17 -25 -14 -70 -63 -78 -84 -5 -15
-3 -15 24 -2 56 28 107 -16 96 -84 -7 -42 -20 -53 -64 -53 -23 0 -38 8 -56 30
l-25 30 -7 -39 c-8 -46 8 -138 30 -181 25 -49 71 -95 114 -115 33 -14 39 -21
30 -32 -18 -20 -9 -23 46 -12 71 14 126 38 133 57 7 21 -28 26 -43 6 -10 -14
-26 -19 -64 -19 -32 0 -51 4 -51 12 0 6 -13 14 -29 18 -36 8 -48 33 -24 51 16
11 19 9 23 -19 6 -30 6 -31 14 -9 4 13 19 28 32 34 13 6 24 15 24 19 0 4 13
17 28 27 l28 20 -1 -26 c0 -23 4 -27 30 -27 23 -1 31 -6 33 -23 4 -30 23 -23
42 14 37 74 19 243 -35 322 -13 20 -22 39 -19 44 3 5 2 7 -3 6 -4 -2 -25 8
-46 21 -47 29 -92 39 -132 31z m81 -246 c8 -29 -16 -60 -39 -51 -15 6 -26 44
-19 65 2 7 14 12 28 12 17 0 25 -7 30 -26z"/>
<path d="M6393 8300 c0 -36 2 -50 4 -32 2 17 2 47 0 65 -2 17 -4 3 -4 -33z"/>
<path d="M6401 8205 c-1 -34 38 -365 45 -380 2 -5 2 37 -1 95 -5 96 -14 170
-35 275 -7 35 -8 36 -9 10z"/>
<path d="M2654 8060 c0 -63 1 -89 3 -57 2 31 2 83 0 115 -2 31 -3 5 -3 -58z"/>
<path d="M5214 7934 c-4 -22 -10 -46 -14 -54 -10 -20 -22 -85 -14 -78 3 4 10
24 15 45 6 21 15 55 20 77 5 21 8 41 5 43 -3 3 -8 -12 -12 -33z"/>
<path d="M5161 7945 c-2 -11 -4 -29 -7 -40 -2 -11 -6 -49 -9 -85 l-5 -65 15
80 c9 44 14 91 12 105 -3 19 -5 21 -6 5z"/>
<path d="M5037 7932 c-10 -14 -47 -155 -40 -148 9 8 53 149 49 154 -2 2 -6 -1
-9 -6z"/>
<path d="M5082 7878 c-11 -35 -24 -72 -27 -83 -3 -11 1 -7 10 8 16 28 46 129
40 135 -1 2 -12 -25 -23 -60z"/>
<path d="M4981 7875 c-12 -31 -21 -63 -21 -73 1 -9 12 14 25 52 14 38 23 71
21 73 -2 3 -13 -21 -25 -52z"/>
<path d="M5255 7875 c-9 -31 -15 -58 -12 -61 2 -2 11 21 20 53 9 31 15 59 12
61 -2 2 -11 -21 -20 -53z"/>
<path d="M2638 7835 c-5 -38 -8 -90 -8 -115 0 -24 -9 -87 -19 -140 -35 -174
-39 -205 -30 -211 17 -10 -21 -190 -57 -272 -20 -43 -34 -83 -31 -90 2 -6 12
12 22 41 25 68 30 60 10 -14 -9 -33 -18 -81 -20 -109 -5 -84 -47 -237 -77
-281 -30 -44 -39 -119 -16 -126 22 -8 -103 -439 -184 -633 -36 -84 -60 -163
-56 -177 4 -11 34 66 139 367 68 193 152 507 204 767 32 161 46 246 90 533 19
127 47 442 43 490 -2 33 -4 27 -10 -30z"/>
<path d="M3701 7790 c-6 -28 -11 -65 -10 -83 1 -18 7 4 14 48 16 90 13 113 -4
35z"/>
<path d="M3772 7820 c0 -14 2 -19 5 -12 2 6 2 18 0 25 -3 6 -5 1 -5 -13z"/>
<path d="M3602 7805 c0 -16 2 -22 5 -12 2 9 2 23 0 30 -3 6 -5 -1 -5 -18z"/>
<path d="M3640 7809 c0 -5 5 -7 10 -4 6 3 10 8 10 11 0 2 -4 4 -10 4 -5 0 -10
-5 -10 -11z"/>
<path d="M6450 7796 c0 -29 41 -250 47 -256 3 -3 3 11 -1 30 -4 19 -13 79 -20
133 -12 87 -26 139 -26 93z"/>
<path d="M3632 7765 c0 -16 2 -22 5 -12 2 9 2 23 0 30 -3 6 -5 -1 -5 -18z"/>
<path d="M3761 7764 c0 -11 3 -14 6 -6 3 7 2 16 -1 19 -3 4 -6 -2 -5 -13z"/>
<path d="M3531 7754 c0 -11 3 -14 6 -6 3 7 2 16 -1 19 -3 4 -6 -2 -5 -13z"/>
<path d="M3590 7730 c0 -22 2 -40 4 -40 2 0 6 18 8 40 2 22 0 40 -4 40 -5 0
-8 -18 -8 -40z"/>
<path d="M4268 7734 c-9 -8 9 -44 22 -44 14 0 12 13 -3 34 -7 9 -16 14 -19 10z"/>
<path d="M6426 7555 c3 -27 10 -57 15 -65 10 -16 8 -2 -11 75 -9 39 -9 39 -4
-10z"/>
<path d="M2841 7405 c0 -33 -8 -146 -16 -250 -30 -378 -42 -480 -71 -595 -7
-30 -23 -95 -35 -145 -12 -49 -26 -98 -31 -107 -5 -11 -5 -18 1 -18 14 0 50
122 105 350 50 206 78 542 61 710 -10 93 -13 104 -14 55z"/>
<path d="M4359 7413 c-29 -4 -67 -39 -55 -50 3 -4 24 3 45 15 46 26 91 28 155
6 47 -16 69 -13 49 7 -23 23 -118 34 -194 22z"/>
<path d="M6531 7384 c0 -11 3 -14 6 -6 3 7 2 16 -1 19 -3 4 -6 -2 -5 -13z"/>
<path d="M6545 7340 c19 -89 30 -123 32 -105 2 11 -6 45 -17 75 -11 30 -18 44
-15 30z"/>
<path d="M2536 7224 c-22 -87 -14 -95 9 -9 10 36 16 68 13 71 -3 2 -13 -25
-22 -62z"/>
<path d="M4395 7260 c8 -13 45 -13 65 0 11 7 3 10 -28 10 -26 0 -41 -4 -37
-10z"/>
<path d="M6604 7130 c43 -138 80 -242 83 -233 5 13 -53 187 -74 223 -8 14 -12
18 -9 10z"/>
<path d="M6540 6860 c0 -5 5 -10 11 -10 5 0 7 5 4 10 -3 6 -8 10 -11 10 -2 0
-4 -4 -4 -10z"/>
<path d="M6532 6800 c-17 -27 -15 -35 4 -16 8 9 14 21 12 26 -2 6 -9 1 -16
-10z"/>
<path d="M6533 6708 c-2 -16 1 -18 10 -9 7 7 8 14 1 21 -6 6 -10 2 -11 -12z"/>
<path d="M6565 6700 c3 -5 8 -10 11 -10 2 0 4 5 4 10 0 6 -5 10 -11 10 -5 0
-7 -4 -4 -10z"/>
<path d="M6550 6669 c0 -5 5 -7 10 -4 6 3 10 8 10 11 0 2 -4 4 -10 4 -5 0 -10
-5 -10 -11z"/>
<path d="M6580 6660 c0 -5 5 -10 10 -10 6 0 10 5 10 10 0 6 -4 10 -10 10 -5 0
-10 -4 -10 -10z"/>
<path d="M6578 6632 c-10 -2 -18 -8 -18 -13 0 -6 5 -7 10 -4 6 3 10 -4 11 -17
1 -20 2 -19 10 6 10 34 10 34 -13 28z"/>
<path d="M6600 6565 c0 -8 4 -15 10 -15 5 0 7 7 4 15 -4 8 -8 15 -10 15 -2 0
-4 -7 -4 -15z"/>
<path d="M6566 6553 c-6 -14 -5 -15 5 -6 7 7 10 15 7 18 -3 3 -9 -2 -12 -12z"/>
<path d="M6580 6530 c0 -5 5 -10 10 -10 6 0 10 5 10 10 0 6 -4 10 -10 10 -5 0
-10 -4 -10 -10z"/>
<path d="M6620 6436 c0 -8 4 -17 9 -20 5 -4 7 3 4 14 -6 23 -13 26 -13 6z"/>
<path d="M6661 6194 c0 -11 3 -14 6 -6 3 7 2 16 -1 19 -3 4 -6 -2 -5 -13z"/>
<path d="M6681 6144 c0 -11 3 -14 6 -6 3 7 2 16 -1 19 -3 4 -6 -2 -5 -13z"/>
<path d="M2546 5957 c-47 -104 -58 -132 -49 -122 14 15 86 175 81 180 -2 2
-16 -24 -32 -58z"/>
<path d="M6760 5665 c0 -2 8 -9 18 -14 14 -7 19 -6 19 3 0 6 -9 13 -19 13 -10
1 -18 0 -18 -2z"/>
<path d="M2141 1055 c0 -35 3 -44 9 -30 6 17 8 15 11 -14 2 -19 10 -36 16 -39
10 -3 11 11 7 60 -7 69 -11 79 -23 59 -7 -11 -10 -11 -14 0 -3 8 -5 -8 -6 -36z"/>
<path d="M6425 950 c4 -6 11 -8 16 -5 14 9 11 15 -7 15 -8 0 -12 -5 -9 -10z"/>
<path d="M6680 648 c0 -44 3 -59 10 -48 13 20 13 97 0 105 -6 4 -10 -17 -10
-57z"/>
<path d="M6530 580 c0 -11 5 -20 10 -20 6 0 10 9 10 20 0 11 -4 20 -10 20 -5
0 -10 -9 -10 -20z"/>
<path d="M6651 414 c0 -11 3 -14 6 -6 3 7 2 16 -1 19 -3 4 -6 -2 -5 -13z"/>
<path d="M6632 280 c0 -14 2 -19 5 -12 2 6 2 18 0 25 -3 6 -5 1 -5 -13z"/>
</g>
</svg>
